<svg xmlns="http://www.w3.org/2000/svg" width="448" height="512" viewBox="0 0 448 512"><path d="M160,32V64H288V32a32,32,0,0,1,64,0V64h48a48,48,0,0,1,48,47.994V160H0V112A48,48,0,0,1,48,64H96V32a32,32,0,0,1,64,0ZM0,192H448V464a48.012,48.012,0,0,1-48,48H48A48,48,0,0,1,0,464.006ZM64,304a16.021,16.021,0,0,0,16,16h32a16.047,16.047,0,0,0,16-16V272a16.047,16.047,0,0,0-16-16H80a16.021,16.021,0,0,0-16,16Zm128,0a16.047,16.047,0,0,0,16,16h32a16.047,16.047,0,0,0,16-16V272a16.047,16.047,0,0,0-16-16H208a16.047,16.047,0,0,0-16,16Zm144-48a16.047,16.047,0,0,0-16,16v32a16.047,16.047,0,0,0,16,16h32a16.047,16.047,0,0,0,16-16V272a16.047,16.047,0,0,0-16-16ZM64,432a16.021,16.021,0,0,0,16,16h32a16.047,16.047,0,0,0,16-16V400a16.047,16.047,0,0,0-16-16H80a16.021,16.021,0,0,0-16,16Zm144-48a16.047,16.047,0,0,0-16,16v32a16.047,16.047,0,0,0,16,16h32a16.047,16.047,0,0,0,16-16V400a16.047,16.047,0,0,0-16-16Zm112,48a16.047,16.047,0,0,0,16,16h32a16.047,16.047,0,0,0,16-16V400a16.047,16.047,0,0,0-16-16H336a16.047,16.047,0,0,0-16,16Z" fill="#e8e1f0"/></svg>