<?xml version="1.0" encoding="utf-8"?>
<!-- Generator: Adobe Illustrator 26.0.3, SVG Export Plug-In . SVG Version: 6.00 Build 0)  -->
<svg version="1.1" id="Layer_1" xmlns="http://www.w3.org/2000/svg" xmlns:xlink="http://www.w3.org/1999/xlink" x="0px" y="0px"
	 viewBox="0 0 380 136.6" style="enable-background:new 0 0 380 136.6;" xml:space="preserve">
<style type="text/css">
	.st0{fill:none;}
	.st1{clip-path:url(#SVGID_00000096054311877622558010000012374275743538464648_);}
	.st2{fill:url(#SVGID_00000060726447906118526830000005938495260053230512_);}
	.st3{fill:#FFFFFF;}
	.st4{fill:#7E42BE;}
	.st5{fill:url(#SVGID_00000033340834722781476290000005269553413508632760_);}
	.st6{fill:url(#SVGID_00000056418564305712563780000004412107706395924377_);}
</style>
<pattern  y="188.8" width="5" height="5" patternUnits="userSpaceOnUse" id="VT_Halftone_5" viewBox="0.8 -5.8 5 5" style="overflow:visible;">
	<g>
		<rect x="0.8" y="-5.8" class="st0" width="5" height="5"/>
		<rect x="0.8" y="-5.8" class="st0" width="5" height="5"/>
		<circle cx="4.6" cy="-5.8" r="0.8"/>
		<circle cx="2.1" cy="-5.8" r="0.8"/>
		<circle cx="5.8" cy="-3.3" r="0.8"/>
		<circle cx="3.3" cy="-3.3" r="0.8"/>
		<circle cx="0.8" cy="-3.3" r="0.8"/>
		<circle cx="4.6" cy="-0.8" r="0.8"/>
		<circle cx="2.1" cy="-0.8" r="0.8"/>
	</g>
</pattern>
<g id="Layer_2_00000010996868168348327330000006037146208626680716_">
	<g id="OBJECTS">
		<g>
			<defs>
				<rect id="SVGID_1_" x="-106" y="-76.2" width="592" height="210.8"/>
			</defs>
			<clipPath id="SVGID_00000096738043607924483090000003507532761291550905_">
				<use xlink:href="#SVGID_1_"  style="overflow:visible;"/>
			</clipPath>
			<g style="clip-path:url(#SVGID_00000096738043607924483090000003507532761291550905_);">
				<path d="M207.8,29.3c-0.1-1.2,0-2.3,0.1-3.5c1.1-4.7,4.1-8.1,8-10.7c3.6-2.4,7.1-5,11.3-6.4c3.5-1.2,7.1-2.4,10.7-3.3
					c5.2-1.4,10.5-1.9,15.9-1.7c1.6,0.2,3.1,0.6,4.6,1.1l1.1,0.3c0.7,0.2,1,0.1,1.5-0.6c1.3-2.1,3.3-3.8,5.6-4.8
					c1.1-0.5,1.6-0.3,1.9,0.8c-2.2,0.9-4,2.4-5.4,4.3l0,0c0.9,0,1.7,0,2.6,0.1c0.9,0.1,1.7,0.2,2.6,0.4c0.3,0.1,0.5,0.6,0.7,0.9
					c-0.3,0.2-0.6,0.6-1,0.6c-1.2,0.1-2.5,0-4,0c5.8,5,9.8,10.7,7.7,19c2.9,2.2,3.4,5.6,3.5,9c0.1,3.4-1.2,6.8-3.5,9.4
					c-1.9,2.3-4.4,4-7.2,4.8c-0.4,0.2-0.7,0.5-0.8,0.9c-0.5,2.9-1.3,5.8-2.3,8.6c-0.4,1.7-0.6,3.4-0.6,5.1c-0.1,3,0,6,0,9.1
					c0.3-0.1,0.7-0.2,1-0.4c2.4-1.5,4.5-0.8,5.1,1.9c0.4,1.9,0.7,3.8,0.9,5.7c0.1,1.5,0.4,1.9,2.4,2.6c4.2,1.6,8.5,3.2,12.7,4.8
					c3.5,1.3,7.1,2.4,10.5,3.9c2.5,1.2,4.9,2.5,7.3,4c1.4,0.8,2.6,1.8,3.9,2.6c2,1.2,2.8,3.2,3.2,5.4c0.1,0.6,0.4,1.3,0.6,2.1
					c1-0.6,2-1.3,2.8-2.2c0.6-0.8,0.9-1.7,0.9-2.6c0-2.1-0.1-4.2-0.2-6.3c0-1.2-1-1.2-1.9-1.4c-2.4-0.5-4.7-1.2-7-1.9
					c-3.5-1.5-6.5-4-8.4-7.2c-1.7-2.8-3-5.9-3.8-9.1c-1-3.3-1.6-6.7-1.8-10.1c-0.2-2.8,0.1-5.6,0.8-8.4c0.1-0.5,0.2-1,0.4-1.6
					c-1.3-0.8-1.7-2.4-1-3.8c1-3.2,2.7-6.3,4.9-8.9c2.1-2.2,4.5-4.2,6.9-6c1.8-1.4,3.8-2.5,6-3.5c4.4-1.9,8.9-3.3,13.8-3.1
					c1.3,0,2.8-0.2,3.9,0.2c2.6,1.1,5.5,1.1,8.1,2c2.9,1,5.8,1.9,8.6,3.1c3.8,1.6,5.9,4.8,7.1,8.7c0.8,2.8,0.5,5.5,0,8.3
					c-0.2,1.5-0.5,3-0.8,4.4c-0.2,0.5,0.1,1,0.5,1.2c3.2,2.5,3.7,5.7,2.9,9.5c-0.6,2.1-1.6,4.1-2.9,5.8l0.2,0.3l3-1.6
					c0.5-0.3,1-0.8,1.5-0.1c0.5,0.7,0,0.9-0.4,1.3c-1,1.1-2.7,1.9-5.4,2.5c0.6,0.8,1.2,1.6,1.8,2.4c1.9,2.2,2.5,5.2,1.5,7.9
					c-0.4,1.4-1.4,2.6-2.7,3.3c-1.7,0.9-3.6,1.6-5.4,2.3c-0.2,0-0.4,0.1-0.6,0.2c-2.2,1.5-4.9,2-7.5,1.2c0.7,1.7,1.3,3.4,2,5.1
					c0.1,0.4,0.4,0.8,0.3,1.1c-0.5,1,0.2,1.2,0.9,1.4c3.7,1.1,7.4,2.2,11.1,3.2c0.6,0.2,1.1,0.4,1.7,0.6c1.4,0.3,2.8,0.6,4.2,1
					c1.3,0.6,2.5,1.2,3.7,1.9c0.6-0.9,1.3-2,2-3c0.7-1,1.5-1.6,2.3-2.5c0.5-0.6,1.4-0.8,2-0.3c0,0,0.1,0.1,0.1,0.1
					c0.5,0.6,0.7,1.3,0.7,2.1c-0.2,1.3-0.5,2.5-0.9,3.7c0,0.1,0,0.3,0.1,0.5c1.1-1.7,2.1-3.3,3.2-4.9c0.6-0.9,1.4-1.8,2.1-2.7
					c0.5-0.7,1.4-0.9,2.1-0.5c0.5,0.4,0.9,1,1,1.6c0.4,1.8-0.5,3.4-1,5c-0.4,1.3-0.8,2.5-1.3,3.8h-0.2l0.1,0.1l0.1-0.2
					c1-1.2,2-2.3,3.1-3.4c0.8-0.7,1.7-1.1,2.7-1.4c1.1-0.3,1.8,0.3,1.8,1.4c0,0.7-0.2,1.4-0.4,2.1c-1.2,2.7-2.8,5.2-4.7,7.4
					l-0.7,0.9c1.5-0.8,2.9-1.6,4.5-2.3c0.7-0.3,1.4-0.4,2.1-0.3c1,0,1.5,1.1,1.2,2.3c-0.5,1.9-1.9,3.2-3,4.7c-2.4,3-4.8,5.9-7.1,8.9
					c-0.3,0.6-0.4,1.2-0.3,1.9c0,3.1,0.1,6.2-0.1,9.2c-0.1,2.6-0.7,5.2-0.9,7.9c-0.4,3.6-0.5,7.3-1,10.9c-0.3,2.6-0.9,5.2-1.9,7.6
					c-1,2.6-1.9,5.3-2.8,8c0,0.1,0,0.2-0.1,0.2c-2,2.3-1.3,4.6-0.3,7.1c0.5,1.3,0.8,2.7,1.1,4.1h-28.9c0.1-3.9,0.2-7.7,0.3-11.6
					s0.4-7.9,0.4-11.8c0-5.5-0.3-10.9-0.3-16.4c0-6,0-12,0-18c0-3.8,0.2-7.6,0.2-11.3c0-2.1-0.1-4.3-0.1-6.4c-0.4,0.4-0.7,1-0.9,1.5
					c-0.4,1.3-1.7,2-3,1.6c-1.5-0.4-2.9-1-4.3-1.7c-1.7-1.2-3.4-2.5-5-3.9c0,2.6,0.1,5.2,0,7.7c-0.1,2.8-0.5,5.6-0.6,8.5
					c0,4.4,0.2,8.9,0.4,13.3c0.2,4.1,0.3,8.2,0.6,12.3c0.4,4.7,0.9,9.4,1.5,14.1s1.1,9.5,1.7,14.3c0.3,2.6,0.7,5.3,1.1,7.9h-2.3
					c-0.6-4.9-1.3-9.8-1.9-14.7c-0.4-3.5-0.7-7-1-10.5c-0.5-4.7-1-9.5-1.3-14.2s-0.6-9.4-0.7-14.1c-0.1-3.7,0-7.4,0.1-11.2
					c0.1-4.1,0.3-8.2,0.4-12.3c0-0.2-0.2-0.3-0.4-0.7c-0.7,0.8-1.2,1.4-1.8,2c-1.4,1.5-2.6,3.2-4.7,3.8c-1.2,0.3-2,0.1-2.3-1.1
					c-0.3-1.2-0.5-2.4-0.6-3.6c-0.1-1.4,0-2.8,0-4.4c-1.1,0.9-2.2,1.6-3.2,2.5c-0.4,0.3-0.6,0.8-0.6,1.3c0.1,2.4,0.2,4.7,0.5,7.1
					c0.6,4.3,1.2,8.6,2,12.9c0.6,3.4,1.3,6.8,1.9,10.2c0.6,3.4,1,6.8,1.5,10.1c0.4,2.8,0.9,5.6,1.4,8.4c0.5,3.1,1.1,6.2,1.7,9.2
					c0.8,3.8,1.7,7.5,2.6,11.2c0.6,2.6,1.2,5.3,1.8,7.9h-13.7c-0.2-2.2-0.3-4.4-0.5-6.6c-0.2-1.7-0.5-3.3-0.8-5
					c-0.6-4.4-1-8.8-2.5-13.1c-0.5-1.4-1.2-2.8-1.8-4.3l-0.3,0.1c0.1,2.1,0.3,4.1,0.3,6.2c0,4.5,0,8.9-0.1,13.4c0,3,0,6.1-0.1,9.1
					h-22c0.1-0.2,0.1-0.4,0.1-0.6c0.1-4,0.2-7.9,0.4-11.8c0.1-3.3,0.3-6.6,0.4-9.9c0.1-3,0.1-5.9,0.2-8.9c0.2-3.7,0.4-7.5,0.7-11.2
					s0.5-7.2,0.8-10.8c0.2-4,1-8,2.4-11.8c0.1-0.2-0.1-0.6-0.2-0.9c-0.4-1.1-1-2.2-1.3-3.3c-0.1-0.4,0.1-1.1,0.3-1.2
					c0.7-0.3,0.9,0.3,1.1,0.9c0.2,0.4,0.5,0.8,0.8,1.1v0.1v0c0.1-1.8,0.1-3.7,0.3-5.5c0.1-0.4,0.5-0.7,0.9-0.8
					c0.3,0,0.7,0.5,0.9,0.8c0.1,0.4,0.1,0.7,0,1.1v2.8c7.4-2.4,14.4-5.9,20.7-10.5l-0.8-1.7c-0.6-1.4-0.8-3.1-2.1-4.1
					c-1-0.8-2-1.7-3.1-2.5c-3.3-2.4-6.9-4.3-10.7-5.8c-4.2-1.5-8.3-3.3-12.4-5c-3.1-1.2-6.1-2.5-9-3.7c-0.8,1.6-1.6,3.1-2.5,4.5
					c-1.6,2.5-3.7,4.5-6.2,6.1c-1.6,1.1-2.2,0.9-2.7-1.1c0,0-0.1-0.1-0.3-0.1c-0.1,0.7-0.2,1.3-0.3,1.9c-0.6,3-1.3,6-1.8,9
					c-1.1,5.8-1.6,11.8-3.4,17.5c-0.5,2.1-1.5,4.2-2.8,6c-1.1,1.4-1,2.7-1.2,4.1c1,0,1.8,0,2.7,0c2.2,0,3.5,1,3.9,3.2
					c0.2,1.6,0.4,3.3,0.5,4.9c0.1,2.6,0.2,5.3,0.3,7.9c0.1,2.5,0.2,5,0.4,7.5c0.1,0.9-0.5,1.7-1.4,1.9c-1.9,0.5-3.7,1.2-5.6,1.7
					c0.2,4.5,0.4,9.1,0.7,13.7c0.3,4.9,0.8,9.8,1.2,14.7h-2.3c-0.3-3.4-0.8-6.8-1-10.3c-0.2-4.4-0.3-8.8-0.5-13.2c0-1.6,0-3.2,0-4.8
					c-0.7,0.1-1.4,0.1-2.1,0.1c-1.6-0.2-3.2-0.5-4.7-0.8c-0.3,0-0.4-0.5-0.7-0.7c0.3-0.2,0.6-0.5,0.9-0.7c0.1-0.1,0.3,0,0.5,0
					c3.9,0.8,7.6-0.3,11.4-1.1c0.6,0,1-0.5,1-1.1c0-0.1,0-0.2,0-0.2c-0.2-2.2-0.3-4.3-0.4-6.5c-0.1-4.1-0.2-8.2-0.3-12.4
					c0-0.9,0-1.9-1.2-2.2c-0.7-0.1-1.5-0.2-2.2-0.1c-1.3,0-2.7,0.1-4,0.2c-2.2,0.2-4.3,0.4-6.5,0.7c-0.6,0.1-1.1,0.2-1,1.1
					c0.2,2.6,0.4,5.2,0.5,7.8c0.1,2.8,0.1,5.6,0.3,8.3c0.1,2,0.4,3.9,0.5,5.8c0,0.3-0.4,0.7-0.6,1c-0.3-0.3-0.7-0.5-0.8-0.8
					c-0.4-3.3-0.8-6.5-1-9.8c-0.2-2.9-0.1-5.8-0.2-8.7c0.1-1-0.1-2-0.5-3c-0.4-0.5-0.4-1.1-0.1-1.7c0.6-1.5,2.1-2.5,3.7-2.5
					c1.3,0,2.6,0,4,0c0.1-1.2,0.3-2.3,0.4-3.5c0-0.2,0-0.4-0.1-0.6c-1.5-1.7-1.9-3.9-2.5-6c-1.2-4.6-2.4-9.3-3.4-13.9
					c-0.7-3.1-1.1-6.2-1.6-9.3c-0.2-1.4-0.2-2.7-0.3-4.4c-1.1,1.2-2,2.3-3,3.3c-0.5,0.5-1,1.4-1.8,0.9s-2-0.8-1.7-2.3
					c0.3-2,0.5-4.1,0.7-6.2c-0.6,0.3-1.2,0.5-1.8,0.7c-2.4,0.7-4.9,1.2-7.3,1.9c-7.4,2.2-15.1,3.3-22.8,4.4c-3.7,0.5-7.4,1.2-11.1,2
					c-5.6,1.4-11.2,3.1-16.8,4.7c-0.5,0.1-1,0.1-1.5,0.2c0.2,1.2,0.5,2.3,0.7,3.5c0.1,0.2,0.3,0.4,0.6,0.5c1.1,0.2,2,1,2.3,2.1
					c0.4,1.6,1.7,2.8,3.3,3.1c3.6,1,7.1,2.4,10.7,3.4c3.5,1,7,1.6,10.6,2c3.8,0.3,7.6,0.8,11.6,1.2c-0.2-1.8-0.7-3.6-1.5-5.3
					c-0.2-0.3,0-0.7,0-1.1c0.3,0,0.8-0.1,1,0.1c0.4,0.3,0.8,0.8,0.9,1.3c1,3.5,2,6.9,2.9,10.5c1.1,4.5,2,8.9,3.3,13.4
					c1.3,4.5,2.8,8.5,4.2,12.7c1,3,1.9,6,3,8.8c1.1,2.9,1.2,6.1,3.2,8.7c0.9,1.2,1,2.9,1.5,4.3c1,3,2.1,6.1,3.1,9.1
					c0.5,1.6,1,3.2,1.5,4.8h-2.3c-0.8-2.2-1.6-4.3-2.4-6.5c-0.4-1.3-0.8-2.6-1.2-3.8c-1.1-3.8-2.1-7.6-3.4-11.4
					c-1.5-4.6-3.3-9.1-5-13.7c-0.6-1.6-1.2-3.1-1.8-4.6c-6.1,1.7-12.4,2.8-18.8,3.3c0,1.4,0.1,2.8,0,4.2c-0.3,3.7-0.6,7.4-1,11
					c-0.2,1.9-0.5,3.8-0.9,5.7c-0.6,2.7-1.5,5.4-2,8.1c-0.7,2.6-1.6,5.2-2.6,7.8h-2.5c0.4-1.2,0.9-2.4,1.4-3.8
					c-2,0.2-3.8,0.4-5.6,0.4c-2.6,0.1-5.3,0-7.9,0.1c-0.3,0-0.6,0.1-0.8,0.3c-0.9,1-1.9,0.7-2.3-0.4c-0.4-1.2-0.7-2.3-0.9-3.6
					c-0.7-4.3-0.9-8.6-0.8-12.9c0-1.3,0.3-2.7-0.8-3.9c-0.1-0.2-0.2-0.4-0.2-0.7c-0.4-3.9-0.2-7.9,0.5-11.8c0.1-0.4,0.5-0.8,0.8-1.2
					v0.1h0.1l-0.1-0.5l0,0l0,0c0.1-0.7,0.3-0.9,1.3-1c2.6-0.2,5.2-0.3,7.8-0.5c-0.3-2.1,0-2.8,1.3-3c1.9-0.2,2.7,0.5,3,2.6
					c1.2,0.1,2.4,0.2,3.6,0.3c1.7,0.2,3.3,1.3,3.9,2.9c0.9,1.7,0.8,3.6,0.9,5.5c0.1,1.4,0.2,3-0.5,4.1c-0.8,1.3-0.5,2.4-0.5,3.7
					c0,0.4,0,0.8,0,1.2c0.1,2,0.2,4,0.2,6h0.5c0.7-4.2,1.4-8.5,2-12.7c0-0.3-0.1-0.6-0.2-0.8c-0.2-0.6-0.3-1.2-0.4-1.8
					c0.2-2.4,0.7-4.8,0.9-7.2c0.2-1.9,0.2-3.9,0.3-5.8c0-0.3,0.2-0.8,0.4-0.9c0.4-0.1,0.7,0,1,0.2c0.5,0.3,1,0.7,1.4,1.1l0.1,0.4
					c-1.6,0.3-0.7,1.3-1,2v0.4h0.1l-0.1-0.4c0.2-0.1,0.4-0.2,0.5-0.3c0.3-0.6,0.7-1.1,1.2-1.6c0.2-0.2,0.8-0.2,1.1-0.2
					c0,0.4,0,0.7-0.1,1.1c-0.2,0.3-0.3,0.6-0.5,0.8c-0.6,1.1-1.2,2.2-1.9,3.6l17.8-3.3c-0.1-0.4-0.3-0.9-0.4-1.3
					c-0.9-2.9-1.8-5.8-2.6-8.7c-0.9-3.4-1.7-6.7-2.3-10.2c-0.5-3-0.4-3-3.3-3.7c-0.3-0.1-0.6-0.1-0.9-0.2c-4.5-0.5-9.1-0.9-13.6-1.6
					c-3-0.5-6.1-1.2-9-2.2c-2.7-0.8-5.4-1.9-7.9-2.7c-0.1,0.6-0.3,1.1-0.5,1.6c-0.4,0.6-0.8,1.2-1.2,1.7c-2.3,2.8-5.1,5.1-8.2,6.9
					c-0.6,0.5-1.5,0.4-2.1-0.2c-0.8-0.9-1.6-1.8-2.3-2.7c-0.8-1.1-1.4-2.4-2.1-3.6c-0.2,2.7-0.2,5.3-0.2,8
					c-0.1,5.8-0.1,11.7-0.2,17.5c-0.2,7.9,0.1,15.9,0.6,23.9c0.2,3.8,0.5,7.6,0.6,11.4c0.1,2.5-0.1,5.1-0.2,7.6h-1.5
					c0.2-7.4-0.1-14.8-0.7-22.2c-0.3-4.8-0.5-9.6-0.5-14.4c0-3.5,0.2-7,0.2-10.6c0.1-5.5,0.1-11,0.1-16.5v-2.7
					c-0.5,1.2-0.9,2.5-1.2,3.7c-0.4,1.7-2.1,2.8-3.8,2.4c-0.3-0.1-0.5-0.1-0.7-0.3c-3.7-1.5-7-3.6-9.8-6.4c-0.2-0.2-0.4-0.3-0.7-0.4
					c-1.4-0.1-1.5-0.2-1.3-1.7c-2.2,1.2-4.3,2.5-6.5,3.5c-2.2,1-4.5,1.9-6.8,2.7c-1.4,0.5-2.9,1.1-4.5,0.2l-0.2,0.1l0.2-0.1
					c-0.1,0.4-0.1,0.9-0.1,1.3c0.1,1.7,0.3,3.5,0.4,5.2c0,1.2,0.1,2.5,0.2,3.7c0.3,1.5,0.8,3,1.2,4.5c0.4,1.5,0.7,2.8,1,4.4
					c2.1-1.5,4-3.3,5.6-5.4c1.2-1.6,2.4-3.3,4.3-4.2c1.1-0.6,2.4-0.6,3.4,0c0.9,0.5,1.3,2.1,1,3.3c-0.2,0.7-0.4,1.4-0.8,2.1
					c-2.1,3.5-4.3,6.9-6.4,10.4c-1.7,2.9-3.3,5.8-4.9,8.8c-0.1,0.3-0.2,0.7-0.2,1.1c-0.1,3.2-0.2,6.5-0.3,9.7c0,0.9,0.2,1.9,0.2,2.8
					c0.1,2.7,0,5.4,0.2,8.1c0.1,2.2,0.5,4.5,0.8,6.7h-1.5c-0.4-2.9-0.9-5.8-1.3-8.7c-0.2-1.3-0.2-2.6-0.4-3.9
					c-2.9,1.3-6.1,1.9-9.2,1.8c0.2,3.7,0.4,7.3,0.5,10.8h-2.3c0-3.4,0-6.7,0.1-10.1c0-0.8-0.3-0.9-1-1c-1.7-0.3-3.4-0.9-5-1.3h-0.1
					h0.1c-0.1,0.2-0.1,0.4-0.2,0.6c-0.2,4-0.3,7.9-0.5,11.8h-1.8c0.1-5.3,0.2-10.6,0.2-15.9c0.1-2.3,0-4.6-0.3-6.9
					c-0.6-2.2-1.3-4.4-2.2-6.6c-0.1,0.3-0.1,0.7-0.1,1c0.1,4.4,0.2,8.7,0.4,13.1c0.1,2.1,0.1,4.1,0.1,6.2c-0.1,3.1-0.3,6.1-0.4,9.2
					h-2c0.1-1.5,0.1-3,0.2-4.5c0.1-4.8,0.1-9.5,0.2-14.3c0-2.7,0-5.4,0-8.1c0-1.6,0.2-3.1,0.5-4.7c0.2-0.5,0.2-1.1,0.1-1.7
					c-1.5-4.8-3-9.5-4.5-14.3c-0.7-2.2-1.3-4.4-1.7-6.6c-0.3-1.1,0.4-2.3,1.5-2.6c0.7-0.2,1.4,0,1.9,0.4c0.5,0.4,1,0.8,1.5,1.1h0.1
					h-0.1c0-0.5,0-1,0-1.4c-0.4-2.5-1.2-4.9-0.3-7.5l-15.3-2.3c-0.5,1.1-1.2,2.1-1.9,3c-2.5,2.5-5.1,4.9-7.6,7.3
					c-0.2,0.2-0.4,0.5-0.5,0.8c-0.2,4.5-0.4,8.9-0.5,13.4c0.1,1.1-0.4,2.1-1.3,2.7c-1.4,0.9-3,1.5-4.6,2c-2.1,0.5-4,0.1-4.1-3
					c0-1.7,0.1-3.5,0.2-5.2c0.2-4.2,0.4-8.5,0.6-12.7c0-0.5-0.1-0.9-0.1-1.4h0.1l0,0c-0.3,1.2-0.8,2.5-1,3.7c-0.3,1.5-0.9,2-2.4,1.7
					c-1.4-0.2-2.6-0.8-3.8-1.6c-4.6-3.1-9.3-6.2-12.9-10.8c-3.4,1.8-6.8,3.7-10.2,5.5c-2.7,1.4-5.5,2.6-8.3,3.7s-5.7,1.8-8.4,2.8
					c-1.8,0.7-3.6,1.4-4.8,3c-1.7,2.2-3.3,4.5-4.9,6.7c-1.6,2.2-2.7,4.8-3.2,7.5c-0.9,4.9-1.3,9.8-1.2,14.8c0.1,2.3,0,4.6,1.6,6.5
					c0.2,0.2,0,0.7-0.1,1.1c-0.2,0.6-0.5,1.2-0.8,1.7c2.3,0.2,4.4,0.3,6.4,0.6c3.1,0.5,6.3,0.7,9.5,0.8c3,0.2,6.1-0.3,9.1,0.6
					c0-0.1,0.1-0.2,0.1-0.4c-0.1-4.5-0.3-9.1-0.4-13.6c0-2.6,0.2-5.2,0.2-7.9c0-0.8,0.2-1.7,1-1.6c0.8,0,0.6,1,0.6,1.6
					c0,2.3-0.2,4.6-0.1,6.8c0.1,3.1,0.2,6.3,0.4,9.4c0.1,2.7,0.2,5.4,0.3,8.1c0.1,3,0.3,5.9,0.4,8.8h-1.8l-0.5-7.2
					c-0.4,0.4-0.9,0.8-1.4,1.1c-3.6,1.4-7.5,1.8-11.4,1.2c-1-0.2-2.1-0.3-3.1-0.3c-1.4,0.3-2.9,0.6-4.2,1.1l0.3,4.1H7l-0.4-4.4
					l0.1,0.1v-0.1c-1.2-0.2-2.5-0.4-3.7-0.7c-2-0.6-2.8-1.6-2-3.8c0.6-1.8,1-3.7,1-5.6c0-1-0.7-2.1-1-3.1c-0.3-0.9-0.5-1.9-0.7-2.9
					c-0.4-3.7-0.3-7.4,0.3-11c0.6-3.7,0.8-7.6,2.8-11c1-1.7,2.1-3.4,3.3-5c1.6-2.2,3.3-4.3,5-6.4c0.4-0.4,0.8-0.7,1.2-1
					c4-2.6,8.5-3.6,13-5c1.2-0.4,2.4-0.9,3.6-1.4l0,0c1-0.5,2.1-0.9,3.1-1.4l10-5.1c-0.8-1.3-0.2-2.5,0.2-3.7c0.4-1.2,1-2.4,1.5-3.7
					c0.3-1.4,1.6-2.4,3.1-2.4c0.3,0,0.7-0.6,0.7-0.9c0.4-3.6,0.9-7.2,1.1-10.8c0.1-1.9,0.1-3.9,0-5.8c0-0.5-0.6-0.9-0.9-1.4
					c-2.5,3.7-6,4.5-9.9,4c-3.9-0.6-7.2-3.1-8.8-6.7c-1.4-2.8-1.9-6-1.4-9.2c0.2-1.9,1.1-3.6,2.4-5c-0.6-0.4-1.1-0.8-1.7-1.2
					c-2.6-1.9-4.8-4.4-6.2-7.3c-1.7-3.1-2.5-6.7-2.3-10.2c0.2-2.9,1.4-5.7,3.4-7.9c0.5-0.6,1-1.2,1.6-1.8c-2.6-0.7-5-2-6.9-4
					c0,0-0.1,0-0.1-0.1c-0.1-0.6-0.5-1.4-0.3-1.7c0.6-0.7,1,0.2,1.5,0.5c1.4,1,2.9,1.8,4.4,2.7l0.1,0.2l0.1-0.1h-0.2
					c-1.3-2.3-2.3-4.7-2.9-7.3c-0.1-0.5-0.1-1,0-1.5c0.1-0.3,0.4-0.7,0.7-0.6c0.3,0.1,0.6,0.3,0.7,0.7c0.7,2,1.3,4,2,5.9
					c0.4,0.8,0.9,1.7,1.5,2.4c1.1-3,2-5.9,3.3-8.5c2.2-4.4,5.2-8.3,8.9-11.5c3.4-3.2,7.6-5.7,12.1-7.1c0.9-0.3,1.9-0.4,2.8-0.6
					c0.3-0.1,0.5-0.2,0.8-0.3l0,0c0.9,0,1.8,0.1,2.7,0.1c3.1,0,6.1,0.8,8.8,2.3c3.7,1.9,7.3,4.1,11,6c1.9,1,4,1.6,6.2,1.9
					c0.6,0,1.2-0.2,1.7-0.4c0.7-0.4,1.6-0.2,2.1,0.5c0.3,0.6,0.2,1.4-0.1,2c-1.3,2.8-3.5,5-6.2,6.5c0.9-0.1,1.7-0.1,2.6-0.2
					c0.9-0.1,1.6-0.3,2.2,0.5c0.5,0.6,0.5,1.5,0,2.1c-0.6,1.1-1.2,2.3-1.8,3.4c1,1.4,1.1,2.3-0.1,3.7c-1.2,1.4-1.3,2.7-0.6,4.7
					c1.9,5.1,3.4,10.3,4.8,15.6c1,3.9,1.7,7.8,2,11.8c0.5,4.3,0.2,8.7-0.9,12.9c-0.9,3.3-2.7,6.2-5.2,8.6c-0.9,0.8-2,1.4-2.9,2.2
					c-0.5,0.4-0.9,0.9-1,1.5c-0.3,3.3-0.4,6.7-0.6,10c0,0.4-0.1,0.8-0.1,1.2c0.2,0.1,0.3,0.2,0.4,0.2c2.5,0,4.6,1.7,5.1,4
					c0.3,0.8,0.4,1.7,0.4,2.6c0,1,0.6,1.3,1.3,1.4c1.6,0.2,3.2,0.3,4.9,0.5c3.2,0.4,6.5,0.9,9.7,1.3l4.4,0.6c0-1.9,0-3.7,0-5.6
					c0-0.8,0.2-1.6,0.5-2.3c0.4-1.1,1.6-1.6,2.7-1.2c0.3,0.1,0.6,0.3,0.8,0.5c1.4,1.5,2.5,3.2,3.1,5.2c0.8,2.1,1.4,4.3,2.2,6.5h0.3
					c0-1.1-0.1-2.2,0-3.2c0.1-2.4-0.2-4.9,0.7-7.3c0.3-0.7,0.6-1.4,1.5-1.5c0.9-0.1,1.4,0.5,1.9,1.2c1.4,2,1.6,4.4,2.1,6.6
					c0.2,0.9,0.3,1.9,0.5,2.9c5.2-0.9,10.1-2.9,14.5-5.7c1.8-1.2,3.5-2.4,5.1-3.8c0.5-0.4,0.6-1.4,1-2c2.2-3.7,2.3-7.7,2.5-11.8
					c0.1-1.1,0.1-2.2,0.2-3.5c-1.1,0.2-2.1,1-3.1-0.1c-0.8-0.9-0.4-2-0.5-2.9c-1.3,0.2-2.7,0.3-4.1,0.2c-1.4-0.1-1.8-1.1-1.1-2.4
					l0,0c2.3-2.1,3.3-5.3,2.4-8.3c-0.2-0.5-0.4-1-0.8-1.5l-3.3-5.6c-0.1,0.6-0.2,1.2-0.1,1.7c0.4,1,0.3,2.1-0.3,3
					c-0.3,0.5-1.2,1.1-1.6,1c-0.7-0.3-1.2-0.8-1.4-1.4c-0.1-0.7-0.1-1.5,0.1-2.2c-2.6-1-1.7-3.5-2-5.5c-4.2-1.1-7.6-3.4-8.9-7.7
					c-1.3-4-0.2-8.5,2.9-11.4c-1.5-1.2-1.8-2.9-2.1-4.6c-0.9-5-0.7-10.1,0.8-14.9c0.9-2.1,2-4.2,3.3-6.1c1.8-3,4.5-4.9,7.3-6.8
					c0.3-0.2,0.7-0.5,1-0.8c-0.8-2.9-3-4.1-5.6-4.8c-0.5-0.1-1.3-0.2-1-0.9c0.3-0.5,0.9-0.7,1.5-0.7c1.9,0.4,3.6,1.2,5,2.4l-0.1-0.1
					l0.1,0.1l0.8,0.7c0.3-1.9,0.1-3.9-0.5-5.8c-0.2-0.6-0.9-1.5,0-1.9s1.3,0.7,1.6,1.3c0.8,2.1,1,4.3,0.8,6.5c0,0.5,0,1-0.1,1.5
					c2.1-1,4-2.1,6.1-2.9c2.6-1.1,5.4-1.8,8.2-2.3c3.8-0.6,7.7-0.7,11.5-0.2c5.1,0.7,10,1.8,13.9,5.5c3.9,3.7,6.7,8.3,8.2,13.4
					c0.6,2.6,1,5.3,1.1,8c0,2,0,4.1-0.3,6.1c-0.1,1.6,0.7,3.3,1.3,4.9c0.1,0.3,0.8,0.5,1.1,0.7c0.6,0.4,1.3,0.8,0.9,1.5
					c-0.4,0.8-1,0.3-1.5,0.2c-0.1,0-0.3,0-0.4,0l-0.2,1.8c0.8,0.6,2,1,1.4,2.2c-0.3,0.7-1,0.2-1.5,0l-0.1-0.2l-0.1,0.1l0.2,0
					c-0.4,1.2-0.9,2.4-1.6,3.6c-1,1.5-2.3,2.9-3.5,4.4c-0.2,0.3-0.3,0.6-0.4,1c-0.1,1.3-0.1,2.6-0.2,4c0,0.8-0.3,1.5,0.5,2.2
					c0.5,0.8,0.4,1.7-0.2,2.4c-0.7,0.5-1.7,0.9-2.4,0.2c-0.6-0.6-1-1.4-1.3-2.1c-0.2-0.5-0.5-1-0.6-1.6l-0.4,0.1
					c-0.3,1.6-0.5,3.2-1,4.7c-1,3.2,0.4,5.8,1.7,8.5c0.3,0.7,0.8,1.3,1.1,2c0.5,0.6,0.3,1.5-0.3,2c-0.2,0.1-0.3,0.2-0.5,0.2
					c-0.7,0.3-1.4,0.4-2.1,0.7c-0.9,0.4-1.7,1-2.3,1.7c-0.9,1.1-2.3,1.8-3.8,3c0.2,2.2,0.4,4.9,0.6,7.7c3.4-1.5,6.9-2.1,10.3-2.9
					c2.9-0.7,5.8-1.7,8.7-2.4c2.7-0.6,5.4-1.1,8.1-1.5c5.4-0.8,10.9-1.4,16.3-2.3c3.3-0.6,6.6-1.5,9.8-2.4c2.6-0.7,5.1-1.4,7.7-2.1
					c0.8-0.2,1.4-0.9,1.5-1.7c0.6-2.5,1.1-5.1,2.5-7.3c1-2,3.1-3.2,5.3-3.2c0-1.1,0-2.2,0-3.3c0-0.2-0.4-0.5-0.7-0.6
					c-3.1-0.8-5.9-2.2-8.4-4.1c-1.9-1.6-3.6-3.5-5-5.6c-2.3-3.3-3.9-6.9-4.7-10.8c-0.7-3.3-1.3-6.7-1.8-10c-0.4-2.3-0.5-4.5-0.7-6.8
					c-3.7-1.2-5.9-3.8-7.2-7.3c-0.2,2.1,0.4,4.1,1.7,5.7c0.2,0.4,0.3,0.9,0.4,1.3c-0.5-0.1-1.1,0-1.4-0.2
					C208.9,33.2,207.9,31.3,207.8,29.3L207.8,29.3L207.8,29.3z M163.1,33.1L163.1,33.1L163.1,33.1l0.2,0.3l0.4,0.2l0.1,0.3l4.2,3.7
					c-0.3,0.2-0.7,0.3-1,0.4c-3.8,0.9-6.5-1.2-9.1-3.3c-1.7-1.5-3.3-3.2-4.7-4.9l0,0v0.1c0.4,1,0.9,2,1.4,3c0.9,1.3,2,2.4,2.9,3.6
					c0.2,0.3,0.3,0.7,0.3,1.1c0,0.1-0.6,0.3-0.9,0.3c-0.8,0.1-1.6,0.1-2.4,0.1c-3.1,0.2-6-0.3-8.1-2.8c-0.9-1-1.7-2.1-2.4-3.2
					c-0.9-1.3-1.6-2.8-2.5-4.4c-0.1,0.5-0.2,1-0.2,1.5c0,3.3,2.8,7.3,5.9,8.6c0.4,0.2,0.7,0.6,1,0.9c-0.4,0.3-0.8,0.7-1.3,0.8
					c-2.5,0.3-4.7-0.6-6.8-1.8c-1.7-0.9-3.1-2.3-4.1-4c0.5,5.3-0.8,10.6-3.6,15.1c-0.4,0.6-0.5,1.3-0.5,2c0,1.5,0,3,0.2,4.5
					c0.2,1.5,0.5,2.9,0.8,4.3c0.1,0.3,0,0.5-0.2,0.8c-0.2,0.1-0.5,0.2-0.8,0.1c-0.4-0.2-0.8-0.5-1.1-0.7c1,3.7,1.9,7.2,2.9,10.6
					c1,3.5,2.6,6.8,4.8,9.8c1.4,2,2.9,3.8,4.7,5.4c1.9,1.6,4.1,2.8,6.5,3.5c5.4,1.5,10.4,1.7,14.9-2.5c3.1-3.1,5.4-7.1,6.4-11.4
					c0.5-2.1,0.9-4.2,1.1-6.4c0.5-3.5,0.9-6.9,1.3-10.4c0.2-2.3,0.3-4.6,0.5-7c-1.3,0.2-1.7-0.1-1.7-1.1c0-0.4,0-0.8,0-1.2
					c0.7-3.3,0.5-6.7-0.3-10c-0.1-0.4-0.3-0.8-0.7-1c-1-0.5-2-0.9-3-1.4c-1.4-0.8-2.8-1.6-4.1-2.4l-0.1-0.3l-0.4-0.1L163.1,33.1z
					 M173,36.6l-0.2-0.3c-1.4-2.3-2.7-4.5-4.1-6.8c-0.4-0.6-0.7-1.1,0.2-1.5c0.9-0.4,0.9,0.2,1.2,0.7c1.7,2.7,3.4,5.3,5.1,7.9
					c0.4,0.5,0.3,1.2-0.2,1.6c-0.2,0.1-0.3,0.2-0.5,0.2c-0.3,0.1-0.6,0.1-0.9,0.2l0.5,2.4c0.2,0.8,0.4,1.5,0.5,2.4
					c0-0.1,0.1-0.2,0.1-0.4c-0.1-0.7,0.2-1.3,0.9-1.2s0.7,0.7,0.6,1.3c-0.1,0.8-0.2,1.6-0.2,2.3c1-0.5,2-0.8,3-1.1
					c1.1,0,2.1,0.2,3.1,0.4c0.1-3.7-0.3-7.4-1.2-11c-0.6-2.7-1.7-5.2-3.2-7.5c-1.7-2.6-3.4-5.3-6-7.2c-2.4-1.8-5.2-2.6-8-3.4
					c-3.8-1-7.7-1.3-11.6-1c-2.4,0.2-4.8,0.5-7.1,1.1c-3.3,0.7-6.4,2-9.2,3.8c-0.6,0.5-1,1-1.4,1.7c-0.3,0.5-0.6,0.8-1.3,0.5
					c-0.4-0.1-0.8-0.1-1.1,0.2c-2.2,1.7-4.5,3.3-6,5.7s-3.3,4.7-3.8,7.7c-0.7,3.8-0.9,7.6-0.6,11.4c0.2,2,0.3,4,1.8,5.5
					c0.6-0.1,1.2-0.1,1.8-0.1c1.8,0.3,3.3,1.5,4,3.2c0.2,0.5,0.6,0.9,0.8,1.4l0.4-0.1c-0.1-1.1-0.2-2.3-0.2-3.4
					c-0.1-0.8,0.3-1.9-0.1-2.4c-0.7-0.9-0.3-1.4,0.1-2.1c0.8-1.2,1.5-2.5,2.2-3.8c1.7-3.6,2.3-7.6,1.8-11.6c-0.1-0.8,0.1-1.3,1-1.3
					l0.2,0.1l-0.1-0.2c0-0.2,0-0.4,0-0.6c0.1-0.4,0.4-0.8,0.5-1.2c0.3,0.3,0.8,0.6,0.9,1c1.1,2.6,3.2,4.7,5.8,5.8c0-0.2,0-0.4,0-0.4
					c-1.6-1.6-2.7-3.6-3.2-5.8c-0.5-1.8-0.6-3.6,0.8-5.2c0.4-0.5,0.9-1,1.6-0.5c0.5,0.4,0.9,0.8,1.2,1.4c0.9,1.5,1.6,3.1,2.6,4.5
					c1.4,2,2.8,4,5.2,5c1.2,0.5,2.6,0.7,3.9,0.6c-1.1-1.5-2-3.1-2.8-4.7c-0.9-2.3-1.7-4.6-2.3-6.9c-0.1-0.5-0.2-1.2,0.6-1.3
					c0.8-0.1,1.3-0.2,1.5,0.8c0.1,0.4,0.3,0.8,0.5,1.1c1.2,1.6,2.5,3.2,3.8,4.8c1.9,2.6,4.4,4.7,7.3,6.2c-1.2-1.5-2.3-2.8-3.3-4.2
					s-2.1-3.1-3-4.8c-0.2-0.3-0.1-0.9-0.1-1.3l1.1,0.1c0.1,0,0.4,0.1,0.4,0.1c0.8-0.5,1.2,0.1,1.6,0.6c2.4,3.2,5.5,5.9,8.9,7.9
					c1.2,0.7,2.6,1.3,3.9,2l0.4,0.1l0.1,0.2L173,36.6z M307.7,36.8l-0.3,0.2c-1,0.6-2,1.2-2.9,1.9c-2.6,2.4-4.7,5.2-6.4,8.3
					c-0.1,0.2-0.4,0.3-0.5,0.4c-0.2,0.2-0.5,0.5-0.7,0.7c-0.2,0.3-0.4,0.6-0.7,1c-0.3-0.3-0.6-0.6-0.9-0.9c-0.1-0.2-0.2-0.4-0.2-0.7
					l-0.4-0.1c-0.7,2.2-1.4,4.4-2,6.6c-0.1,0.1-0.2,0.2-0.3,0.3c-1.3,4.5-1.5,9.2-0.4,13.8c0.7,3.9,1.9,7.7,3.5,11.3
					c1,2.4,2.6,4.5,4.5,6.1c4.1,3.1,8.7,5,14.1,4.4c2.6-0.4,5.1-1.1,7.5-2.3c2.7-1.4,5.2-3.1,7.3-5.3c2.2-2,4.2-4.4,5.7-6.9
					c0.7-1.3,1.4-2.6,2.1-3.8c0.1-0.2,0.6-0.4,0.7-0.4c0.3,0.2,0.4,0.4,0.5,0.8c-0.1,0.4-0.2,0.9-0.5,1.3c-0.3,0.7-0.5,1.3-0.9,2.3
					l3.7-0.5c-0.2-0.6-0.4-1.2-0.5-1.9c0-0.5-0.1-1.2,0.2-1.4c0.7-0.4,1,0.3,1.3,0.8s0.5,1.1,0.8,1.7c0.8-0.8,0.5-1.4,0-2
					c-0.2-0.3-0.3-0.7-0.3-1.1c0.4-0.1,0.9-0.3,1.3-0.2c0.7,0.4,1.4,0.8,2,1.2c2.1-1.7,3.5-4.1,4-6.8c0.6-2,0.2-4.1-1.1-5.8
					c-2.7-3.2-6.5-2.1-8.7,0.6c-0.4,0.7-0.8,1.5-1.1,2.3c-0.2,0.3-0.5,0.5-0.9,0.6c-0.3,0-0.6-0.4-0.8-0.7c-0.1-0.3-0.1-0.7,0-1
					c0.2-0.9,0-1.9-0.6-2.7c-0.6-0.9-1-1.9-1.4-3c-0.3-1.4-1.2-2.6-2.5-3.2c-0.2,0.2-0.4,0.5-0.6,0.5c-1.3,0.1-2.6,0-3.9-0.1
					c-3.2-0.4-6.4-1-9.5-1.4c-1.7-0.2-1.5-0.1-1.4-1.7c0.1-1.2,0.9-1.3,1.6-1.5c1.5-0.3,3-0.4,4.5-0.6c-5.2-3.3-7.3-8.4-8.4-14.2
					c-1.2,0.2-1.2,1.3-1.4,2.2c-1.1,4.5-2.2,8.9-0.8,13.5c0.2,0.6-0.4,1.2-0.8,0.9c-0.8-0.5-1.5-1.2-2-1.9c-0.9-1.8-1.2-3.8-1.1-5.8
					c0-1.3,0.1-2.6,0.2-3.9l-0.3-0.1c-0.9,1.6-1.7,3.2-2.3,4.9c-0.5,1.7-0.9,3.4-1.1,5.2c0.5,0.5,1,0.7,1.1,1
					c0.3,0.9-0.8,2.3-1.7,2.5c-2.3,0.5-4.5,0.9-6.7,1.6c-1.2,0.5-2.4,1.1-3.5,1.8c-0.2,0.1-0.5,0.4-0.7,0.3
					c-0.3-0.2-0.5-0.4-0.6-0.7c-0.1-0.3-0.1-0.7,0-1c0.8-0.8,1.5-1.6,2.3-2.4c1.2-1.4,2.8-2.3,4.5-2.7c1.4-0.2,2.8-0.3,4.3-0.5
					c-0.8-1.5-0.4-3,0-4.5c0.7-2.6,1.9-5,3.6-7.2L307.7,36.8L307.7,36.8L307.7,36.8z M181.2,46.9L181.2,46.9L181.2,46.9l0.2,0.3
					c-0.1,0.7-0.1,1.4-1.1,1.2c-0.2,0-0.4,0.1-0.6,0.2c-1.5,0.9-2.2,2.4-2.9,4c0,0.3,0.1,0.7,0.4,0.9c1,0.7,1.7,1.8,2,3
					c0.3,1,0,1.6-1.1,2l-1.8-3.2c-0.3,0.6-0.5,1.3-0.6,2.1c-0.1,2.4-0.2,4.9-0.3,7.3c0,0.2,0.1,0.5,0.2,0.6c0.2,0.1,0.5,0.1,0.7,0
					c0.9-0.3,0.7-1.1,0.8-1.8c0.1-0.5,0.3-0.9,0.6-1.4l1.3,0.9l3.4-5.6c-0.5-0.6-1-1-1.1-1.4c-0.3-0.8,0.5-0.8,1-1.1
					c0.2-0.1,0.2-0.8,0.2-1.3l0.1,0v-0.1l-1,0.3c-0.1-0.4-0.4-0.8-0.2-1.1c0.3-0.4,0.6-0.9,1-1.2c0.2-0.2,0.6-0.5,0.5-0.8
					c-0.2-1.3-0.2-2.7-1.5-3.6L181.2,46.9z M143.2,92.1l-0.2,2C143.8,93.6,143.9,93.1,143.2,92.1L143.2,92.1L143.2,92.1z
					 M23.3,176.9h-3.6c0.2,1,0.3,1.8,0.5,2.7h-0.1l0.1,0.1v-0.1l3.4-0.2L23.3,176.9L23.3,176.9L23.3,176.9z M323.4,104.9
					L323.4,104.9L323.4,104.9c0.1,0.2,0,0.5,0.1,0.6c0.6,0.7,1.3,1.4,1.8,2.2c1.4,1.8,3.4,3.2,5.6,4.1c0.7,0.3,1.4,0.2,1.7-0.5
					c0.2-0.5,0.3-1.1,0.4-1.7c0.2-3,0.4-5.9,0.7-8.9c-1,0.8-2.1,1.4-3.2,2C328.1,103.6,325.7,104.2,323.4,104.9z M63.3,121.3
					L63.3,121.3L63.3,121.3l0.2-1.5c-0.4-0.3-0.9-0.6-1.4-0.8c-3.6-1-7.3-1.9-11-2.9c-0.7-0.2-1.4-0.5-1.9-1c-1-1.1-1.9-2.4-2.9-3.6
					l0,0c-0.1,0.3-0.3,0.6-0.4,0.9c-0.7,1.7-1.4,3.5-2.1,5.4c1.1-0.1,1.6,0,1.4,1c-0.1,0.2,0,0.4,0.1,0.6c1.5,1.4,3,2.8,4.5,4.1
					c1.5,1.3,3.1,2.4,4.8,3.5c2,1.2,3.9,2.7,6,3.3L63.3,121.3z M188.6,171.1L188.6,171.1c0.1-0.1,0.1-0.2,0.1-0.3c0-3,0-5.9,0-8.8
					c0.1-1.3-0.8-2.4-2-2.7c-0.7-0.2-1.4-0.6-2.1-0.8c-0.4-0.1-0.8-0.1-1.2,0.1c-1.8,0.8-3.6,1.4-5.5,0.1c-0.1-0.1-0.3-0.2-0.5-0.2
					c-1.6,0.2-3.2,0.4-4.8,0.6c0.2,7.6-0.1,15,1.3,22.3c2.6-0.2,4.9-0.3,7.3-0.5c2.4-0.2,4.6-0.3,6.9-0.5c0.8-0.1,1.3-0.5,1.2-1.3
					c-0.2-2.1-0.3-4.2-0.5-6.2C188.8,172.3,188.7,171.7,188.6,171.1z M258.7,63.3c-1.6,1.5-3.1,3.1-4.8,4.6
					c-2.6,2.2-5.7,3.8-9.1,4.4c-1.5,0.2-3.1,0.4-4.6,0.5c0,0.4,0,0.9,0,1.4c0.1,2.2-0.3,4.5-1.3,6.5c-0.5,0.7-0.3,1.8,0.5,2.3
					c0.1,0.1,0.2,0.1,0.3,0.2c1,0.5,2,0.9,3,1.3c1.5,0.3,2.6,1.7,2.7,3.2c0.3,2.9,0.5,5.9,0.8,8.9c0.4-0.1,0.7-0.2,1-0.2
					c1.1-0.1,1.6-0.6,1.6-1.9c0.1-2.4,0.3-4.7,0.7-7c0.2-1.6,1.3-3,2.9-3.5c0.7-0.2,1.3-0.6,1.9-1c1.8-1.3,3.6-2.7,5.3-4.1
					c0.3-0.3,0.5-0.7,0.5-1.2c-0.8-3.7-1.2-7.5-1.2-11.3L258.7,63.3l0.2-0.2l-0.1-0.1L258.7,63.3z M62.9,96.6L62.9,96.6
					c3.3,0.9,6.7,1.1,10,0.6c3-0.3,5.9-0.9,8.1-3.1c3.3-3.1,5.3-7.4,5.6-12c0.1-1.7,0.3-3.3,0.4-5l-0.2-0.1l0.2-0.1
					c0-0.7-0.1-1.4-0.2-2c-0.6-3.8-1-7.5-1.8-11.3s-1.8-7.4-3-11c-1-3.1-2.2-6.1-3.4-9.2c-0.2-0.3-0.5-0.6-0.8-0.6
					c-0.9,0.1-1.8,0.2-2.7,0.4c-2.9,0.6-5.6,2-7.8,3.9c-0.3-0.3-0.6-0.5-1-0.8c-1-0.5-0.9-1-0.2-1.6c0.7-0.6,1.2-1.1,1.9-1.6
					c2.7-2,5.5-3.9,9.4-2.6c-1-1.8-1.8-3.5-2.8-5c-2.7-4.3-6.4-6.9-11.7-6.8c-4.9,0.1-9.1,2.1-13,4.8c-0.4,0.3-0.8,0.7-1.1,1.2
					c-0.8,1.6-1.6,3.2-2.4,4.7c-1.8,3.3-3.5,6.7-6.6,9.2c-1,0.6-1.4,1.9-0.8,2.9c0,0,0,0,0,0.1c0.3,0.6,0.5,1.4,0.8,2.1
					c2.4,5.3,3,10.8,2.9,16.5c0,1.6-0.8,3.4,0.6,4.9c0.2,0.2,0.3,0.4,0.4,0.6c0,0.4,0.1,1-0.1,1.2c-0.4,0.2-0.9,0.2-1.3,0
					c-0.5-0.2-0.8-0.8-1.2-1.1c-0.9-0.9-2-1.6-3.1-2.2c-3.2-1.3-6.4-0.3-7.6,3.5c-0.9,3-0.6,6.2,0.7,9.1c1.2,3,3.8,5.2,7,5.9
					c3.5,0.8,6.6,0.2,9.1-2.5c0,0,0-0.1,0-0.1c-0.5-0.6-1.3-1.3-0.7-2.1c0.2-0.2,1.5,0.3,2,0.7c3.1,2.7,6.6,5,10.2,6.8
					C60,95.4,61.4,96,62.9,96.6z M232.3,18c-1.2,2.7-0.8,5.9,1,8.3c0.3,0.4,0.4,0.8,0.3,1.3c-0.1,0.3-0.8,0.4-1.2,0.5
					c-0.6,0-1.1,0-1.7,0c-1.4,0-2.7-0.1-4.1-0.1c-0.3,0-0.6,0-0.9,0.2c-0.6,0.3-1.1,0.8-1.7,1.1c-1.6,0.9-3.1,0.2-4.7-0.4
					c-0.1,0.4-0.2,0.8-0.2,1.3c0.2,3.1,0.3,6.2,0.6,9.3c0.6,6.1,1.8,12.2,4.5,17.9c1.9,3.8,4.1,7.3,7.9,9.5c2.9,1.8,6.1,3.3,9.6,3.2
					c3.7-0.1,7.3-1.4,10.1-3.8c4.3-3.3,7.5-7.8,9.2-12.9c0.5-1.7,0.9-3.4,1.3-5c0.2-0.8,0.5-1.2,1.4-0.9c0.4,0.1,0.8,0.1,1.2,0
					c2.5-1.1,4.6-2.8,6.1-5c2.7-3.8,3.1-8.8,1.2-13.1c-1.1-2.1-3.6-2.9-5.7-1.8c-0.1,0-0.1,0.1-0.2,0.1c-1.3,1-2.3,2.2-3,3.7
					c-1,2-0.3,4.5-1.9,6.3c0,0,0,0.2,0,0.2c0.2,0.7-0.1,1.2-0.8,1.2s-1-0.4-1.2-1c-0.6-1.6-0.8-3.2-0.7-4.9c0-0.7-0.3-1.4-0.8-2
					c-0.8-0.7-1.7-1.2-2.6-1.8c-1.3-0.9-2.5-1.9-3.7-2.9c-1.5-1.4-2.8-2.9-4.2-4.4c-0.2,0.6-0.3,1.3-0.6,1.9c-0.2,0.4-0.4,1-0.7,1
					c-0.5,0-0.9-0.2-1.3-0.6c-0.3-0.3-0.4-0.6-0.5-1c-0.6-4-3.3-6.6-6.4-8.8c-1.6-1.1-3.3-0.3-3.5,1.7c-0.1,0.5-0.1,1.1,0,1.6
					c0.4,1.8,0.7,3.6,3,4.2c0.3,0.1,0.5,0.6,0.8,1c-0.5,0.3-0.9,0.8-1.4,0.8c-0.7-0.1-1.4-0.4-1.9-0.8C233,21.9,232.4,20.1,232.3,18
					z M106.8,113.8l-0.5,0.1c0,1-0.1,2,0,2.9c0.1,1.4,0.4,2.9,0.6,4.3c0.5,3.1,1,6.3,1.6,9.4c0.4,2,1,4,1.4,6
					c0.1,0.5-0.1,1.1-0.5,1.5c-0.5,0.3-1.2,0.2-1.5-0.3c0-0.1-0.1-0.1-0.1-0.2c-0.3-0.6-0.7-1.2-0.9-1.9c-1.1-2.7-2.1-5.5-3.4-8.2
					c-0.7-1.6-1.9-2.9-3.4-3.9c-0.1,0.5-0.1,1-0.1,1.6c0.4,2.2,0.8,4.5,1.4,6.7c0.7,2.7,1.5,5.4,2.2,8.1c0.1,0.3,0,0.8-0.2,0.9
					c-0.3,0.1-0.7,0.1-1,0c-0.3-0.2-0.5-0.5-0.7-0.8c-0.7-1.5-1.3-3-2-4.5s-1.6-3.1-3.8-3.7c0,0.5,0,1,0.1,1.4
					c1,3.2,2.1,6.3,3.1,9.5c0.8,2.3,1.6,4.6,2.2,6.9c0.9,3.1,1.6,6.3,2.6,9.5c0.4,1.5,1.4,2.9,1.6,4.4c0.4,3,0.5,6.1,0.8,9.3
					c2.4,0.8,5,1.2,7.6,1.1c2.9,0.2,5.9-0.3,8.5-1.7c0.4-0.2,0.8-0.7,0.9-1.1c0.2-3.3,0.4-6.5,0.6-9.8c-0.1-1.2,0.1-2.5,0.4-3.7
					c0.8-2.1,1.8-4.2,2.9-6.2c2.3-4,4.9-7.7,7.2-11.6c0.6-1,1.1-2.1,1.4-3.2c0.3-0.8-0.2-1.3-1-1c-0.7,0.3-1.4,0.7-1.9,1.3
					c-1.3,1.3-2.4,2.8-3.7,4.1c-1.4,1.7-3.1,3.1-5.1,4c-0.8,0.3-1.3,0.2-1.6-0.6c-0.5-1.3-0.9-2.6-1.3-4s-0.3-2.8-0.9-3.9
					c-0.5-0.9-0.8-2-0.8-3.1c-0.4-4.5-0.8-9.1-1.3-13.6c-0.3-1.7-0.8-3.4-1.4-5.1l-0.6,0.1c0.1,5.2,0.2,10.4,0.3,15.6
					c0,1.8,0,3.5-0.1,5.3c0,0.5-0.4,0.9-0.9,0.9c-0.4,0-0.7-0.2-0.9-0.6c-0.4-1.2-0.7-2.3-1-3.5c-1.2-5.1-2.2-10.4-4.3-15.3
					C108.8,115.8,108,114.6,106.8,113.8z M378.3,116.2l-0.3-0.3c-0.2,0.1-0.4,0.1-0.6,0.2c-3.4,1.3-6.1,3.7-8.9,6
					c-0.4,0.3-0.9,0.6-1.3,0.9l-0.3-0.2c-0.1-0.5-0.1-1.1,0-1.6c0.5-1,1-2,1.7-2.9c1.7-2.4,3.6-4.7,5.3-7.1c0.9-1.3,1.5-2.7,2.3-4
					l-0.4-0.3c-0.6,0.5-1.2,1-1.8,1.6c-2.7,3.3-5.3,6.7-8.1,10.1c-0.3,0.4-1,0.8-1.4,0.6c-0.8-0.3-0.4-1-0.1-1.5
					c0.7-1.4,1.5-2.7,2.1-4.1c1.2-2.7,2.2-5.5,3.3-8.3c0.4-1.1,0.8-2.2,1.2-3.3l-0.4-0.2c-1.2,1.5-2.3,3.1-3.4,4.7
					c-1.6,2.8-3,5.8-4.5,8.7c-0.6,1-1.3,2-2,3c-0.2,0.2-0.6,0.2-1,0.3c-0.1-0.4-0.3-0.8-0.2-1.1c0.9-3.1,2-6.2,2.9-9.4
					c0.5-1.6,0.8-3.2,1.1-4.8l-0.3-0.2c-0.8,0.9-1.5,1.9-2.1,3c-0.7,1.3-1.2,2.8-1.8,4.2c-0.9,1.9-1.9,3.8-2.8,5.8
					c-0.8,1.7-1.5,3.4-2.3,5.1c-0.3,0.8-1.1,1.3-2,1.2c-0.9-0.2-0.5-1.1-0.5-1.8c0.2-1.5,0.3-2.9,0.2-4.4c-0.1-1.1-0.3-2.1-0.6-3.1
					h-0.3c-0.2,0.4-0.4,0.9-0.6,1.3c-1.1,3.2-1,6.4-0.8,9.7c0.1,1.5,0.1,3.1-0.1,4.6c-0.3,1.6-0.1,3.3,0.7,4.7
					c0.2,0.3,0.3,0.6,0.3,0.9c0,1.7,0,3.5,0.1,5.2c0.1,0.5,0.4,0.8,0.8,1.1c2,0.9,4.3,1.3,6.5,1c1.9-0.3,3.6-0.9,5.5-1.3
					c1.1-0.3,1.2-0.1,1,1c-0.2,1.1-0.3,2.1-0.4,3.2c0,2.6,0.2,5.2,0.1,7.8c-0.1,3.3-0.2,6.6-0.4,9.9c-0.2,2.4-0.6,4.8-0.9,7.2
					c0,0.3,0.3,0.6,0.5,1l0.4-0.1c0.2-1.6,0.6-3.2,0.8-4.8c0.2-2,0.4-4,0.5-6.1c0.1-3.3,0.2-6.6,0.2-9.9c0-2.7-0.1-5.3,0.1-7.9
					c0.1-0.9,0.1-1.4-0.8-1.7c0.1-3.1,1.1-6.1,2.7-8.8c2.2-3.8,4.9-7.3,7.9-10.4C376.2,119.1,377.3,117.6,378.3,116.2z M49.3,113
					c0.9,0.4,2.1,0.8,3.3,1.3c1.5,0.6,3.1,1.1,4.8,1.5c2.8,0.6,5.7,1,8.6,1.2c2.8,0.1,5.7,0,8.5-0.3c0.8-0.1,1.6-0.5,2.2-1
					c0.2-0.2-0.2-1.1-0.3-1.6c0-0.1,0-0.2,0-0.4c-0.5-4.9-0.2-9.8,0.6-14.7c-4.6,0.9-9.1,1.6-13.8,0.5c-4.7-1.1-8.4-3.7-12.4-6.4
					C51.6,99.8,50.8,106.2,49.3,113L49.3,113z M165.3,89.2c-6.8,4.4-13.5,3.3-20.2,0.2c0.9,3.4,1.1,6.9,0.8,10.3
					c-0.3,3.4-0.9,6.8-1.4,10.2c7.9,2.1,15.6,2.1,23-2C166.1,101.8,165.3,95.5,165.3,89.2L165.3,89.2z M238,77.3
					c-1.3,0.2-2.5,1.1-3.1,2.3c-0.8,1.7-1.4,3.5-2,5.3c-0.3,1.1-0.2,2.3-0.6,3.4c-1,2.8-1.6,5.7-1.9,8.7c1-1.2,1.7-2.2,2.6-3.2
					c1.9-2.2,3.8-4.2,6.6-5.2c0.8-0.4,1.8-0.4,2.6,0.1c0.3,0.2,0.4,0.6,0.4,0.9c-0.2,0.3-0.5,0.5-0.8,0.6c-1.9,0.1-3.6,0.9-4.9,2.2
					c-0.1,1-0.1,2,0,2.9c0.4,2.7,0.9,5.3,1.4,7.9c0.7,3.5,1.5,7.1,2.3,10.6c0.8,3.5,1.8,7.3,2.7,10.9c0.3,1.1,0.9,1.6,2.1,1.3
					c0.1-9.2,0.3-18.3,0.4-27.4c-1,1.2-1,1.2-2.4,0.4l1.3-2c-1-2-1.3-4.3-1.1-6.5c0-1.2,0-2.3-0.2-3.4c-0.1-0.4-0.7-0.7-1.1-1
					c-1.5-0.8-3.1-1.5-4.6-2.3c-0.4-0.2-0.7-0.6-0.7-1.1c0.2-1.5-0.1-3.1,0.8-4.4C237.9,77.9,238,77.6,238,77.3L238,77.3z
					 M261.5,75.7l1.5-0.2c0,0.4,0.2,0.9,0,1.2c-0.4,1.1-1.1,2.2-1.9,3.2c-1.7,1.5-3.5,2.9-5.3,4.2c-0.4,0.3-0.8,0.5-1.3,0.7
					c-1.8,0.4-3,1.3-3.1,3.2c-0.3,2.8-0.5,5.6-0.7,8.4c-0.1,1-0.4,1.4-1.4,1.2c-0.6-0.2-1.3,0.2-1.4,0.8c0,0.1-0.1,0.2-0.1,0.3
					c0,5.8,0,11.6,0,17.4c0,1.7-0.1,3.5-0.1,5.2c0,1.2,0,2.4,0,3.6l0.3,0.1c1-2.4,1.8-4.9,2.5-7.4c1.3-5.7,2.3-11.5,3.4-17.2
					c0.6-3.2,1.4-6.4,2-9.6c0.3-1.2,0.6-2.4,0.9-3.8c-0.4,0.2-0.6,0.3-0.7,0.3c-0.4,0-0.8-0.1-1.2-0.1c0.1-0.4,0-1.1,0.3-1.3
					c0.5-0.4,1.4-0.9,1.9-0.7c0.8,0.3,1.4,0.9,1.7,1.6c0.5,1.7,0.8,3.4,1.1,5.2c1.3-1,2.5-2,3.6-3.2c1.7-1.9,3.6-3.8,2.7-6.7
					c-0.1-0.5-0.2-1-0.3-1.5c-0.3-2.1-0.5-4.2-0.8-6.2c-0.2-1.1-0.6-1.3-1.7-0.9c-0.7,0.2-1.4,0.5-2,0.8
					C261.3,74.8,261.4,75.3,261.5,75.7L261.5,75.7z M314.2,102.6c6.2,1.6,13.4-0.4,20-5.4c-2.4-4.4-2.9-9.2-2.8-14.2
					c-4.4,5.4-10.7,8.8-17.7,9.6C314.7,95.9,314.9,99.4,314.2,102.6L314.2,102.6z M140.9,117.6c3.2,2.8,6.7,5.2,10.5,7.1
					c1.1,0.6,1.8,0.2,2.1-1.1c0.2-1.1,0.4-2.1,0.7-3.1c0.6-2.4,1.2-4.7,1.9-7.3c-1.6,0.1-3.2,0.1-4.8,0c-2.5-0.4-4.9-1.1-7.4-1.6
					c-0.4,0-0.8,0.2-1,0.5C142.2,113.9,141.6,115.8,140.9,117.6z M169.7,109.9l-11.6,3.7c1,1.9,2.1,3.9,3.2,5.8
					c0.6,1.1,1.4,2.2,2,3.3c0.4,0.6,0.9,0.7,1.4,0.2l8-7.5L169.7,109.9z M70.1,129.5c2-0.7,3.8-1.8,5.2-3.4c2.1-2.1,4.7-3.7,6.3-6.4
					c0.5-0.6,0.6-1.4,0.3-2.1c-0.4-1-0.4-2.1-0.8-3c-0.4-0.8-0.9-1.5-1.5-2.1c-0.3-0.2-0.7-0.2-1-0.1c-0.2,0.1-0.2,0.6-0.2,1
					c0.1,0.7,0.2,1.3,0.3,2c0,0.3,0.1,0.8-0.1,1c-1.3,1.4-2.7,2.9-4.9,3c-1.8,0.1-3.6,0.2-5.6,0.3C68.8,122.9,69.4,126.1,70.1,129.5
					z M129.4,60.7l0.3-0.1c-0.5-1.5-1-3.1-1.6-4.6c-0.8-2-3.4-2.7-4.8-1.4c-2.1,1.9-2.6,4.4-2.5,6.9c0,2,0.8,3.9,2.1,5.3
					c1.9,2.2,4.7,3.5,7.6,3.5l-1-2.9c0.1-0.1,0.3-0.5,0.4-0.5c1,0,0.7-0.5,0.6-1c0-0.6-0.2-1.1-0.5-1.6c-0.5-0.4-1-0.7-1.5-1
					c-0.8,0.6-0.3,2.3-1.6,2.8c-0.8-0.4-1.1-1.4-0.7-2.2c0-0.1,0.1-0.1,0.1-0.2c0.4-0.7,0.7-1.5,1.1-2.2c-0.9-1.2-2.1-2.1-3.5-2.6
					c-0.4-0.2-0.5-0.7-0.8-1.1c0.4-0.2,0.9-0.7,1.2-0.6c0.8,0.1,1.5,0.5,2.1,0.9C127.5,58.8,128.4,59.8,129.4,60.7z M66.3,121.8H66
					c-0.1,8.4-0.6,16.9-0.5,25.2l0.4,0.2l4.6-1.8c0.3-4.7,0.6-9.2,0.9-13.7c-2,0.1-2.5-0.1-3.1-1.7c-0.4-1.2-0.8-2.4-1.1-3.6
					C66.8,125,66.6,123.4,66.3,121.8z M359.3,180.1c-0.3,0.2-0.5,0.4-0.8,0.6c-0.4,0.5-0.9,1.1-1.4,1.6c-2.6,2.2-6.9,0.1-7.9-2.6
					c-0.2-0.5-0.2-1-0.4-1.4c-1.1-2.3-1.8-4.7-1.9-7.3c0-4,0-8.1,0.3-12.1c0.3-2.8,0.7-5.5,1.4-8.3c0.5-2.7,1.1-5.3,1.6-7.9
					c0.1-0.6,0.1-1.2-0.9-1.1c-0.8,4.1-1.6,8.1-2.3,12.2c-0.5,2.3-0.8,4.5-1,6.8c-0.2,3.6-0.1,7.3,0,10.9c0,1,0.1,2,0.4,3
					c0.7,2.2,1.5,4.4,2.3,6.5c0.1,0.5,0.4,0.9,0.7,1.3c1.7,1.4,3.9,2.1,6.1,2C357.6,184,359.3,182.2,359.3,180.1L359.3,180.1z
					 M171.2,157.5l5-0.5c-1.1-3.1-0.5-5.7,2.2-7.8l-7.3,0.3V157.5z M312.5,104.5c-0.4,2.8-0.7,5.6,0.5,8.4c2.9-2.1,4.1-5.4,6.6-7.8
					L312.5,104.5z M185.8,157l4,1.4c0-1.9,0.1-3.8,0-5.7c-0.1-2.4-2.1-4.4-4.6-4.3c-0.7,0-1.3,0.2-1.9,0.5c0,0,0,0.1,0,0.3
					c1.9,0.1,2.7,1.3,2.8,3C186.1,153.9,185.9,155.4,185.8,157L185.8,157z M167.2,90.7l0.3,0.3c0.5-0.5,1.1-1,1.7-1.5s0.8-1,1.2-1.2
					c1.1-0.6,2.2-1,3.4-1.5c-0.7-1.6-1.4-3.3-2.1-5c-1.3,1.7-2.6,3.5-4,5.2c-0.5,0.6-0.7,1.3-0.7,2
					C167.1,89.5,167.1,90.1,167.2,90.7L167.2,90.7z M183.6,153.4c0.2-1.8-1-2.5-2.6-2.8c-1.4-0.2-3.1,1.5-3.2,3.1
					c-0.1,1.6,1,3.2,2.2,3.3C182.1,156.9,183.6,155.3,183.6,153.4L183.6,153.4z M345.6,76.2c1.2,3.7,0.8,7.7-1.1,11
					c2.3-0.6,3.9-2.6,4-5C348.4,79.8,346.9,78.1,345.6,76.2z M8.8,179.4c-0.1-1-0.1-1.8-0.2-2.7c-0.1-0.3-0.3-0.8-0.6-0.9
					c-0.9-0.2-1.9-0.3-3-0.5c0.1,1.3,0.2,2.5,0.3,3.6c0,0.6,0.4,0.8,0.9,1.1C7.3,180.5,7.9,179.7,8.8,179.4z M138.8,90.7
					c1.4,0.1,2.3-1.9,4.2-0.9c-0.2-0.8-0.2-1.6-0.6-2c-0.8-0.8-1.6-1.6-2.5-2.3C139.6,87.2,139.2,88.9,138.8,90.7L138.8,90.7z
					 M18.4,179.9c0-0.4,0-0.7,0-1c-0.1-2-0.1-2-2-2c-0.5,0-1,0-1.5-0.1c-0.2,2.8-0.5,2.8,2.4,3C17.8,179.8,18.1,179.8,18.4,179.9z
					 M10.1,176.2c-0.2,4,0.4,3.4,3.1,3.1v-2.6L10.1,176.2z M105.6,127.3l0.1-0.1l-0.7-4.1h-2.4L105.6,127.3z M177.4,66.8l-2.3,0.4
					l1.3,3.3h0.4C177,69.3,177.2,68.1,177.4,66.8z M179.9,46.5c-1.7-0.5-2.7,0.1-4.5,2.4c-0.4,0.5-0.5,0.9,0.1,1.3
					C176.4,48.4,178,47.1,179.9,46.5z M129.8,72.4c0.1,1.2,0,2.4,1,3.3l0.4-0.1l-0.2-3.4L129.8,72.4z M25.2,179.2
					c1.4-0.4,1.8-0.8,1.3-1.8c-0.1-0.3-1-0.7-1.2-0.5C24.3,177.5,25.2,178.3,25.2,179.2z M245.5,128c-0.7,1.1-0.8,2.7-0.3,3.3
					C246,130.4,246.1,129.1,245.5,128z M3.8,179.4l-0.3-2.8H3.2C3.4,177.5,2.2,178.6,3.8,179.4z M65.9,119.1
					c-0.6,1.4-0.6,1.4,0.4,1.7L65.9,119.1z M181.4,147.3h0.3l-0.2-1l-0.3,0.1L181.4,147.3z M113.9,124.7l-0.3,0.1l0.2,0.9l0.2-0.1
					L113.9,124.7z M182.9,149.3c0-0.1,0-0.2-0.1-0.2c-0.1,0-0.1,0-0.2,0l0.2,0.3L182.9,149.3z M182.1,148.8l-0.4-0.2
					c0,0.1-0.1,0.2-0.1,0.3c0,0.1,0.1,0.1,0.2,0.1C181.9,148.9,182,148.9,182.1,148.8L182.1,148.8z M353.6,117.5
					C353.6,117.5,353.5,117.5,353.6,117.5C353.5,117.5,353.5,117.6,353.6,117.5L353.6,117.5L353.6,117.5z M304.3,48.9h0.1v-0.1
					L304.3,48.9C304.3,48.8,304.3,48.9,304.3,48.9z M40.6,73.6L40.6,73.6c0.1-0.1,0-0.1,0-0.2C40.6,73.4,40.6,73.4,40.6,73.6
					L40.6,73.6z M180.5,46.7L180.5,46.7L180.5,46.7L180.5,46.7z M364.2,107.6C364.2,107.6,364.2,107.6,364.2,107.6
					c-0.1,0.1-0.1,0.1,0,0.1C364.3,107.8,364.3,107.7,364.2,107.6C364.3,107.6,364.3,107.6,364.2,107.6L364.2,107.6z"/>
				
					<pattern  id="SVGID_00000028325997353941032760000017751777001443101624_" xlink:href="#VT_Halftone_5" patternTransform="matrix(1 0 0 -0.9919 -103.08 -15962.6982)">
				</pattern>
				<path style="fill:url(#SVGID_00000028325997353941032760000017751777001443101624_);" d="M99.1,131.5c-0.5-0.4-1-0.8-1.5-1.1
					c-0.9-0.8-2.3-0.6-3.1,0.3c-0.4,0.5-0.6,1.2-0.4,1.9c0.5,2.2,1.1,4.4,1.7,6.6c1.4,4.8,3,9.5,4.5,14.3c0.1,0.6,0.1,1.1-0.1,1.7
					c-0.3,1.5-0.5,3.1-0.5,4.7c-0.1,2.7,0,5.4,0,8.1c0,4.8-0.1,9.5-0.2,14.3c0,1.5-0.1,3-0.2,4.5H30.9c-0.1-3-0.3-5.9-0.4-8.8
					c-0.1-2.7-0.2-5.4-0.3-8.1c-0.1-3.1-0.3-6.3-0.4-9.4c0-2.3,0.1-4.6,0.1-6.8c0-0.6,0.4-1.6-0.6-1.6s-1,0.8-1,1.6
					c0,2.6-0.3,5.3-0.2,7.9c0.1,4.6,0.2,9.1,0.4,13.6c0,0.1,0,0.2-0.1,0.4c-3-0.9-6.1-0.4-9.1-0.6c-3.2-0.1-6.3-0.3-9.5-0.8
					c-2-0.4-4-0.4-6.4-0.6c0.3-0.6,0.6-1.1,0.8-1.7c0.1-0.3,0.3-0.9,0.1-1.1c-1.6-2-1.5-4.2-1.6-6.5c-0.1-5,0.3-9.9,1.2-14.8
					c0.5-2.7,1.6-5.2,3.2-7.5c1.6-2.3,3.3-4.5,4.9-6.7c1.2-1.6,3-2.3,4.8-3c2.8-1.1,5.7-1.8,8.4-2.8s5.6-2.3,8.3-3.7
					c3.4-1.7,6.8-3.6,10.2-5.5c3.6,4.5,8.2,7.6,12.9,10.8c1.1,0.8,2.4,1.3,3.8,1.6c1.6,0.3,2.2-0.2,2.4-1.7c0.2-1.3,0.6-2.5,1-3.7
					l0,0c0.1,0.5,0.1,0.9,0.1,1.4c-0.2,4.2-0.4,8.5-0.6,12.7c-0.1,1.7-0.2,3.5-0.2,5.2c0.1,3.1,2,3.6,4.1,3c1.6-0.4,3.1-1.1,4.6-2
					c0.9-0.6,1.4-1.6,1.3-2.7c0-4.5,0.3-8.9,0.5-13.4c0.1-0.3,0.2-0.6,0.5-0.8c2.5-2.4,5.2-4.8,7.6-7.3c0.7-0.9,1.4-1.9,1.9-3
					l15.2,2.4c-0.9,2.6-0.1,5.1,0.3,7.5C99.2,130.6,99.2,131.1,99.1,131.5L99.1,131.5z M47.6,156c0-0.5-0.1-1-0.1-1.4
					c-0.1-1.5-0.2-1.7-1.7-1.8c-1.6-0.1-3.2-0.2-4.9-0.2c-0.7-0.1-1.4,0.3-1.6,1.1c0,0.1,0,0.3,0,0.4c0,0.9,0,1.8-1.2,2.2
					c-0.1,0-0.2,0.5-0.3,0.7s0,0.7-0.2,0.8c-1.1,0.8-1.1,2-1.1,3.2c-0.1,1.4,0.1,2.8-0.1,4.1c-0.4,3.8-0.3,7.6,0.1,11.3
					c0.1,0.9,0.4,1.8,0.8,2.5c0.9,1.8,2.7,2,4.5,2.2c1.5,0.2,3,0.3,4.4,0.5c1,0.2,1.9,0.4,2.9,0.4c2-0.1,4-0.4,6-0.6
					c1.1-0.1,2-0.5,2.2-1.7c0.4-2.5,0.9-5,1.1-7.4c0.2-2.4,0.1-5.1,0.2-7.6c0-2.3,0.2-4.6,0.2-6.8c0-0.9-0.7-1.6-1.6-1.6
					c0,0-0.1,0-0.1,0L47.6,156z"/>
				<path class="st3" d="M231.1,186.7c-0.5-1.6-1-3.2-1.5-4.8c-1-3-2.1-6.1-3.1-9.1c-0.5-1.5-0.6-3.1-1.5-4.3
					c-2-2.6-2.1-5.9-3.2-8.7s-2-5.9-3-8.8c-1.4-4.2-3-8.4-4.2-12.7c-1.2-4.3-2.1-8.9-3.3-13.4c-0.9-3.5-1.9-6.9-2.9-10.5
					c-0.2-0.5-0.5-0.9-0.9-1.3c-0.2-0.2-0.7,0-1-0.1c0,0.4-0.1,0.8,0,1.1c0.8,1.6,1.4,3.4,1.5,5.3c-4-0.4-7.8-1-11.6-1.2
					c-3.6-0.3-7.2-1-10.6-2c-3.6-1-7.1-2.4-10.7-3.4c-1.6-0.3-2.9-1.5-3.3-3.1c-0.3-1.1-1.2-1.9-2.3-2.1c-0.3-0.1-0.5-0.3-0.6-0.5
					c-0.3-1.2-0.5-2.3-0.7-3.5c0.5,0,1-0.1,1.5-0.2c5.6-1.6,11.2-3.3,16.8-4.7c3.7-0.9,7.4-1.6,11.1-2c7.7-1,15.3-2.1,22.8-4.4
					c2.4-0.7,4.9-1.3,7.3-1.9c0.6-0.2,1.2-0.4,1.8-0.7c-0.2,2.1-0.4,4.1-0.7,6.2c-0.2,1.4,1,1.8,1.7,2.3c0.7,0.5,1.3-0.4,1.8-0.9
					c1-1,1.9-2.1,3-3.3c0.1,1.7,0.1,3,0.3,4.4c0.5,3.1,0.9,6.2,1.6,9.3c1,4.6,2.2,9.3,3.4,13.9c0.5,2.1,1,4.2,2.5,6
					c0.1,0.2,0.2,0.4,0.1,0.6c-0.1,1.1-0.2,2.2-0.4,3.5c-1.4,0-2.7,0-4,0c-1.6,0-3.1,1-3.7,2.5c-0.3,0.5-0.2,1.2,0.1,1.7
					c0.4,0.9,0.6,2,0.5,3c0.1,2.9,0,5.8,0.2,8.7c0.2,3.3,0.6,6.5,1,9.8c0,0.3,0.5,0.5,0.8,0.8c0.2-0.3,0.6-0.7,0.6-1
					c-0.1-1.9-0.4-3.9-0.5-5.8c-0.1-2.8-0.1-5.5-0.3-8.3c-0.1-2.6-0.3-5.2-0.5-7.8c-0.1-0.9,0.4-1.1,1-1.1c2.1-0.3,4.3-0.5,6.5-0.7
					c1.3-0.1,2.7-0.2,4-0.2c0.7-0.1,1.5,0,2.2,0.1c1.1,0.3,1.1,1.2,1.2,2.2c0.1,4.1,0.2,8.2,0.3,12.4c0.1,2.2,0.2,4.3,0.4,6.5
					c0.1,0.6-0.2,1.1-0.8,1.3c-0.1,0-0.2,0-0.2,0c-3.8,0.8-7.5,1.8-11.4,1.1c-0.2,0-0.4-0.1-0.5,0c-0.3,0.2-0.6,0.4-0.9,0.7
					c0.2,0.3,0.4,0.7,0.7,0.7c1.6,0.3,3.1,0.6,4.7,0.8c0.7,0,1.4,0,2.1-0.1c0,1.6,0,3.2,0,4.8c0.1,4.4,0.2,8.8,0.5,13.2
					c0.2,3.4,0.6,6.9,1,10.3L231.1,186.7z M241,138.3l-0.3,0.1c0.6,2.3,1.1,4.5,1.7,6.8c0.2,0.4,0.7,0.6,1.1,0.6
					c1.5-0.1,3.1-0.2,4.6-0.5c1.1-0.2,1.9-1.3,1.7-2.4c0-0.1,0-0.2-0.1-0.2c-0.3-1.7-0.7-3.5-1-5.2c-0.1-1.1-1-1.9-2.1-1.9
					c0,0,0,0,0,0c-1.1,0-2.2,0-3.2,0.2C241.1,135.9,240.8,136.7,241,138.3z M249.3,150.7c-0.5-0.2-1.1-0.4-1.7-0.4
					c-2,0-3.9,0.1-5.9,0.3c-0.3,0-0.7,0.5-1,0.7c0.3,0.3,0.6,0.9,0.9,0.8c2.2-0.1,4.5-0.2,6.7-0.5
					C248.5,151.6,248.8,151.2,249.3,150.7L249.3,150.7z M244.9,147.5L244.9,147.5c-1.1,0-2.2,0-3.3,0.1c-0.4,0-0.7,0.5-1.1,0.8
					c0.3,0.2,0.6,0.6,1,0.6c2.2,0,4.5,0,6.7-0.1c0.3,0,0.6-0.5,1-0.7c-0.3-0.2-0.6-0.6-0.9-0.6C247.2,147.4,246,147.5,244.9,147.5
					L244.9,147.5z M242.2,154.3c0.4,0.3,0.6,0.8,1,0.9c1.6,0.2,3.3,0.6,5-0.1c0.4-0.3,0.8-0.6,1.2-1l-0.2-0.4h-5.4
					c-0.2,0-0.5,0-0.7,0C242.7,153.8,242.4,154,242.2,154.3L242.2,154.3z"/>
				<path class="st3" d="M284.1,118.2c-0.3-0.3-0.6-0.7-0.8-1.1c-0.2-0.6-0.4-1.1-1.1-0.9c-0.2,0.1-0.4,0.9-0.3,1.2
					c0.4,1.1,0.9,2.2,1.3,3.3c0.1,0.3,0.3,0.7,0.2,0.9c-1.4,3.8-2.2,7.8-2.4,11.8c-0.3,3.6-0.5,7.2-0.8,10.8
					c-0.2,3.6-0.5,7.5-0.7,11.2c-0.1,3-0.1,6-0.2,8.9c-0.1,3.3-0.3,6.6-0.4,9.9c-0.1,4-0.2,7.9-0.4,11.8c0,0.2-0.1,0.4-0.1,0.6
					h-22.1c0.1-0.4,0.3-0.8,0.2-1.1c-0.2-0.6-0.4-1.4-0.9-1.6c-0.6-0.1-1.3,0.1-1.8,0.5c-0.5,0.6-0.8,1.4-1.1,2.1h-2.8
					c-0.4-4.9-0.9-9.8-1.2-14.7c-0.3-4.6-0.5-9.2-0.7-13.7c1.9-0.6,3.7-1.2,5.6-1.7c0.9-0.1,1.5-1,1.4-1.9c-0.1-2.5-0.2-5-0.4-7.5
					c-0.1-2.7-0.2-5.3-0.3-7.9c-0.1-1.6-0.2-3.3-0.5-4.9c-0.4-2.2-1.6-3.1-3.9-3.2c-0.8,0-1.7,0-2.7,0c0.3-1.4,0.1-2.7,1.2-4.1
					c1.3-1.8,2.2-3.8,2.8-6c1.8-5.7,2.4-11.6,3.4-17.5c0.5-3,1.2-6,1.8-9c0.1-0.6,0.2-1.3,0.3-1.9c0.1,0.1,0.2,0.1,0.3,0.1
					c0.5,2,1.1,2.2,2.7,1.1c2.5-1.5,4.7-3.6,6.2-6.1c0.9-1.5,1.6-3,2.5-4.5c2.9,1.2,5.9,2.5,9,3.7c4.1,1.7,8.2,3.5,12.4,5
					c3.8,1.5,7.4,3.4,10.7,5.8c1.1,0.7,2.1,1.6,3.1,2.5c1.3,1.1,1.5,2.7,2.1,4.1l0.8,1.7c-6.3,4.5-13.3,8.1-20.7,10.5v-2.8
					c0.1-0.4,0.1-0.7,0-1.1c-0.2-0.3-0.6-0.8-0.9-0.8c-0.4,0.1-0.7,0.4-0.9,0.8C284.3,114.6,284.3,116.4,284.1,118.2L284.1,118.2z
					 M253.1,164.4c-1.3-0.9-1.9-0.7-2.3,0.7c-0.3,0.9-0.4,1.8-0.5,2.7c0.1,0.4,0.3,0.8,0.7,1c0.3,0.1,1,0,1.1-0.2
					C252.8,167.1,253.6,165.9,253.1,164.4L253.1,164.4L253.1,164.4z M278,114.8c-0.7,0.1-1,0.5-1,1.2c0,1-0.1,1.9-0.2,2.8
					c-0.1,2.7-0.2,5.4-0.4,8.2c0.1,1-0.3,2-1.1,2.6c-1.2,0.9-2.3,1.9-3.5,2.8c-0.8,0.6-1.8,0.6-2.6,0.1c-1-0.7-2-1.4-3-2.1
					c-0.6-0.4-1.1-0.9-1.4-1.5c-0.2-0.8-0.2-1.7-0.1-2.6c0.1-2.4,0.2-4.9,0.3-7.3c0-1.6,0-3.1,0-4.8c3.7,0.2,7.3,0.4,10.8,0.6
					c0.8,0,1.4-0.1,1.5-1.1c-0.3-0.2-0.6-0.3-0.9-0.4c-3.5-0.7-7-0.9-10.5-0.7c-1.4,0.2-2.4,1.4-2.5,2.8c-0.2,4.3-0.5,8.5-0.5,12.8
					c0,0.9,0.4,1.8,0.9,2.5c0.7,0.7,1.4,1.4,2.3,2c2.3,2.1,5.1,3.2,7.8,0.6c1-1,1.9-2.1,3.4-2.4c0.2,0,0.4-0.4,0.5-0.7
					c0.3-1.8,0.6-3.6,0.7-5.4c0.1-2.5,0.2-5.1,0.1-7.6C278.5,116.4,278.9,115.4,278,114.8L278,114.8z M253.1,126.2
					c-0.3-0.3-0.5-1-0.9-1.1c-0.5-0.1-1,0.1-1.3,0.4c-0.5,0.9-0.9,1.9-1.1,2.9c-0.1,0.6,0.1,1.4,0.8,1.4c0.6-0.1,1.2-0.4,1.6-0.9
					C252.6,128.1,252.9,127.2,253.1,126.2L253.1,126.2z"/>
				<path d="M158.8,186.7c0.1-2.5,0.2-5.1,0.2-7.6c-0.1-3.8-0.3-7.6-0.6-11.4c-0.5-7.9-0.8-15.9-0.6-23.9c0.2-5.8,0.2-11.7,0.2-17.5
					c0-2.6,0-5.3,0.2-8c0.7,1.2,1.3,2.4,2.1,3.6c0.7,1,1.5,1.9,2.3,2.7c0.5,0.6,1.4,0.7,2.1,0.2c3.1-1.8,5.9-4.1,8.2-6.9
					c0.5-0.5,0.9-1.1,1.2-1.7c0.2-0.5,0.4-1.1,0.5-1.6c2.5,0.9,5.1,2,7.9,2.7c2.9,0.9,6,1.6,9,2.2c4.5,0.7,9.1,1.1,13.6,1.6
					c0.3,0,0.6,0.1,0.9,0.2c2.9,0.7,2.8,0.7,3.3,3.7c0.6,3.4,1.4,6.8,2.3,10.2c0.8,3,1.7,5.8,2.6,8.7c0.1,0.4,0.3,0.9,0.4,1.3
					l-17.8,3.3c0.7-1.4,1.3-2.5,1.9-3.6c0.2-0.3,0.4-0.5,0.5-0.8c0.1-0.4,0.1-0.7,0.1-1.1c-0.4,0.1-0.9,0-1.1,0.2
					c-0.4,0.5-0.8,1-1.2,1.6c-0.2,0.1-0.3,0.3-0.5,0.3l0,0c0.4-0.7-0.5-1.7,1-2l-0.1-0.4c-0.5-0.4-0.9-0.7-1.4-1.1
					c-0.3-0.2-0.6-0.3-1-0.2c-0.2,0.1-0.4,0.6-0.4,0.9c-0.1,1.9-0.1,3.9-0.3,5.8c-0.2,2.4-0.7,4.8-0.9,7.2c0,0.6,0.1,1.2,0.4,1.8
					c0.1,0.3,0.2,0.6,0.2,0.8c-0.7,4.2-1.3,8.5-2,12.7h-0.5c-0.1-2-0.2-4-0.2-6c0-0.4,0-0.8,0-1.2c0-1.2-0.3-2.4,0.5-3.7
					c0.7-1.1,0.6-2.7,0.5-4.1c-0.1-1.8,0-3.7-0.9-5.5c-0.6-1.6-2.2-2.7-3.9-2.9c-1.2-0.1-2.4-0.2-3.6-0.3c-0.3-2.2-1.1-2.9-3-2.6
					c-1.3,0.2-1.6,0.9-1.3,3c-2.6,0.2-5.2,0.3-7.8,0.5c-1,0.1-1.2,0.2-1.3,1l0,0l0.1,0.5l0,0c-0.3,0.4-0.8,0.8-0.8,1.2
					c-0.7,3.9-0.8,7.9-0.5,11.8c0,0.2,0.1,0.5,0.2,0.7c1,1.2,0.8,2.6,0.8,3.9c-0.2,4.3,0.1,8.6,0.8,12.9c0.2,1.2,0.5,2.4,0.9,3.6
					c0.4,1.2,1.4,1.4,2.3,0.4c0.2-0.2,0.5-0.3,0.8-0.3c2.6,0,5.3,0,7.9-0.1c1.8-0.1,3.6-0.3,5.6-0.4c-0.5,1.4-0.9,2.6-1.4,3.8
					L158.8,186.7z M164.8,132.3L164.8,132.3c-1.6-0.9-2.6-0.5-3,1.2c-0.1,0.7-0.2,1.4-0.3,2.1c0,0.7,0.1,1.4,0.9,1.6
					s1.4-0.4,1.6-1.2c0.2-0.8,0.6-1.9,0.9-2.9C165.1,132.9,164.9,132.6,164.8,132.3L164.8,132.3z M163.2,150.5
					c-0.4,0.1-0.7,0.2-1,0.4c-1,1.1-1.2,2.7-0.5,4.1c0.4,0.6,1.2,0.9,1.8,0.5c0.1-0.1,0.2-0.1,0.3-0.2c1-0.9,1.4-2.3,0.9-3.6
					C164.6,151,164,150.5,163.2,150.5L163.2,150.5z M165.5,177.3l0.2-0.2c-0.4-0.5-0.6-1.3-1.1-1.6c-0.6-0.1-1.2,0-1.7,0.3
					c-0.4,0.2-0.6,0.7-0.8,1.1c-0.6,1.1-0.1,2.5,1,3.1c0.9,0.3,1.9-0.4,2.3-1.6C165.4,178,165.5,177.6,165.5,177.3L165.5,177.3z"/>
				<path d="M120.9,124.3c1.5,0.9,3.1,0.3,4.5-0.2c2.3-0.8,4.6-1.7,6.8-2.7c2.2-1,4.3-2.3,6.5-3.5c-0.1,1.5-0.1,1.6,1.3,1.7
					c0.3,0,0.5,0.2,0.7,0.4c2.8,2.8,6.1,5,9.8,6.4c1.6,0.8,3.5,0.2,4.3-1.4c0.1-0.2,0.2-0.5,0.3-0.7c0.3-1.3,0.7-2.5,1.2-3.7v2.7
					c0,5.5,0,11-0.1,16.5c0,3.5-0.3,7-0.2,10.6c0.1,4.8,0.2,9.6,0.5,14.4c0.6,7.4,0.9,14.8,0.7,22.2h-30.7c-0.3-2.2-0.7-4.4-0.8-6.7
					c-0.2-2.7-0.1-5.4-0.2-8.1c0-0.9-0.3-1.9-0.2-2.8c0.1-3.2,0.2-6.5,0.3-9.7c0-0.4,0-0.7,0.2-1.1c1.6-3,3.2-5.9,4.9-8.8
					c2.1-3.5,4.3-6.9,6.4-10.4c0.3-0.7,0.6-1.4,0.8-2.1c0.3-1.2-0.1-2.8-1-3.3c-1.1-0.6-2.4-0.5-3.4,0c-1.9,0.9-3,2.6-4.3,4.2
					c-1.6,2.1-3.4,3.9-5.6,5.4c-0.4-1.6-0.7-3-1-4.4c-0.3-1.4-0.9-3-1.2-4.5c-0.1-1.2-0.2-2.5-0.2-3.7c-0.1-1.7-0.3-3.5-0.4-5.2
					C120.8,125.2,120.8,124.7,120.9,124.3L120.9,124.3z"/>
				<path class="st3" d="M189.8,186.7c1-2.5,1.9-5.1,2.6-7.8c0.5-2.7,1.4-5.4,2-8.1c0.4-1.9,0.7-3.8,0.9-5.7c0.4-3.7,0.7-7.4,1-11
					c0.1-1.4,0-2.8,0-4.2c6.3-0.5,12.6-1.6,18.8-3.3c0.6,1.4,1.2,3,1.8,4.6c1.7,4.5,3.4,9.1,5,13.7c1.3,3.8,2.3,7.6,3.4,11.4
					c0.4,1.3,0.8,2.6,1.2,3.8c0.8,2.2,1.6,4.4,2.4,6.5H189.8z"/>
				<path class="st4" d="M326.9,186.7c-0.4-2.6-0.8-5.3-1.1-7.9c-0.6-4.8-1.2-9.5-1.7-14.3c-0.5-4.7-1.1-9.4-1.5-14.1
					c-0.3-4.1-0.5-8.2-0.6-12.3c-0.2-4.4-0.4-8.9-0.4-13.3c0-2.8,0.5-5.6,0.6-8.5c0.1-2.6,0-5.1,0-7.7c1.6,1.4,3.3,2.7,5,3.9
					c1.3,0.8,2.8,1.4,4.3,1.7c1.3,0.3,2.6-0.4,3-1.6c0.2-0.6,0.5-1.1,0.9-1.5c0,2.1,0.2,4.3,0.1,6.4c0,3.8-0.2,7.6-0.2,11.3
					c-0.1,6-0.1,12,0,18c0,5.5,0.3,10.9,0.3,16.4c0,4-0.3,7.9-0.4,11.8c-0.1,3.9-0.2,7.7-0.3,11.6H326.9z M324.6,151.4
					c0,0.5,0,0.7,0,1c0.1,0.8,0.4,1.6,1.3,1.5s1.2-0.8,1.2-1.6c0-0.7,0-1.3-0.2-2c-0.2-0.5-0.6-0.8-1.1-0.9c-0.3,0-0.8,0.5-1,0.9
					C324.7,150.7,324.6,151,324.6,151.4L324.6,151.4z M325.1,118.8c-1,0-1.4,0.5-1.5,1.9c0,0.9,0.6,1.8,1.3,1.9
					c0.9,0.1,1.6-0.9,1.7-2.2C326.6,119.3,326.3,118.9,325.1,118.8L325.1,118.8z M329.2,166c-0.1-0.5-0.3-0.9-0.5-1.3
					c-0.3-0.4-0.8-0.6-1.3-0.6c-0.4,0.1-1,0.7-1,1c0,0.8,0.3,1.7,0.7,2.4c0.3,0.5,0.9,0.6,1.4,0.3c0.2-0.1,0.3-0.3,0.4-0.5
					C329,167,329.1,166.5,329.2,166L329.2,166z M323.7,136.3c0.1,0.6,0.2,1.1,0.5,1.7c0.2,0.3,1,0.6,1.1,0.5c0.5-0.4,0.8-0.9,1-1.5
					c0-0.7-0.1-1.4-0.4-2c-0.3-0.2-0.8-0.3-1.2-0.1C324.3,135.3,323.9,135.8,323.7,136.3L323.7,136.3z M330.1,179.4
					c0-1.2-0.5-2.1-1.5-1.8c-0.6,0.2-1,0.7-1.2,1.3c-0.2,1,0.8,2.4,1.5,2.3C329.7,180.9,330.2,180.2,330.1,179.4L330.1,179.4z"/>
				<path class="st4" d="M320,186.7c-0.6-2.6-1.2-5.3-1.8-7.9c-0.9-3.7-1.8-7.5-2.6-11.2c-0.6-3.1-1.2-6.1-1.7-9.2
					c-0.5-2.8-1-5.6-1.4-8.4c-0.5-3.4-1-6.8-1.5-10.1c-0.5-3.4-1.3-6.8-1.9-10.2c-0.7-4.3-1.4-8.6-2-12.9c-0.3-2.3-0.4-4.7-0.5-7.1
					c0-0.5,0.2-1,0.6-1.3c1-0.8,2-1.6,3.2-2.5c0,1.6-0.1,3,0,4.4c0.1,1.2,0.3,2.4,0.6,3.6c0.3,1.1,1.1,1.4,2.3,1.1
					c2.1-0.6,3.3-2.3,4.7-3.8c0.6-0.6,1.1-1.3,1.8-2c0.2,0.3,0.4,0.5,0.4,0.7c-0.1,4.1-0.3,8.2-0.4,12.3c-0.1,3.7-0.2,7.4-0.1,11.2
					c0.1,4.7,0.3,9.4,0.7,14.1c0.4,4.8,0.9,9.5,1.3,14.2c0.3,3.5,0.6,7,1,10.5c0.6,4.9,1.2,9.8,1.9,14.7L320,186.7z"/>
				<path class="st3" d="M114.7,186.7c-0.2-3.6-0.4-7.1-0.5-10.8c3.2,0.1,6.3-0.5,9.2-1.8c0.1,1.3,0.2,2.6,0.4,3.9
					c0.4,2.9,0.9,5.8,1.3,8.7H114.7z"/>
				<path class="st3" d="M300.5,186.7c0-3,0.1-6.1,0.1-9.1c0-4.5,0.1-8.9,0.1-13.4c0-2.1-0.2-4.1-0.3-6.2l0.3-0.1
					c0.6,1.4,1.3,2.8,1.8,4.3c1.5,4.2,1.9,8.7,2.5,13.1c0.2,1.7,0.6,3.3,0.8,5c0.2,2.2,0.4,4.4,0.5,6.6L300.5,186.7z"/>
				<path class="st3" d="M8.8,186.7l-0.3-4.1c1.4-0.5,2.8-0.8,4.2-1.1c1,0,2.1,0.1,3.1,0.3c3.8,0.6,7.8,0.2,11.4-1.2
					c0.5-0.3,1-0.7,1.4-1.1l0.5,7.2H8.8z"/>
				<path class="st3" d="M105.9,186.7c0.2-4,0.3-7.9,0.5-11.8c0-0.2,0.1-0.4,0.2-0.6l0,0c1.7,0.4,3.3,1,5,1.3c0.7,0.1,1,0.2,1,1
					c-0.1,3.4-0.1,6.7-0.1,10.1L105.9,186.7z"/>
				<path class="st3" d="M101.6,186.7c0.1-3.1,0.3-6.1,0.4-9.2c0.1-2.1,0-4.1-0.1-6.2c-0.1-4.4-0.2-8.7-0.4-13.1c0-0.3,0-0.7,0.1-1
					c0.9,2.1,1.7,4.3,2.2,6.6c0.3,2.3,0.5,4.6,0.3,6.9c0,5.3-0.1,10.6-0.2,15.9L101.6,186.7z"/>
				<path d="M252.9,186.7c0.3-0.8,0.6-1.5,1.1-2.1c0.5-0.4,1.1-0.6,1.8-0.5c0.4,0.2,0.7,1,0.9,1.6c0.1,0.3-0.1,0.7-0.2,1.1H252.9z"
					/>
				<path d="M29.5,125.5L29.5,125.5L29.5,125.5L29.5,125.5z"/>
				<polygon points="135.1,91.1 135.2,91 135.1,91.1 				"/>
				<path d="M53.7,14L53.7,14L53.7,14L53.7,14z"/>
				<path class="st3" d="M86.9,77.1c-0.1,1.7-0.3,3.3-0.4,5c-0.2,4.6-2.2,8.8-5.5,12c-2.1,2.1-5.1,2.7-8.1,3.1
					c-3.3,0.5-6.7,0.3-10-0.6l-0.1-0.1v0.1c-1.4-0.6-2.9-1.2-4.2-1.8c-3.7-1.9-7.1-4.2-10.2-6.8c-0.6-0.4-1.9-0.9-2-0.7
					c-0.6,0.8,0.1,1.5,0.7,2.1c0,0,0,0.1,0,0.1c-2.5,2.7-5.6,3.3-9.1,2.5c-3.2-0.7-5.8-2.9-7-5.9c-1.4-2.8-1.6-6.1-0.7-9.1
					c1.2-3.8,4.4-4.8,7.6-3.5c1.1,0.6,2.1,1.4,3.1,2.2c0.4,0.3,0.7,0.9,1.2,1.1c0.4,0.2,0.9,0.2,1.3,0c0.2-0.2,0.2-0.8,0.1-1.2
					c-0.1-0.2-0.2-0.5-0.4-0.6c-1.4-1.5-0.6-3.2-0.6-4.9c0.1-5.7-0.5-11.3-2.9-16.5c-0.3-0.7-0.4-1.4-0.8-2.1
					c-0.6-1-0.3-2.3,0.7-2.9c0,0,0,0,0.1,0c3-2.5,4.7-6,6.6-9.2c0.9-1.6,1.6-3.2,2.4-4.7c0.3-0.5,0.6-0.9,1.1-1.2
					c3.9-2.7,8.1-4.6,13-4.8c5.3-0.1,9.1,2.5,11.7,6.8c1,1.6,1.8,3.2,2.8,5c-3.9-1.3-6.7,0.6-9.4,2.6c-0.7,0.5-1.3,1.1-1.9,1.6
					c-0.6,0.5-0.8,1.1,0.2,1.6c0.4,0.2,0.7,0.5,1,0.8c2.2-1.9,4.9-3.3,7.8-3.9c0.9-0.2,1.8-0.4,2.7-0.4c0.4,0.1,0.7,0.3,0.8,0.6
					c1.2,3,2.4,6.1,3.4,9.2c1.1,3.6,2.2,7.3,3,11c0.8,3.7,1.2,7.5,1.8,11.3c0.1,0.7,0.1,1.4,0.2,2l0,0l-0.2,0.2L86.9,77.1L86.9,77.1
					z M73.2,84.1v0.3c-0.1,1,0.3,1.3,1.2,0.9c1.1-0.6,2.1-1.3,3.1-2.1c0.3-0.2,0.2-0.8,0.3-1.2c-0.4,0-0.8,0-1.2,0.1
					C75.5,82.7,74.4,83.5,73.2,84.1z M34.2,78.5c-0.2,0.1-0.6,0.1-0.7,0.3c-0.2,0.4-0.4,1.1-0.2,1.4c0.3,0.5,0.7,0,1.2-0.2
					c0.6-0.3,1.3-0.3,2-0.1c0.9,0.5,1.8,1,2.6,1.6c-0.1,0.8-0.3,1.5-0.4,2.2c-0.1,1.4-0.5,3,0.7,4.1c0.3,0.3,0.8,0.3,1.3,0.4
					c0.1-0.4,0.1-0.8,0-1.2c-0.6-1.3-0.3-2.5-0.1-3.8c1.1,0.4,1.2,2,2.8,1.4c-0.1-0.5-0.4-1-0.6-1.4c-1.3-1.6-2.9-3-4.6-4.2
					C36.4,77.8,35.2,77.7,34.2,78.5L34.2,78.5z M67.3,54.4c-0.2,0-0.5,0.1-0.5,0c-0.7-1.1-1.4-2.3-2-3.4c-0.2-0.4,0-1.2-0.7-1
					c-0.3,0-0.5,0.6-0.7,1c-0.1,0.3,0,0.7,0.1,1c0.5,1.7,1.4,3.3,2.7,4.6c1,1.1,2.1,2.1,3.1,3.2s1.8,2.1,2.8,3
					c1.3,1.2,2,2.9,1.9,4.6c-0.2,1.4-0.3,2.8-0.6,4.2c-0.1,0.6-0.1,1.2,0.4,1.3c0.5,0,1-0.3,1.3-0.8c0.5-1.2,0.9-2.5,1.1-3.8
					c0.4-1.8,0-3.8-1.1-5.3c-1.7-2.1-3.8-3.8-5.6-5.8C68.7,56.3,68,55.3,67.3,54.4c0.4,0.8,0.9,0.7,1.5,0.1c1-1,2-2,3.1-2.9
					c0.8-0.7,1.9-1.1,2.9-0.9c-0.3,1.6-0.6,3-0.8,4.5c-0.1,0.6,0.2,1.5,1,1.5c0.7,0,1.3-0.3,1.8-0.8c0.9-1.1,1.1-2.5,0.8-3.8
					c-0.1-0.3,0-0.5,0.1-0.8c0.6-0.8,0-1.4-0.5-1.7c-1.1-0.8-2.5-1-3.9-0.7C70.4,49.7,68.8,52,67.3,54.4L67.3,54.4z M63.7,81.1
					l0.2-0.3l-0.5-1.6c-0.4,0.2-0.9,0.2-1.2,0.5c-1.1,1.4-1,3.1-0.8,4.7c0.1,0.3,0.3,0.6,0.5,0.8c0.4,0.1,0.8,0.2,1.2,0.2
					c0-0.4,0-0.7,0-1.1c0-0.3,0-0.5-0.1-0.8c0.1,0,0.3,0,0.4,0c7.5,1.3,12.2-2.8,15.2-8.5c0.1-0.2,0-0.6,0-0.9
					c-0.4,0-0.7,0.1-1.1,0.2c-0.2,0-0.2,0.3-0.4,0.5c-1.6,1.8-2.9,4-5.2,5.1C69.4,81.5,66.4,81.8,63.7,81.1L63.7,81.1z M55.7,59.2
					c0,0.3,0,0.7,0,1c-0.4,1.3-0.2,2.6,0.3,3.8c0.4,1.3,1.3,1.5,2.2,0.5c1.3-1.3,1.1-3.1,1.3-4.7c0.1-1.3-0.9-2.4-2.2-2.5
					c-0.1,0-0.2,0-0.3,0c-0.6,0-1.2,0-1.8,0.1c-4,0.4-7.3,3.4-7.9,7.4c0,0.3,0.3,0.7,0.5,1c0.3-0.2,0.7-0.3,0.9-0.6
					c0.5-0.9,0.9-1.9,1.4-2.8C51.4,60.3,53.3,59.5,55.7,59.2L55.7,59.2z M54,49.7c-0.8,0.1-1.6,0.1-2.2,0.3c-3.1,0.6-5.1,2.7-7,5
					c-0.7,0.9-1.3,1.9-1.7,3c-0.2,0.4,0.1,0.9,0.2,1.4c0.4-0.2,0.7-0.5,1.1-0.7c0.3-0.3,0.5-0.8,0.9-1c2.6-2.2,5.4-4.2,8.4-5.8
					c0.6-0.1,1.1-0.2,1.7-0.2c0.4-0.1,0.7-0.2,1.1-0.4c-0.2-0.4-0.3-1-0.6-1.1C55.2,49.8,54.6,49.7,54,49.7L54,49.7z"/>
				<path class="st3" d="M163.9,33.9c1.4,0.8,2.7,1.7,4.1,2.4c1,0.5,2,0.9,3,1.4c0.3,0.2,0.6,0.6,0.7,1c0.9,3.3,1,6.7,0.4,10.1
					c0,0.4,0,0.8,0,1.2c0,1,0.4,1.3,1.7,1.1c-0.1,2.4-0.2,4.7-0.5,7c-0.4,3.5-0.8,6.9-1.3,10.4c-0.2,2.1-0.6,4.2-1.1,6.3
					c-1,4.3-3.2,8.2-6.4,11.4c-4.5,4.2-9.5,4-14.9,2.5c-2.4-0.6-4.6-1.8-6.5-3.5c-1.8-1.6-3.3-3.5-4.7-5.4c-2.1-3-3.8-6.3-4.8-9.8
					c-1-3.5-1.9-6.9-2.9-10.6c0.4,0.3,0.7,0.5,1.1,0.7c0.3,0.1,0.6,0.1,0.8-0.1c0.2-0.2,0.2-0.5,0.2-0.8c-0.2-1.4-0.6-2.9-0.8-4.3
					c-0.2-1.5-0.2-3-0.2-4.5c0-0.7,0.2-1.4,0.5-2c2.8-4.5,4.1-9.8,3.6-15.1c1,1.7,2.4,3.1,4.1,4c2.1,1.2,4.3,2.1,6.8,1.8
					c0.4-0.1,0.8-0.5,1.3-0.8c-0.3-0.3-0.6-0.8-1-0.9c-3.1-1.2-5.9-5.3-5.9-8.6c0-0.5,0.1-1,0.2-1.5c0.9,1.6,1.7,3.1,2.5,4.4
					c0.7,1.1,1.6,2.2,2.4,3.2c2.1,2.5,5,3.1,8.1,2.8c0.8-0.1,1.6,0,2.4-0.1c0.3,0,0.9-0.2,0.9-0.3c0-0.4-0.1-0.8-0.3-1.1
					c-0.9-1.2-2-2.3-2.9-3.6c-0.6-1-1-1.9-1.4-3l0,0c1.5,1.7,3.1,3.3,4.7,4.9c2.6,2.1,5.4,4.1,9.1,3.3c0.3-0.1,0.7-0.2,1-0.4
					L163.9,33.9L163.9,33.9z M161.9,64C161.9,64,161.9,64.1,161.9,64c0,0.2,0,0.2,0,0.3l0.3,1.5c-0.1,0.2-0.4,0.4-0.6,0.7
					c-1.3,1.5-2.5,3-3.9,4.4c-2.7,2.7-5.9,3.6-9.5,1.9c-0.6-0.3-1.2-0.5-1.8-0.5c-0.4,0-0.8,0.2-1,0.5c-0.1,0.1,0.2,0.7,0.4,0.9
					c0.5,0.3,1,0.6,1.5,0.9c2.9,1.6,6.4,1.6,9.3,0c2.6-1.5,4.7-3.6,6.1-6.2c0.1-0.2,0.3-0.4,0.5-0.7c0.7,0.5,0.7,1.7,2,1.3
					c0-1.6-0.7-3.2-1.8-4.4C163.1,64.2,162.4,64.2,161.9,64L161.9,64z M153.8,50.1l-0.2-0.1c-0.1-1-0.2-2.1-0.5-3.1
					c-0.1-0.6-0.6-1.2-1.4-1s-0.6,0.8-0.4,1.3c0.5,1.8,0.4,3.7-0.2,5.5c-0.5,2.2-1.2,4.3-1.9,6.4c-0.6,1.6-0.6,3.3-0.1,4.9
					c0.8,1.8,2.5,3,4.4,3.2c1,0.1,1.7-0.1,1.9-0.9c0.2-0.8-0.5-1.1-1.3-1.2c-1.2-0.2-3.3-1.9-3-3.5c0.2-1.3,0.5-2.6,0.8-3.9
					C152.6,55.3,153.2,52.7,153.8,50.1L153.8,50.1z M164,48.3l0.2-0.3c0.9,0.2,1.9,0.6,2.7,1.1c0.6,0.7,1.7,0.9,2.5,0.3
					c0.9-0.6,1.6-1.3,2.3-2.1c0.1-0.1-0.1-0.6-0.2-1c-0.3,0-0.6,0.1-0.9,0.3c-0.6,0.5-1.1,1-1.6,1.5l-0.3-0.3
					c0.4-0.6,0.9-1.2,1.2-1.9c0.1-0.3,0-0.7,0-1.1c-0.3,0.1-0.7,0.1-1,0.3c-0.6,0.6-1.1,1.2-1.6,1.7c-1.1-0.2-2.2-0.5-3.2-0.7
					c-2.5-0.6-5.2,0.1-7.1,1.9c-0.2,0.3-0.4,0.7-0.5,1.1c0.4,0.1,0.9,0.1,1.3,0c1.1-0.4,2.2-0.9,3.6-1.4c-0.2,0.6-0.2,0.8-0.3,1
					c-0.4,1.1-0.2,2.3,0.4,3.4c0.3,0.7,1.2,1,1.9,0.7c0.4-0.2,0.6-0.5,0.8-0.8C164.5,50.8,164.5,49.5,164,48.3z M144.1,50.5
					c0.6,0.2,1.3,0.3,1.9,0.4c0.5-0.1,1-0.2,1.4-0.4c-0.3-0.4-0.5-1-0.9-1.2c-2.1-0.9-4.4-0.9-6.4,0.1c-0.9,0.5-1.8,1-2.7,1.5
					l-2-0.2l0.6,2c-0.3,0-0.7-0.1-1.1-0.1s-0.6,0-0.9,0c0,0.3-0.1,0.7,0.1,0.9c0.3,0.4,0.7,0.6,1.2,0.8c1.2,0.2,2.3-0.3,3-1.2
					c0.6-0.9,1.6-1.5,2.6-1.7c0,0.9-0.1,1.7,0,2.5c0.1,1.1,1.2,2.2,2.1,2c1.1-0.1,1.9-1,1.8-2.1c0,0,0-0.1,0-0.1
					C144.5,52.6,144.3,51.7,144.1,50.5L144.1,50.5z M162.8,38.9l-0.1,0.2c-1,0.1-1.9,0.2-2.9,0.4c-1.6,0.3-3.1,1.1-4.2,2.3
					c-0.2,0.3-0.1,0.8-0.2,1.3c0.4,0,0.8,0,1.2-0.1c0.7-0.3,1.4-0.8,2.1-1c3.1-1,6.4-0.8,9.3,0.5c0.4,0.1,0.9,0.1,1.4,0
					c-0.1-0.5-0.2-0.9-0.4-1.4c-0.2-0.2-0.4-0.4-0.7-0.5C166.5,40,164.6,39.4,162.8,38.9z M147.8,43.5c0.1,0,0.6-0.2,0.7-0.4
					c0-0.4-0.2-0.8-0.5-1.1c-0.3-0.2-0.6-0.4-1-0.5c-4.5-0.8-9.1,0.9-11.9,4.4c-0.2,0.3-0.1,0.9-0.1,1.4c0.4,0,0.8-0.2,1.2-0.3
					c1.6-0.9,3.1-2,4.7-2.8C142.8,43.2,145.1,43.3,147.8,43.5L147.8,43.5z M154.3,77.2l-0.1-0.3c-0.4,0.2-1,0.4-1,0.7
					c-0.1,0.7,0.5,1.1,1.1,1c0.9-0.1,1.9-0.4,2.7-0.7c0.2-0.1,0.3-0.6,0.5-1c-0.3-0.2-0.6-0.2-1-0.3C155.8,76.8,155,77,154.3,77.2
					L154.3,77.2z"/>
				<path class="st3" d="M232.3,18c0.2,2.1,0.7,3.9,2.5,5.1c0.6,0.4,1.2,0.7,1.9,0.8c0.4,0,0.9-0.5,1.4-0.8c-0.2-0.3-0.4-0.9-0.8-1
					c-2.2-0.5-2.6-2.4-3-4.2c-0.1-0.5-0.1-1.1,0-1.6c0.2-2,2-2.8,3.5-1.7c3.1,2.2,5.7,4.8,6.4,8.8c0,0.4,0.2,0.7,0.5,1
					c0.3,0.3,0.8,0.5,1.3,0.6c0.3,0,0.6-0.6,0.7-1c0.3-0.6,0.4-1.3,0.6-1.9c1.5,1.5,2.8,3.1,4.2,4.4c1.2,1,2.4,2,3.7,2.9
					c0.9,0.5,1.8,1.1,2.6,1.8c0.5,0.5,0.8,1.2,0.8,2c-0.1,1.6,0.1,3.3,0.7,4.9c0.2,0.6,0.5,1.1,1.2,1c0.8-0.1,1-0.5,0.8-1.2
					c0-0.1-0.1-0.2,0-0.2c1.6-1.8,0.9-4.3,1.9-6.3c0.7-1.5,1.7-2.7,3-3.7c2-1.2,4.6-0.5,5.8,1.5c0,0.1,0.1,0.1,0.1,0.2
					c2,4.2,1.6,9.2-1.1,13c-1.6,2.2-3.7,3.9-6.1,5c-0.4,0.1-0.8,0.1-1.2,0c-0.9-0.3-1.2,0.1-1.4,0.9c-0.4,1.7-0.8,3.4-1.3,5
					c-1.7,5.1-4.9,9.6-9.2,12.9c-2.9,2.3-6.4,3.7-10.1,3.8c-3.5,0.1-6.7-1.4-9.6-3.2c-3.7-2.3-6-5.7-7.9-9.5
					c-2.7-5.6-3.9-11.7-4.5-17.9c-0.3-3.1-0.4-6.2-0.6-9.3c0-0.4,0.1-0.9,0.2-1.3c1.6,0.6,3.1,1.3,4.7,0.4c0.6-0.3,1.1-0.8,1.7-1.1
					c0.3-0.1,0.6-0.2,0.9-0.2c1.4,0,2.8,0.1,4.1,0.1c0.6,0,1.1,0,1.7,0c0.4-0.1,1.1-0.2,1.2-0.5c0.1-0.4,0-0.9-0.3-1.3
					C231.5,23.9,231.1,20.8,232.3,18z M222.7,40.2c0.4,1,0.6,1.1,1.4,0.2c1.3-1.6,3.3-2.4,5.3-2.2c0.9,0.1,1.7,0.3,2.6,0.3
					c0.4,0,0.7-0.3,1.1-0.5c-0.2-0.3-0.4-0.7-0.7-0.8c-2.5-0.8-5-1.1-7.4,0.3c-1,0.6-2.1,1.2-2.3,2.4c0,0-0.1,0.1-0.1,0.1
					C222.7,40.1,222.7,40.1,222.7,40.2z M241.4,35.9c0.3,0,0.6,0,0.8-0.1c1.6-1,3.5-1.5,5.5-1.4c1.2,0.1,2.3,0.2,3.5,0.2
					c0.4,0,0.8-0.4,1.1-0.6c-0.4-0.3-0.7-0.7-1.1-0.8c-0.8-0.2-1.6-0.4-2.5-0.4c-2.6-0.2-5.2-0.1-7.4,1.9
					C240.9,35.1,240.9,35.5,241.4,35.9L241.4,35.9L241.4,35.9L241.4,35.9z M251.8,51.8c0-0.2,0-0.5,0-0.7c0.1-2.6-0.4-3-2.9-2.1
					c-4.9,1.9-9.8,3.9-14.7,5.8c-1.7,0.7-2,1.7-0.9,3.1c0.9,1.2,1.9,2.3,3.1,3.2c1.6,1.1,3.4,1.9,5.3,2.5c2.5,0.6,4.4-1,6.1-2.6
					C250.4,58.6,251.8,55.3,251.8,51.8z M237,36.8c-0.3-1.4-0.6-2.6-0.9-3.7c-0.1-0.4-0.3-1.2-1-0.8c-0.2,0.1-0.4,0.8-0.3,1.1
					c0.6,2.3,0.2,4.6-1,6.6c-1.8,3.1-1.7,5.6,1,8.1c0.6,0.6,1.4,1,2.2,1.4c0.2,0.1,0.7-0.2,1-0.3c-0.1-0.4-0.2-0.7-0.4-1.1
					c-0.3-0.4-0.9-0.5-1.2-0.9c-1.9-2-2.1-4.1-0.8-6.6C236.1,39.4,236.6,38.1,237,36.8z M265.7,34.2c1.1-1,2.1-1.8,3-2.6
					c0.2-0.2,0.4-0.8,0.3-0.9c-0.3-0.3-0.7-0.4-1.1-0.4c-0.3,0-0.6,0.1-0.8,0.3c-1.6,1.4-3.3,2.8-4,4.8c-0.3,1-0.4,2.1-0.3,3.2
					c0,0.3,0.6,0.7,1,1c0.2-0.4,0.4-0.8,0.5-1.2c0.2-1.4,1-2,2-1.4c0.4,0.4,0.8,0.8,1,1.3c0.3,0.5,0.5,1,1,1.8c0.5-0.6,0.9-1,1-1.4
					C269.5,36.4,267.8,35.4,265.7,34.2L265.7,34.2z M247,27c-3.1,0-6,1.5-7.9,4c-0.2,0.2-0.1,0.7-0.1,1c0.3,0,0.7,0,1,0
					c0.2,0,0.3-0.2,0.5-0.3c2.7-1.8,5.9-2.7,9.1-2.5c0.3,0,0.7-0.3,1-0.5c-0.2-0.3-0.4-0.7-0.7-0.8C249,27.5,247.8,27.2,247,27z
					 M221.5,35.2c2.5-1.9,5.8-2.4,8.8-1.4c0.5,0.2,1.1,0.2,1.7,0.1c0.3-0.1,0.6-0.3,0.7-0.6c0.1-0.1-0.2-0.5-0.4-0.6
					c-0.9-0.7-1.9-1.3-3.1-1.5c-2.7-0.6-5.1,0.4-7.4,1.6C220.8,33.4,220.8,34.3,221.5,35.2L221.5,35.2z M228.6,40.4
					c-0.1-0.1-0.3-0.5-0.4-0.4c-0.8,0.3-1.6,0.6-2.3,1c0,0.3,0,0.5,0.2,0.7C226.6,42.2,228.6,41.2,228.6,40.4L228.6,40.4z
					 M245.1,36.1L244,37c0.4,0.3,0.8,0.8,1.2,0.8s1.3,0.3,1.4-0.7C246.7,36.2,245.8,36.6,245.1,36.1L245.1,36.1z"/>
				<path class="st3" d="M292.6,54.3c0,0.3,0,0.7,0,1c0.1,0.3,0.3,0.5,0.6,0.7c0.1,0.1,0.4-0.2,0.7-0.3c1.1-0.7,2.3-1.3,3.5-1.8
					c2.2-0.7,4.5-1.1,6.7-1.6c1-0.2,2-1.6,1.7-2.5c-0.1-0.3-0.6-0.6-1.1-1c0.3-1.8,0.6-3.5,1.1-5.2c0.7-1.7,1.5-3.3,2.3-4.9l0.3,0.1
					c-0.1,1.3-0.2,2.6-0.2,3.9c-0.2,2,0.2,4,1.1,5.8c0.5,0.8,1.2,1.4,2,1.9c0.4,0.3,0.9-0.3,0.8-0.9c-1.3-4.6-0.2-9.1,0.8-13.5
					c0.2-0.9,0.2-2,1.4-2.2c1.1,5.8,3.2,11,8.4,14.2c-1.5,0.2-3,0.4-4.5,0.6c-0.8,0.1-1.5,0.2-1.6,1.5c-0.1,1.6-0.3,1.4,1.4,1.7
					c3.2,0.4,6.4,1,9.5,1.4c1.3,0.1,2.6,0.2,3.9,0.1c0.2,0,0.4-0.3,0.6-0.5c1.3,0.6,2.2,1.8,2.5,3.2c0.3,1,0.8,2.1,1.4,3
					c0.6,0.8,0.8,1.7,0.6,2.7c-0.1,0.3-0.1,0.7,0,1c0.1,0.3,0.5,0.7,0.8,0.7c0.4,0,0.7-0.3,0.9-0.6c0.3-0.8,0.7-1.6,1.1-2.3
					c2.1-2.7,5.9-3.8,8.7-0.6c1.3,1.6,1.7,3.8,1.1,5.8c-0.5,2.7-1.9,5.1-4,6.8c-0.6-0.5-1.3-0.9-2-1.2c-0.4-0.1-0.9,0.1-1.3,0.2
					c0,0.4,0.2,0.7,0.3,1.1c0.4,0.6,0.8,1.2,0,2c-0.3-0.6-0.5-1.2-0.8-1.7c-0.3-0.5-0.6-1.2-1.3-0.8c-0.3,0.1-0.2,0.9-0.2,1.4
					c0.1,0.6,0.3,1.3,0.5,1.9l-3.7,0.5c0.4-0.9,0.6-1.6,0.9-2.3c0.2-0.4,0.4-0.8,0.5-1.3c0-0.3-0.2-0.6-0.5-0.8
					c-0.1-0.1-0.6,0.1-0.7,0.4c-0.7,1.3-1.4,2.6-2.1,3.8c-1.6,2.6-3.5,4.9-5.7,6.9c-2.1,2.2-4.6,4-7.3,5.3c-2.4,1.1-4.9,1.9-7.5,2.3
					c-5.3,0.6-10-1.3-14.1-4.4c-2-1.7-3.5-3.8-4.5-6.1c-1.7-3.6-2.9-7.4-3.5-11.4c-1.1-4.5-0.9-9.3,0.4-13.8
					C292.4,54.5,292.6,54.4,292.6,54.3L292.6,54.3z M299,63.3L299,63.3c-0.8-0.3-1.2,0.1-1.3,0.8c0,0.3,0.5,0.8,0.6,0.8
					c0.5-0.1,0.9-0.6,0.8-1.2c0-0.1,0-0.2-0.1-0.3C299.1,63.4,299,63.3,299,63.3L299,63.3z M304.7,75.2v-0.1c-0.4,0-0.8,0-1.2,0
					c-0.2,0-0.6,0.3-0.6,0.5c0,0.3,0.1,0.6,0.3,0.8c0.4,0.5,0.8,0.9,1.2,1.4c0.4,0.5,0.7,1.2,1.1,1.8c1.4,1.9,3.1,3.6,5,5
					c2.3,1.9,3.8,2.1,5.9,1c1.8-0.9,3.2-2.3,4-4.1c1.1-2.6,2.9-5,2.5-8.1c0-0.4,0-1.1-0.2-1.2c-0.4-0.1-0.9-0.1-1.3,0.1
					c-1.2,0.4-2.4,0.8-3.5,1.3c-2,0.9-4.2,1.4-6.4,1.5C309.3,75.3,307,75.2,304.7,75.2L304.7,75.2z M320.6,58.4
					c-0.1,1.2-0.1,2.5,0.1,3.7c0,1,0.8,1.7,1.8,1.8c1.1,0.1,2.1-0.8,2.3-1.9c0.1-1,0.1-1.9,0-2.9c0.6,0.2,1.2,0.4,1.8,0.6
					c0.4,0,0.9,0,1.3-0.1c-0.2-0.4-0.3-1-0.7-1.2c-2-1.1-4-2.2-6.4-1.8c-0.5,0-1.1-0.2-1.5-0.5c-0.5-0.4-0.8-1.4-1.6-0.8
					s0,1.3,0.4,1.9c0,0,0,0.1,0,0.3c-0.6,0.4-1.5,0.1-1.8-0.5c-0.2-0.2-0.6-0.5-0.8-0.4c-0.3,0.1-0.5,0.4-0.6,0.7
					c0,0.4,0.1,1.1,0.4,1.3c0.9,0.6,1.8,1.4,3,0.6C319,58.9,319.8,58.6,320.6,58.4L320.6,58.4z M304,60c0.4,0.1,0.7,0.3,1,0.3
					c0.4-0.1,0.9-0.3,1.3-0.5c-0.2-0.9-0.9-1.5-1.8-1.6c-1.9-0.6-3.7-1.6-5.7-0.9c-0.6,0.3-1.3,0.1-1.6-0.5c0,0,0,0,0,0
					c-0.2-0.3-0.8-0.3-1.1-0.4c-0.1,0.4-0.1,0.7-0.1,1.1c0,0.4,0,0.8,0.1,1.4c-0.3-0.1-0.5-0.3-0.8-0.5c-0.4-0.4-0.8-0.9-1.3-0.3
					s-0.1,1.2,0.4,1.6c0.9,0.7,2,0.7,2.9,0.1c0.8-0.4,1.7-0.6,2.6-1c0.2,1.2,0.3,2.2,0.5,3.2c0.2,0.9,1.1,1.6,2,1.4c0,0,0,0,0,0
					c0.9,0,1.3-0.7,1.5-1.5C303.9,61.3,304,60.6,304,60z M310.2,58.2c-0.3,0.4-0.7,0.7-0.9,1.1c-0.5,1.7-0.8,3.4-1.3,5
					c-1,3.3-0.4,5.2,2.3,6.8c0.6,0.4,1.2,0.4,1.6-0.2c0.4-0.6,0-1-0.5-1.3c-1.3-0.8-1.9-2.4-1.5-3.9c0.4-1.4,0.6-2.9,0.9-4.4
					C311,60.3,311.4,59.3,310.2,58.2L310.2,58.2z M341.4,65.1c0.5-0.6,1.1-1.1,1.7-1.5c1-0.5,2.2-0.8,3.2-1.3
					c0.2-0.1,0.6-0.4,0.6-0.6s-0.3-0.5-0.6-0.6c-0.3-0.1-0.6-0.1-0.9-0.1c-1,0.3-2,0.6-3,1c-2.4,1.2-3.7,3.8-3.4,6.4
					c0.3,0,0.7,0.2,0.8,0.1c0.4-0.6,0.7-1.2,1-1.8c0.7,0.6,1.1,1.4,1.1,2.3c0.1,0.5,0.1,1.3,0.9,1.2c0.3-0.1,0.6-0.9,0.6-1.4
					C343.6,67.2,342.8,65.8,341.4,65.1L341.4,65.1z M294.9,63.9c1.5,0.8,2-0.2,2.6-0.7c0.2-0.1,0.2-0.6,0.3-0.9
					c-0.4,0-0.9-0.3-1.1-0.1C296.1,62.8,295.5,63.3,294.9,63.9L294.9,63.9z M318.1,64.9l0.4-0.1c0.1-0.5,0.3-1.1,0.4-1.6
					c0,0-0.6-0.3-0.7-0.2c-0.4,0.3-0.6,0.7-0.8,1.1C317.3,64.3,317.8,64.6,318.1,64.9L318.1,64.9z M320.1,62.6
					c-0.4,0.6-0.7,0.9-0.7,1.1s0.4,0.6,0.6,1c0.2-0.3,0.6-0.5,0.7-0.8C320.7,63.5,320.5,63.2,320.1,62.6L320.1,62.6z"/>
				<path class="st3" d="M135.2,31.9c-0.9,0-1.1,0.5-1,1.3c0.6,4-0.1,8-1.8,11.6c-0.7,1.3-1.4,2.6-2.2,3.8c-0.4,0.7-0.8,1.2-0.1,2.1
					c0.4,0.5,0.1,1.6,0.1,2.4c0.1,1.1,0.1,2.3,0.2,3.4l-0.4,0.1c-0.3-0.5-0.6-0.9-0.8-1.4c-0.7-1.7-2.2-2.9-4-3.2
					c-0.6,0-1.2,0-1.8,0.1c-1.5-1.6-1.6-3.6-1.8-5.5c-0.3-3.8-0.1-7.6,0.6-11.4c0.6-3,2.2-5.3,3.8-7.7s3.9-4,6-5.7
					c0.3-0.2,0.7-0.3,1.1-0.2c0.7,0.3,0.9,0,1.3-0.5c0.4-0.6,0.8-1.2,1.4-1.7c2.8-1.8,5.9-3.1,9.2-3.8c2.3-0.6,4.7-0.9,7.2-1.1
					c3.9-0.3,7.8,0,11.6,1c2.8,0.9,5.6,1.6,8,3.4c2.5,2,4.2,4.6,6,7.2c1.5,2.3,2.6,4.9,3.2,7.6c0.9,3.6,1.3,7.3,1.1,11
					c-1-0.3-2.1-0.4-3.1-0.4c-1,0.2-2,0.6-3,1.1c0.1-0.7,0.2-1.5,0.2-2.3c0-0.5,0.1-1.2-0.6-1.3c-0.7,0-1,0.6-0.9,1.2
					c0,0.1-0.1,0.3-0.1,0.4c-0.2-0.9-0.4-1.6-0.5-2.4l-0.5-2.4c0.3,0,0.6-0.1,0.9-0.2c0.6-0.1,1.1-0.7,1-1.3c0-0.2-0.1-0.4-0.2-0.5
					c-1.7-2.6-3.5-5.3-5.1-7.9c-0.3-0.5-0.4-1.1-1.2-0.7c-0.8,0.3-0.6,0.9-0.2,1.5c1.4,2.3,2.7,4.5,4.1,6.8l-0.1,0.1
					c-1.3-0.6-2.6-1.2-3.9-2c-3.5-2-6.5-4.7-8.9-7.9c-0.4-0.5-0.8-1-1.6-0.6c-0.1,0-0.3-0.1-0.4-0.1l-1.1-0.1c0,0.4-0.1,1,0.1,1.3
					c1,1.6,1.9,3.2,3,4.8c1.1,1.5,2.1,2.7,3.3,4.2c-2.9-1.5-5.4-3.6-7.3-6.2c-1.3-1.6-2.5-3.2-3.8-4.8c-0.3-0.3-0.5-0.7-0.5-1.1
					c-0.2-1-0.9-0.9-1.5-0.8s-0.7,0.8-0.6,1.3c0.6,2.4,1.4,4.7,2.3,6.9c0.8,1.6,1.8,3.2,2.8,4.7c-1.3,0.1-2.7-0.1-3.9-0.6
					c-2.4-1-3.8-3-5.2-5c-1-1.4-1.7-3-2.6-4.5c-0.3-0.5-0.7-1-1.2-1.4c-0.7-0.5-1.1,0-1.6,0.5c-1.4,1.6-1.2,3.3-0.8,5.2
					c0.5,2.2,1.6,4.2,3.2,5.8c0.1,0.1,0,0.2,0,0.4c-2.6-1.1-4.7-3.2-5.8-5.8c-0.1-0.4-0.6-0.6-0.9-1c-0.2,0.4-0.4,0.8-0.5,1.2
					c0,0.2,0,0.4,0,0.6L135.2,31.9z"/>
				<path class="st3" d="M106.8,113.8c1.1,0.8,2,2,2.4,3.3c2.1,5,3.1,10.1,4.3,15.3c0.3,1.2,0.6,2.4,1,3.5c0.2,0.5,0.7,0.7,1.2,0.5
					c0.4-0.1,0.6-0.5,0.6-0.9c0.1-1.8,0.1-3.5,0.1-5.3c-0.1-5.2-0.2-10.4-0.3-15.6l0.6-0.1c0.6,1.7,1.1,3.4,1.4,5.1
					c0.6,4.5,0.9,9.1,1.3,13.6c0.1,1.1,0.3,2.1,0.8,3.1c0.6,1.1,0.6,2.6,0.9,3.9c0.4,1.3,0.8,2.7,1.3,4c0.3,0.8,0.8,0.9,1.6,0.6
					c2-0.9,3.8-2.3,5.1-4c1.3-1.3,2.4-2.8,3.7-4.1c0.6-0.6,1.2-1,1.9-1.3c0.8-0.3,1.3,0.1,1,1c-0.3,1.1-0.8,2.2-1.4,3.2
					c-2.4,3.9-4.9,7.7-7.2,11.6c-1.2,2-2.1,4-2.9,6.2c-0.3,1.2-0.4,2.4-0.4,3.7c-0.2,3.3-0.3,6.5-0.6,9.8c-0.1,0.5-0.4,0.9-0.9,1.1
					c-2.6,1.3-5.5,1.9-8.5,1.7c-2.6,0.1-5.1-0.3-7.6-1.1c-0.2-3.2-0.4-6.2-0.8-9.3c-0.2-1.5-1.1-2.9-1.6-4.4
					c-0.9-3.1-1.6-6.3-2.6-9.5c-0.7-2.3-1.5-4.6-2.2-6.9c-1-3.2-2.1-6.3-3.1-9.5c-0.1-0.5-0.1-1-0.1-1.4c2.1,0.6,3,2.1,3.8,3.7
					c0.8,1.6,1.3,3,2,4.5c0.1,0.3,0.4,0.6,0.7,0.8c0.3,0.1,0.7,0.1,1,0c0.2-0.1,0.2-0.6,0.2-0.9c-0.7-2.7-1.6-5.4-2.2-8.1
					c-0.6-2.2-0.9-4.4-1.4-6.7c0-0.5,0-1,0.1-1.6c1.4,1,2.6,2.3,3.4,3.9c1.3,2.7,2.2,5.4,3.4,8.2c0.3,0.7,0.6,1.3,0.9,1.9
					c0.2,0.5,0.8,0.8,1.4,0.6c0.1,0,0.1-0.1,0.2-0.1c0.4-0.4,0.6-0.9,0.5-1.5c-0.4-2-1-4-1.4-6c-0.6-3.1-1.1-6.3-1.6-9.4
					c-0.2-1.4-0.5-2.9-0.6-4.3c-0.1-1,0-1.9,0-2.9L106.8,113.8z M116.1,156.8c0.3-4-0.7-8.1-2.6-11.6c-0.2-0.4-0.5-0.8-0.9-1
					c-0.5-0.3-1-0.2-1,0.6c0.1,0.4,0.2,0.8,0.4,1.2c0.6,1.4,1.2,2.8,1.6,4.3c0.8,3.6,0.9,7.3,0.3,11c-0.1,0.6-0.3,1.3,0.4,1.5
					c0.7,0.2,1-0.6,1.2-1.2c0.1-0.2,0.1-0.5,0.2-0.7C115.8,159.4,116,158.1,116.1,156.8z"/>
				<path class="st3" d="M378.3,116.2c-1,1.5-2.1,2.9-3.2,4.2c-3,3.2-5.7,6.7-7.9,10.4c-1.6,2.7-2.5,5.7-2.7,8.8
					c0.9,0.2,0.9,0.7,0.8,1.7c-0.2,2.6-0.1,5.3-0.1,7.9c0,3.3-0.1,6.6-0.2,9.9c-0.1,2-0.3,4-0.5,6.1c-0.2,1.6-0.5,3.2-0.8,4.8
					l-0.4,0.1c-0.2-0.3-0.5-0.7-0.5-1c0.3-2.4,0.7-4.8,0.9-7.2c0.2-3.3,0.4-6.6,0.4-9.9c0-2.6-0.1-5.2-0.1-7.8
					c0-1.1,0.1-2.2,0.4-3.2c0.2-1.1,0.1-1.3-1-1c-1.8,0.4-3.6,1-5.5,1.3c-2.2,0.3-4.5,0-6.5-1c-0.4-0.2-0.7-0.6-0.8-1.1
					c-0.1-1.7-0.1-3.5-0.1-5.2c0-0.3-0.1-0.6-0.3-0.9c-0.8-1.4-1-3.1-0.7-4.7c0.2-1.5,0.3-3,0.1-4.6c-0.2-3.3-0.3-6.6,0.8-9.7
					c0.2-0.5,0.4-0.9,0.6-1.3h0.3c0.3,1,0.5,2.1,0.6,3.1c0,1.5,0,3-0.2,4.4c-0.1,0.7-0.4,1.6,0.5,1.8c0.9,0.1,1.7-0.4,2-1.2
					c0.8-1.7,1.5-3.4,2.3-5.1c0.9-1.9,1.9-3.8,2.8-5.8c0.6-1.4,1.1-2.8,1.8-4.2c0.6-1,1.3-2,2.1-3l0.3,0.2c-0.4,1.6-0.7,3.2-1.1,4.8
					c-0.9,3.1-2,6.2-2.9,9.4c-0.1,0.3,0.1,0.8,0.2,1.1c0.3-0.1,0.8-0.1,1-0.3c0.8-0.9,1.5-1.9,2-3c1.6-2.9,2.9-5.8,4.5-8.7
					c1-1.6,2.2-3.2,3.4-4.7l0.4,0.2c-0.4,1.1-0.7,2.2-1.2,3.3c-1.1,2.8-2.1,5.6-3.3,8.3c-0.6,1.4-1.4,2.7-2.1,4.1
					c-0.3,0.5-0.7,1.2,0.1,1.5c0.4,0.1,1.1-0.3,1.4-0.6c2.7-3.3,5.4-6.7,8.1-10.1c0.6-0.6,1.2-1.1,1.8-1.5l0.4,0.3
					c-0.8,1.3-1.4,2.8-2.3,4c-1.7,2.4-3.5,4.7-5.3,7.1c-0.7,0.9-1.2,1.9-1.7,2.9c-0.1,0.5-0.1,1.1,0,1.6l0.3,0.2
					c0.4-0.3,0.9-0.6,1.3-0.9c2.8-2.3,5.4-4.7,8.9-6c0.2-0.1,0.4-0.1,0.6-0.2L378.3,116.2z M354.9,132.9l1,1.1
					c0.3-0.3,0.7-0.5,0.7-0.8c0.4-3.2,1.9-6.1,4.1-8.5c0.2-0.3,0.3-0.6,0.2-1c-0.3-0.3-0.6-0.4-1-0.3c-0.3,0-0.6,0.3-0.8,0.5
					c-1.9,1.6-2.7,3.9-3.5,6.1C355.4,130.9,355.2,131.8,354.9,132.9L354.9,132.9z"/>
				<path class="st3" d="M49.3,113c1.5-6.7,2.3-13.1,1.5-19.9c4,2.7,7.8,5.3,12.4,6.4s9.2,0.4,13.8-0.5c-0.9,4.8-1.1,9.8-0.6,14.7
					c0,0.1,0,0.3,0,0.4c0.1,0.6,0.5,1.4,0.3,1.6c-0.6,0.5-1.4,0.9-2.2,1c-2.8,0.3-5.7,0.4-8.5,0.3c-2.9-0.2-5.8-0.6-8.6-1.2
					c-1.6-0.4-3.2-0.9-4.8-1.5C51.5,113.8,50.3,113.3,49.3,113z"/>
				<path class="st3" d="M165.3,89.2c0,6.3,0.8,12.6,2.2,18.7c-7.4,4.1-15.1,4.2-23,2c0.5-3.5,1-6.8,1.4-10.2
					c0.4-3.5,0.1-6.9-0.8-10.3C151.9,92.5,158.5,93.6,165.3,89.2z"/>
				<path class="st3" d="M258.7,63.3l0.1,3.1c0,3.8,0.4,7.6,1.2,11.3c0,0.5-0.1,0.9-0.5,1.2c-1.7,1.4-3.5,2.8-5.3,4.1
					c-0.6,0.4-1.2,0.7-1.9,1c-1.6,0.5-2.7,1.9-2.9,3.5c-0.4,2.3-0.6,4.7-0.7,7c0,1.2-0.5,1.7-1.6,1.9c-0.3,0-0.6,0.1-1,0.2
					c-0.2-3-0.5-6-0.8-8.9c0-1.6-1.1-2.9-2.7-3.2c-1-0.3-2-0.8-3-1.3c-0.8-0.3-1.3-1.3-0.9-2.1c0-0.1,0.1-0.2,0.2-0.3
					c1-2,1.5-4.3,1.3-6.5c0-0.5,0-1,0-1.4c1.5-0.1,3.1-0.2,4.6-0.5c3.4-0.7,6.5-2.2,9.1-4.4C255.5,66.5,257.1,64.9,258.7,63.3
					L258.7,63.3z"/>
				<path class="st3" d="M238,77.3c0,0.3-0.1,0.7-0.2,1c-1,1.4-0.6,3-0.8,4.4c0.1,0.5,0.3,0.9,0.7,1.1c1.5,0.8,3.1,1.5,4.6,2.3
					c0.4,0.2,1,0.6,1.1,1c0.2,1.1,0.3,2.3,0.2,3.4c-0.2,2.2,0.2,4.5,1.1,6.5l-1.3,2c1.4,0.9,1.4,0.9,2.4-0.4
					c-0.1,9.1-0.3,18.2-0.4,27.4c-1.2,0.4-1.9-0.2-2.1-1.3c-0.9-3.6-1.8-7.2-2.7-10.9c-0.8-3.7-1.6-7-2.3-10.6
					c-0.5-2.6-1-5.3-1.4-7.9c-0.1-1-0.1-2,0-2.9c1.3-1.3,3.1-2.1,4.9-2.2c0.4,0,0.7-0.3,0.8-0.6c0-0.4-0.1-0.7-0.4-0.9
					c-0.8-0.5-1.8-0.5-2.6-0.1c-2.8,1-4.8,3-6.6,5.2c-0.9,1-1.6,2-2.6,3.2c0.3-3,0.9-5.9,1.9-8.7c0.3-1.1,0.2-2.3,0.6-3.4
					c0.6-1.8,1.2-3.6,2-5.3C235.5,78.4,236.7,77.6,238,77.3z"/>
				<path class="st3" d="M261.5,75.8c-0.1-0.4-0.1-1-0.2-1.7c0.7-0.3,1.3-0.5,2-0.8c1-0.4,1.5-0.2,1.7,0.9c0.3,2.1,0.5,4.2,0.8,6.2
					c0,0.5,0.1,1,0.3,1.5c1,3-1,4.9-2.7,6.7c-1.1,1.1-2.4,2.2-3.6,3.2c-0.3-1.7-0.6-3.5-1.1-5.2c-0.3-0.7-0.9-1.3-1.7-1.6
					c-0.5-0.2-1.3,0.3-1.9,0.7c-0.3,0.2-0.2,0.9-0.3,1.3c0.4,0,0.8,0.1,1.2,0.1c0.2,0,0.3-0.1,0.7-0.3c-0.3,1.4-0.7,2.6-0.9,3.8
					c-0.7,3.2-1.4,6.4-2,9.6c-1.2,5.7-2.2,11.5-3.4,17.2c-0.7,2.5-1.5,5-2.5,7.4l-0.3-0.1c0-1.2,0-2.4,0-3.6c0-1.7,0.1-3.5,0.1-5.2
					c0-5.8,0-11.6,0-17.4c0-0.6,0.5-1.1,1.2-1.1c0.1,0,0.2,0,0.3,0.1c1,0.2,1.4-0.1,1.4-1.2c0.2-2.8,0.4-5.6,0.7-8.4
					c0.2-1.9,1.4-2.8,3.1-3.2c0.5-0.1,0.9-0.4,1.3-0.7c1.8-1.3,3.6-2.7,5.3-4.2c0.8-0.9,1.4-2,1.9-3.2c0.2-0.3,0-0.8,0-1.2
					L261.5,75.8z M252,105.5c-0.1-0.5-0.3-0.9-0.4-1.4c-0.4-0.8-1.4-0.9-1.7-0.1c-0.3,1-0.5,2-0.5,3c0,0.4,0.3,0.7,0.6,0.8
					c0.4,0,0.8-0.1,1.1-0.4C251.5,106.8,251.8,106.2,252,105.5L252,105.5z"/>
				<path class="st3" d="M314.2,102.7c0.7-3.3,0.6-6.7-0.4-9.9c6.9-0.8,13.2-4.3,17.7-9.6c-0.1,5,0.4,9.8,2.8,14.2
					C327.6,102.3,320.3,104.3,314.2,102.7z"/>
				<path class="st3" d="M188.6,171.1c0.1,0.6,0.2,1.2,0.3,1.8c0.2,2.1,0.4,4.2,0.5,6.2c0.1,0.8-0.5,1.2-1.2,1.3
					c-2.3,0.2-4.6,0.4-6.9,0.5s-4.7,0.3-7.3,0.5c-1.4-7.2-1.1-14.6-1.3-22.3c1.6-0.2,3.2-0.4,4.8-0.6c0.2,0,0.3,0.1,0.5,0.2
					c1.9,1.3,3.7,0.7,5.5-0.1c0.4-0.2,0.8-0.2,1.2-0.1c0.7,0.2,1.4,0.5,2.1,0.8c1.2,0.3,2.1,1.4,2,2.7c0,3,0,5.9,0,8.8
					C188.7,170.9,188.7,171,188.6,171.1L188.6,171.1L188.6,171.1z M181.9,168.6L181.9,168.6c0.8,0,1.6,0,2.4,0c2,0,2.9-1.1,2.6-3.1
					c-0.1-1.1-0.2-2.3-0.2-3.4c0-0.9-0.3-1.6-1.3-1.6c-2.7,0-5.4,0-8.1,0.1c-1,0.2-1.8,1.1-1.7,2.1c0.1,1.6,0.2,3.2,0.4,4.8
					c0,0.3,0.6,0.7,0.9,0.7C178.6,168.5,180.2,168.5,181.9,168.6z M176.2,170.2c-0.4,1.3,0.1,1.7,1,1.7c1,0,2,0,3,0
					c1.7,0,3.3-0.1,5-0.2c0.4,0,0.7-0.5,1-0.8c-0.4-0.3-0.7-0.8-1.1-0.8C182.2,170.1,179.2,170.2,176.2,170.2L176.2,170.2z
					 M181.9,176.2v0.2c0.5,0.1,1,0.1,1.5,0c0.4-0.1,0.6-0.5,1-0.8c-0.3-0.3-0.5-0.8-0.8-0.8c-2.1-0.2-4.3-0.3-6.4-0.4
					c-0.7,0-1.2,0.3-1,0.9c0.2,0.5,0.7,0.8,1.2,0.9C178.8,176.3,180.4,176.2,181.9,176.2L181.9,176.2z"/>
				
					<pattern  id="SVGID_00000062877407419727001160000012697165548439607458_" xlink:href="#VT_Halftone_5" patternTransform="matrix(1 0 0 -0.9919 -103.08 -15962.6982)">
				</pattern>
				<path style="fill:url(#SVGID_00000062877407419727001160000012697165548439607458_);" d="M46.4,111.5c0.9,1.2,1.8,2.4,2.9,3.6
					c0.5,0.5,1.2,0.9,1.9,1c3.6,1,7.3,1.9,11,2.9c0.5,0.2,1,0.5,1.4,0.8l-0.2,1.6l0,0l-2.6,8.9c-2.1-0.5-4-2-6-3.3
					c-1.7-1.1-3.3-2.2-4.8-3.5c-1.6-1.3-3.1-2.7-4.5-4.1c-0.1-0.2-0.1-0.4-0.1-0.6c0.3-1-0.3-1.1-1.4-1c0.7-1.9,1.4-3.7,2.1-5.4
					C46.2,112.1,46.3,111.8,46.4,111.5L46.4,111.5z"/>
				<path class="st4" d="M140.9,117.6c0.6-1.9,1.3-3.8,2-5.6c0.2-0.3,0.6-0.5,1-0.5c2.5,0.5,4.9,1.2,7.4,1.6c1.6,0.1,3.2,0.2,4.8,0
					c-0.7,2.6-1.3,4.9-1.9,7.3c-0.3,1-0.5,2.1-0.7,3.1c-0.3,1.3-1,1.7-2.1,1.1C147.6,122.9,144.1,120.5,140.9,117.6z"/>
				<path class="st4" d="M169.7,109.9l3,5.5l-8,7.5c-0.6,0.5-1,0.5-1.4-0.2c-0.7-1.1-1.4-2.2-2-3.3c-1.1-2-2.2-4-3.2-5.8
					L169.7,109.9z"/>
				
					<pattern  id="SVGID_00000157991171823397814550000017142442945473677999_" xlink:href="#VT_Halftone_5" patternTransform="matrix(1 0 0 -0.9919 -103.08 -15962.6982)">
				</pattern>
				<path style="fill:url(#SVGID_00000157991171823397814550000017142442945473677999_);" d="M70.1,129.5c-0.7-3.4-1.3-6.6-1.9-9.8
					c2-0.1,3.8-0.2,5.6-0.3c2.2-0.1,3.5-1.5,4.9-3c0.2-0.2,0.1-0.6,0.1-1c-0.1-0.7-0.3-1.3-0.3-2c0-0.3,0-0.9,0.2-1
					c0.3-0.1,0.7-0.1,1,0.1c0.6,0.6,1.1,1.3,1.5,2.1c0.4,0.9,0.5,2,0.8,3c0.3,0.7,0.2,1.5-0.3,2.1c-1.6,2.6-4.1,4.3-6.3,6.4
					C73.9,127.6,72.1,128.8,70.1,129.5z"/>
				<path class="st3" d="M129.4,60.7c-0.9-0.9-1.9-1.8-2.9-2.6c-0.6-0.5-1.4-0.8-2.1-0.9c-0.4-0.1-0.8,0.4-1.2,0.6
					c0.2,0.4,0.4,0.9,0.8,1.1c1.4,0.5,2.6,1.4,3.5,2.6c-0.4,0.7-0.7,1.5-1.1,2.2c-0.5,0.7-0.4,1.8,0.4,2.3c0.1,0,0.1,0.1,0.2,0.1
					c1.3-0.5,0.8-2.1,1.6-2.8c0.6,0.2,1.1,0.6,1.5,1c0.3,0.5,0.4,1.1,0.5,1.6c0.1,0.5,0.3,1.1-0.6,1c-0.2,0-0.4,0.4-0.4,0.5l1,2.9
					c-2.9,0-5.7-1.3-7.6-3.5c-1.4-1.4-2.1-3.3-2.1-5.3c-0.1-2.6,0.4-5.1,2.5-6.9c1.5-1.3,4-0.6,4.8,1.4c0.6,1.5,1.1,3,1.6,4.6
					L129.4,60.7z"/>
				<path class="st3" d="M66.3,121.8c0.3,1.6,0.5,3.2,0.9,4.8c0.3,1.2,0.6,2.4,1.1,3.6c0.6,1.6,1.1,1.8,3.1,1.7
					c-0.3,4.5-0.6,9-0.9,13.7l-4.6,1.8l-0.4-0.2c-0.1-8.4,0.4-16.9,0.5-25.2L66.3,121.8z M66.6,136.7c0.4,0.5,0.7,1.2,1.2,1.3
					c0.3,0.1,0.9-0.4,1.4-0.7c0.2-0.2,0.4-0.4,0.5-0.7c0.3-0.7,0.4-1.4-0.3-1.9c-0.6-0.4-1.4-0.3-1.8,0.3c0,0,0,0.1-0.1,0.1
					C67.2,135.5,66.9,136.1,66.6,136.7L66.6,136.7z M69.4,143.2c0-1-0.6-1.7-1.3-1.7c-0.9,0.1-1.5,0.9-1.4,1.7c0,0,0,0,0,0
					c0,0.7,0.5,1.3,1.2,1.3c0,0,0.1,0,0.1,0C69,144.4,69.2,143.7,69.4,143.2L69.4,143.2z"/>
				<path class="st3" d="M181.4,47.2c1.2,0.9,1.3,2.3,1.5,3.6c0,0.2-0.3,0.5-0.5,0.8c-0.4,0.4-0.7,0.8-1,1.2
					c-0.1,0.3,0.2,0.7,0.2,1.1l1-0.3l0,0c-0.1,0.4,0,1.1-0.2,1.3c-0.5,0.3-1.2,0.3-1,1.1c0.1,0.4,0.6,0.8,1.1,1.4l-3.4,5.6l-1.3-0.9
					c-0.3,0.4-0.5,0.9-0.6,1.4c-0.1,0.7,0.1,1.4-0.8,1.8c-0.2,0.1-0.5,0.1-0.7,0c-0.2-0.2-0.2-0.4-0.2-0.6c0.1-2.4,0.2-4.9,0.3-7.3
					c0-0.7,0.2-1.4,0.6-2.1l1.8,3.2c1-0.4,1.4-1.1,1.1-2c-0.3-1.2-1-2.3-2-3c-0.3-0.2-0.4-0.5-0.4-0.9c0.6-1.5,1.3-3.1,2.9-4
					c0.2-0.1,0.4-0.3,0.6-0.2C181.3,48.5,181.3,47.8,181.4,47.2L181.4,47.2z"/>
				<path class="st4" d="M323.4,104.9c2.3-0.7,4.7-1.3,7-2.2c1.1-0.6,2.2-1.2,3.2-2c-0.2,3.1-0.4,6-0.7,8.9c0,0.6-0.2,1.1-0.4,1.7
					c-0.3,0.7-1,0.8-1.7,0.5c-2.2-0.8-4.1-2.2-5.6-4.1c-0.6-0.8-1.2-1.5-1.8-2.2C323.4,105.4,323.5,105.1,323.4,104.9L323.4,104.9z"
					/>
				<path class="st3" d="M359.3,180.1c0,2.2-1.7,4-3.9,4.1c-2.2,0.1-4.4-0.6-6.1-2c-0.4-0.3-0.6-0.8-0.7-1.3
					c-0.8-2.2-1.6-4.3-2.3-6.5c-0.3-1-0.4-2-0.4-3c0-3.7-0.1-7.3,0-10.9c0.2-2.3,0.5-4.6,1-6.8c0.7-4.1,1.5-8.1,2.3-12.2
					c1-0.1,1,0.5,0.9,1.1c-0.5,2.7-1.1,5.3-1.6,7.9c-0.6,2.7-1.1,5.5-1.4,8.3c-0.3,4-0.3,8.1-0.3,12.1c0.1,2.5,0.8,5,1.9,7.3
					c0.2,0.5,0.2,1,0.4,1.4c1,2.8,5.3,4.9,7.9,2.6c0.5-0.5,1-1,1.4-1.6C358.7,180.4,359,180.2,359.3,180.1z"/>
				<path class="st3" d="M292.7,54.3c0.7-2.2,1.4-4.4,2-6.6l0.4,0.1c0,0.2,0.1,0.5,0.2,0.7c0.3,0.3,0.6,0.6,0.9,0.9
					c0.2-0.3,0.4-0.7,0.7-1c0.2-0.3,0.5-0.5,0.7-0.7c0.2-0.2,0.4-0.2,0.5-0.4c1.7-3.1,3.9-5.9,6.4-8.3c0.9-0.7,1.9-1.4,2.9-1.9l0,0
					c-1.7,2.1-2.9,4.6-3.6,7.2c-0.4,1.5-0.8,3.1,0,4.5c-1.5,0.2-2.9,0.2-4.3,0.5c-1.8,0.4-3.4,1.3-4.5,2.7
					C294.2,52.7,293.4,53.5,292.7,54.3L292.7,54.3z"/>
				<path class="st3" d="M171.2,157.5v-8l7.3-0.3c-2.7,2.1-3.3,4.7-2.2,7.8L171.2,157.5z"/>
				<path class="st4" d="M312.5,104.5l7.1,0.6c-2.5,2.4-3.7,5.7-6.6,7.8C311.8,110,312.1,107.2,312.5,104.5z"/>
				<path class="st3" d="M185.8,157c0.1-1.6,0.3-3.1,0.2-4.7c0-1.7-0.9-3-2.8-3c0-0.1,0-0.3,0-0.3c2.2-1.1,4.9-0.2,6,1.9
					c0.3,0.6,0.5,1.2,0.5,1.8c0.1,1.9,0,3.9,0,5.7L185.8,157z"/>
				<path class="st3" d="M167.2,90.7c-0.1-0.6-0.2-1.1-0.2-1.7c0-0.7,0.2-1.4,0.7-2c1.4-1.6,2.7-3.4,4-5.2c0.7,1.6,1.4,3.3,2.1,5
					c-1.1,0.5-2.3,0.9-3.4,1.5c-0.5,0.3-0.8,0.8-1.2,1.2s-1.1,1-1.7,1.5L167.2,90.7z"/>
				<path class="st3" d="M183.6,153.4c0,1.9-1.6,3.5-3.5,3.6c-1.2-0.1-2.3-1.8-2.2-3.3s1.8-3.3,3.2-3.1
					C182.6,150.8,183.8,151.5,183.6,153.4z M181.2,153.1c-0.1-0.4-0.3-0.8-0.5-1.2c-0.1-0.1-0.8,0.1-0.9,0.2c-0.3,0.6-0.4,1.3-0.3,2
					c0.2,0.5,0.6,0.9,1,1c0.6,0,1.2-0.2,1.6-0.6c0.2-0.3,0.3-0.7,0.2-1.1C182.1,153.2,181.6,153.2,181.2,153.1L181.2,153.1z"/>
				<path class="st3" d="M345.6,76.2c1.3,1.9,2.8,3.6,2.9,6.1c-0.1,2.3-1.7,4.3-4,5C346.3,83.9,346.8,79.8,345.6,76.2z"/>
				<path class="st3" d="M8.8,179.4c-0.8,0.3-1.5,1.1-2.6,0.6c-0.6-0.3-0.9-0.5-0.9-1.1c-0.1-1.1-0.2-2.2-0.3-3.6c1,0.2,2,0.3,3,0.5
					c0.3,0.1,0.6,0.6,0.6,0.9C8.7,177.5,8.7,178.4,8.8,179.4z"/>
				<path class="st3" d="M138.8,90.7c0.4-1.8,0.8-3.5,1.2-5.2c0.9,0.7,1.7,1.4,2.5,2.2c0.4,0.4,0.3,1.2,0.6,2
					C141.1,88.8,140.2,90.7,138.8,90.7z"/>
				<path class="st3" d="M18.4,179.9c-0.4,0-0.7-0.1-1-0.1c-2.9-0.2-2.6-0.2-2.4-3c0.5,0,1,0.1,1.5,0.1c1.8,0,1.9,0,2,2
					C18.5,179.1,18.4,179.5,18.4,179.9z"/>
				<path class="st3" d="M20.2,179.7l-0.5-2.7h3.6l0.3,2.6L20.2,179.7L20.2,179.7z"/>
				<path class="st3" d="M10.1,176.2l3.1,0.5v2.6C10.5,179.5,10,180.1,10.1,176.2z"/>
				<path class="st3" d="M105.6,127.3l-3-4.2h2.4l0.7,4.1L105.6,127.3z"/>
				<path class="st3" d="M177.4,66.8c-0.2,1.4-0.4,2.5-0.6,3.7h-0.4l-1.3-3.3L177.4,66.8z"/>
				<path class="st3" d="M179.9,46.5c-1.9,0.6-3.5,2-4.4,3.7c-0.5-0.5-0.5-0.8-0.1-1.3C177.2,46.6,178.3,46,179.9,46.5z"/>
				<path class="st3" d="M129.8,72.4l1.2-0.2l0.2,3.4l-0.4,0.1C129.8,74.8,129.9,73.6,129.8,72.4z"/>
				<path class="st3" d="M25.2,179.2c0-0.9-0.9-1.7,0-2.4c0.2-0.1,1.1,0.2,1.2,0.5C27,178.3,26.7,178.7,25.2,179.2z"/>
				<path class="st3" d="M245.5,128c0.6,1.1,0.5,2.4-0.3,3.3C244.7,130.7,244.8,129.1,245.5,128z"/>
				<path class="st3" d="M3.8,179.4c-1.6-0.9-0.4-1.9-0.6-2.7h0.3L3.8,179.4z"/>
				<path class="st3" d="M65.9,119.1l0.4,1.7C65.3,120.4,65.3,120.4,65.9,119.1z"/>
				<path class="st3" d="M143.2,92.1c0.6,1,0.6,1.5-0.2,2L143.2,92.1L143.2,92.1z"/>
				<path class="st3" d="M181.4,147.3l-0.1-1l0.3-0.1l0.2,1L181.4,147.3z"/>
				<path class="st3" d="M113.9,124.7l0.2,0.9l-0.2,0.1l-0.2-0.9L113.9,124.7z"/>
				<path class="st3" d="M182.9,149.3l-0.1,0.1l-0.2-0.3c0.1,0,0.2-0.1,0.2,0S182.9,149.2,182.9,149.3z"/>
				<path class="st3" d="M182.1,148.8c-0.1,0.1-0.2,0.1-0.3,0.1c-0.1,0-0.1,0-0.2-0.1c0-0.1,0.1-0.2,0.1-0.3L182.1,148.8z"/>
				<path class="st3" d="M258.7,63.3v-0.2l0.1,0.1L258.7,63.3L258.7,63.3z"/>
				<path class="st3" d="M353.6,117.5L353.6,117.5l-0.1,0.1c0,0,0-0.1,0-0.1C353.5,117.5,353.6,117.5,353.6,117.5z"/>
				<path class="st3" d="M196.5,145.1l0.1,0.4h-0.1L196.5,145.1L196.5,145.1z"/>
				<path class="st3" d="M304.3,48.9L304.3,48.9L304.3,48.9L304.3,48.9L304.3,48.9z"/>
				<path class="st3" d="M323.4,104.9L323.4,104.9L323.4,104.9L323.4,104.9z"/>
				<polygon class="st3" points="63.7,127 63.7,127.1 63.7,127 				"/>
				<path class="st3" d="M99.1,131.5L99.1,131.5L99.1,131.5L99.1,131.5z"/>
				<path class="st3" d="M40.6,73.6L40.6,73.6c-0.1-0.1,0-0.2,0-0.2S40.6,73.4,40.6,73.6L40.6,73.6z"/>
				<path class="st3" d="M120.9,124.3l-0.2,0.1L120.9,124.3L120.9,124.3z"/>
				<polygon class="st3" points="63.3,121.3 63.3,121.4 63.3,121.3 				"/>
				<path class="st3" d="M86.9,76.9L86.7,77l0.2,0.1l0,0V76.9L86.9,76.9z"/>
				<polygon class="st3" points="284.1,118.2 284.1,118.3 284.1,118.2 				"/>
				<polygon class="st3" points="263.2,4.6 263.2,4.7 263.2,4.7 				"/>
				<polygon class="st3" points="170.5,148.7 170.5,148.7 170.5,148.7 				"/>
				<path class="st3" d="M170.6,149.2L170.6,149.2L170.6,149.2L170.6,149.2z"/>
				<path class="st3" d="M184.7,57.3l-0.2,0l0.1-0.1L184.7,57.3L184.7,57.3z"/>
				<polygon class="st3" points="182.6,53.6 182.6,53.7 182.5,53.6 				"/>
				<path class="st3" d="M46.4,111.5L46.4,111.5z"/>
				<path class="st3" d="M181.4,47.2l-0.2-0.3l0,0L181.4,47.2L181.4,47.2z"/>
				<path class="st3" d="M181.3,46.9L181.3,46.9L181.3,46.9L181.3,46.9z"/>
				<polygon class="st3" points="180.5,46.6 180.5,46.6 180.5,46.6 				"/>
				<path class="st3" d="M23.7,42.5h0.2l-0.1,0.1L23.7,42.5L23.7,42.5z"/>
				<path class="st3" d="M370.5,109.5l-0.1,0.2l-0.1-0.1L370.5,109.5L370.5,109.5z"/>
				<path class="st3" d="M307.4,37l0.3-0.2l0,0L307.4,37L307.4,37z"/>
				<path class="st3" d="M106.5,174.3L106.5,174.3L106.5,174.3L106.5,174.3z"/>
				<path class="st3" d="M173,36.6l0.1,0.2L173,36.6L173,36.6z"/>
				<polygon class="st3" points="307.7,36.8 307.7,36.7 307.7,36.8 				"/>
				<path class="st3" d="M173.1,36.6l-0.4-0.1l0.1-0.1L173.1,36.6L173.1,36.6z"/>
				<polygon class="st3" points="143.3,92.1 143.3,92.1 143.2,92.1 				"/>
				<path class="st3" d="M163.8,33.6c0,0.1,0.1,0.2,0.1,0.3l0,0L163.8,33.6L163.8,33.6z"/>
				<path class="st3" d="M163.8,33.6l-0.4-0.2l0,0L163.8,33.6L163.8,33.6z"/>
				<polygon class="st3" points="23.3,176.9 23.2,176.9 23.3,176.9 				"/>
				<path class="st3" d="M364.2,107.6C364.2,107.6,364.3,107.6,364.2,107.6c0.1,0.1,0,0.1,0,0.1
					C364.2,107.8,364.2,107.7,364.2,107.6C364.2,107.6,364.2,107.6,364.2,107.6z"/>
				<path class="st3" d="M163.1,33.1l0.2,0.4l0,0L163.1,33.1L163.1,33.1z"/>
				<path class="st3" d="M20.2,179.7L20.2,179.7L20.2,179.7L20.2,179.7L20.2,179.7z"/>
				<path class="st3" d="M163.1,33.1L163.1,33.1L163.1,33.1z"/>
				<path class="st3" d="M135.3,31.9l0.1,0.2L135.3,31.9L135.3,31.9z"/>
				<path class="st3" d="M153.3,29.9L153.3,29.9L153.3,29.9z"/>
				<path class="st3" d="M207.8,29.3L207.8,29.3L207.8,29.3L207.8,29.3z"/>
				<polygon class="st3" points="6.7,182.3 6.7,182.4 6.7,182.3 				"/>
				<polygon class="st3" points="132.3,15.9 132.3,15.9 132.4,15.9 				"/>
				<path d="M47.6,156l9.7,0.4c0.9-0.1,1.6,0.6,1.7,1.4c0,0,0,0.1,0,0.1c0,2.3-0.2,4.5-0.2,6.8c-0.1,2.5,0,5.1-0.2,7.6
					c-0.2,2.5-0.7,5-1.1,7.4c-0.2,1.2-1.1,1.6-2.2,1.7c-2,0.2-4,0.5-6,0.6c-1,0-1.9-0.2-2.9-0.4c-1.5-0.2-3-0.3-4.4-0.5
					c-1.8-0.2-3.6-0.4-4.5-2.2c-0.4-0.8-0.7-1.7-0.8-2.5c-0.4-3.8-0.5-7.5-0.1-11.3c0.1-1.4,0-2.7,0.1-4.1c0.1-1.2,0-2.4,1.1-3.2
					c0.2-0.1,0.1-0.5,0.2-0.8s0.1-0.7,0.3-0.7c1.2-0.3,1.2-1.3,1.2-2.2c-0.1-0.7,0.4-1.4,1.2-1.5c0.1,0,0.3,0,0.4,0
					c1.6,0,3.2,0.1,4.9,0.2c1.4,0.1,1.6,0.3,1.7,1.8C47.6,155,47.6,155.4,47.6,156z M57.5,158c-2.5,0-4.6,0-6.8,0
					c-3.5,0-7-0.1-10.6-0.1c-0.4,0-0.7,0.2-0.9,0.6c-0.4,1.3-0.7,2.6-0.8,3.9c0,4.7-0.4,9.5,0.6,14.1c0.3,1.4,0.6,1.9,2.1,2.3
					c1.2,0.3,2.4,0.4,3.6,0.7c3.1,0.8,6.4,0.8,9.5,0.1c0.6-0.1,1.2-0.2,1.3-1.1c0.2-1.7,0.6-3.4,0.7-5.1c0.3-3.4,0.6-6.9,0.9-10.3
					C57.3,161.4,57.4,159.8,57.5,158L57.5,158z M45.4,156v-1.3c-1-0.1-1.9-0.2-2.7-0.3c-1.6-0.2-1.8-0.1-2,1.6H45.4z"/>
				<path d="M241,138.3c-0.2-1.5,0.1-2.3,2.5-2.6c1.1-0.1,2.2-0.2,3.2-0.2c1.1-0.1,2,0.8,2.1,1.9c0,0,0,0,0,0c0.3,1.7,0.6,3.5,1,5.2
					c0.3,1.1-0.3,2.2-1.4,2.6c-0.1,0-0.2,0-0.2,0.1c-1.5,0.3-3,0.4-4.6,0.5c-0.4,0-0.9-0.2-1.1-0.6c-0.6-2.2-1.2-4.5-1.7-6.8
					L241,138.3z M243.2,141.2l-0.1-0.6l-0.2,0.1L243.2,141.2l0.1,0.7l0.4-0.1L243.2,141.2z M242.8,140.2h0.3c0-0.3,0.1-0.5,0.2-0.8
					c0.3-0.8,1.6-1.7,2.2-1.4c0.8,0.4,1.2,1.3,1,2.1c-0.1,0.3-0.2,0.7-0.3,1c0,1,0.5,1.9,1.3,2.4c0-0.1,0.1-0.2,0.1-0.3
					c-0.2-1.7-0.4-3.5-0.7-5.2c-0.1-0.4-0.4-0.6-0.8-0.7c-1.1,0-2.3,0.2-3.6,0.3C242.7,138.5,242.7,139.3,242.8,140.2L242.8,140.2z"
					/>
				<path d="M249.3,150.7c-0.5,0.5-0.8,0.9-1,0.9c-2.2,0.2-4.4,0.4-6.7,0.5c-0.3,0-0.6-0.5-0.9-0.8c0.3-0.2,0.6-0.7,1-0.7
					c2-0.2,3.9-0.2,5.9-0.3C248.2,150.4,248.8,150.5,249.3,150.7z"/>
				<path d="M244.9,147.5c1.1,0,2.3,0,3.4,0c0.3,0,0.6,0.4,0.9,0.6c-0.3,0.3-0.6,0.7-1,0.7c-2.2,0.1-4.5,0.1-6.7,0.1
					c-0.3,0-0.6-0.4-1-0.6c0.4-0.3,0.7-0.7,1.1-0.8C242.7,147.5,243.8,147.5,244.9,147.5L244.9,147.5z"/>
				<path d="M242.2,154.3c0.3-0.2,0.5-0.5,0.9-0.6c0.2,0,0.5,0,0.7,0h5.4l0.2,0.4c-0.3,0.4-0.7,0.7-1.2,1c-1.6,0.7-3.3,0.3-5,0.1
					C242.8,155.1,242.5,154.6,242.2,154.3z"/>
				<path d="M277.9,114.8c1,0.6,0.5,1.6,0.6,2.4c0,2.5,0,5.1-0.1,7.6c-0.1,1.8-0.4,3.6-0.7,5.4c0,0.2-0.3,0.6-0.5,0.7
					c-1.5,0.3-2.5,1.5-3.4,2.4c-2.7,2.6-5.4,1.5-7.8-0.6c-0.8-0.6-1.6-1.2-2.3-2c-0.6-0.7-0.9-1.6-0.9-2.5c0.1-4.3,0.3-8.5,0.5-12.8
					c0.1-1.4,1.1-2.5,2.5-2.8c3.5-0.2,7.1,0,10.5,0.7c0.3,0.1,0.6,0.2,0.9,0.4c-0.1,1.1-0.7,1.2-1.5,1.1c-3.5-0.2-7.1-0.4-10.8-0.6
					c0,1.6,0,3.2,0,4.8c-0.1,2.4-0.2,4.9-0.3,7.3c-0.1,0.9-0.1,1.7,0.1,2.6c0.3,0.6,0.8,1.1,1.4,1.5c1,0.8,2,1.5,3,2.1
					c0.8,0.5,1.8,0.5,2.6-0.1c1.2-0.9,2.3-1.9,3.5-2.8c0.8-0.6,1.2-1.6,1.1-2.6c0.1-2.7,0.2-5.4,0.4-8.2c0-1,0.1-1.9,0.2-2.8
					C276.9,115.4,277.2,114.9,277.9,114.8L277.9,114.8z"/>
				<path d="M253,126.2c-0.2,0.9-0.4,1.8-0.8,2.7c-0.4,0.5-1,0.8-1.6,0.9c-0.8,0-1-0.8-0.8-1.4c0.3-1,0.6-2,1.1-2.9
					c0.3-0.3,0.8-0.5,1.3-0.4C252.6,125.3,252.8,125.9,253,126.2z"/>
				<path d="M253.1,164.3c0.5,1.5-0.4,2.8-0.9,4.1c-0.1,0.2-0.8,0.4-1.1,0.2c-0.4-0.2-0.7-0.6-0.7-1c0-0.9,0.2-1.8,0.5-2.7
					C251.2,163.6,251.8,163.4,253.1,164.3L253.1,164.3z"/>
				<path d="M277.9,114.8L277.9,114.8z"/>
				<path d="M253.1,164.3L253.1,164.3L253.1,164.3L253.1,164.3z"/>
				<path d="M163.2,150.5c0.7,0,1.4,0.5,1.5,1.2c0.4,1.3,0.1,2.7-0.9,3.6c-0.5,0.5-1.4,0.5-1.9-0.1c-0.1-0.1-0.1-0.2-0.2-0.2
					c-0.7-1.3-0.5-2.9,0.5-4.1C162.5,150.7,162.9,150.6,163.2,150.5z"/>
				<path d="M164.9,132.3c0.1,0.3,0.2,0.6,0.2,0.8c-0.2,1-0.6,1.9-0.9,2.9c-0.3,1-0.8,1.4-1.6,1.2c-0.9-0.1-1-0.9-0.9-1.6
					c0-0.7,0.1-1.4,0.3-2.1C162.3,131.8,163.2,131.5,164.9,132.3L164.9,132.3z"/>
				<path d="M165.5,177.3c-0.1,0.4-0.1,0.7-0.2,1.1c-0.4,1.2-1.4,2-2.3,1.6c-1.1-0.6-1.5-2-1-3.1c0.2-0.4,0.4-0.9,0.8-1.1
					c0.5-0.3,1.1-0.4,1.7-0.3c0.5,0.3,0.8,1,1.1,1.6L165.5,177.3z"/>
				<path d="M324.6,151.4c0-0.4,0-0.8,0.2-1.1c0.2-0.4,0.7-0.9,1-0.9c0.5,0.1,0.9,0.5,1.1,0.9c0.2,0.6,0.3,1.3,0.2,2
					c0,0.8-0.4,1.6-1.2,1.6c-0.9,0-1.2-0.7-1.3-1.5C324.6,152.1,324.6,151.9,324.6,151.4z"/>
				<path d="M325.1,118.8c1.2,0,1.6,0.4,1.5,1.5c-0.1,1.3-0.8,2.3-1.7,2.2c-0.7,0-1.3-1-1.3-1.9
					C323.7,119.3,324.1,118.8,325.1,118.8z"/>
				<path d="M329.2,166c-0.1,0.5-0.2,0.9-0.4,1.4c-0.2,0.5-0.8,0.8-1.3,0.6c-0.2-0.1-0.4-0.2-0.5-0.4c-0.4-0.7-0.6-1.6-0.7-2.4
					c0-0.3,0.6-0.9,1-1c0.5,0,1,0.2,1.3,0.6C328.9,165.1,329.1,165.6,329.2,166z"/>
				<path d="M323.7,136.3c0.3-0.6,0.6-1.1,1-1.5c0.4-0.2,0.8-0.1,1.2,0.1c0.3,0.6,0.5,1.3,0.4,2c-0.2,0.6-0.5,1.1-1,1.5
					c-0.1,0.1-0.9-0.2-1.1-0.5C324,137.4,323.8,136.9,323.7,136.3z"/>
				<path d="M330.1,179.4c0.1,0.8-0.4,1.5-1.2,1.7c-0.7,0.2-1.7-1.2-1.5-2.3c0.2-0.6,0.6-1.1,1.2-1.3
					C329.6,177.4,330.2,178.2,330.1,179.4z"/>
				<path d="M67.3,54.4c0.7,0.9,1.4,1.9,2.2,2.7c1.9,2,3.9,3.7,5.6,5.8c1.2,1.5,1.6,3.4,1.1,5.3c-0.2,1.3-0.6,2.6-1.1,3.8
					c-0.3,0.5-0.8,0.8-1.3,0.8c-0.6-0.1-0.6-0.7-0.4-1.3c0.3-1.4,0.4-2.8,0.6-4.2c0.2-1.7-0.5-3.5-1.9-4.6c-1-1-1.9-2-2.8-3
					s-2.1-2.1-3.1-3.2c-1.3-1.3-2.2-2.8-2.7-4.6c-0.1-0.3-0.1-0.7-0.1-1c0.1-0.4,0.4-1,0.7-1c0.7-0.1,0.5,0.6,0.7,1
					c0.6,1.2,1.3,2.3,2,3.4C66.8,54.4,67.1,54.4,67.3,54.4L67.3,54.4z"/>
				<path d="M63.6,81.1c2.8,0.7,5.8,0.4,8.3-1c2.3-1.2,3.6-3.3,5.2-5.1c0.1-0.2,0.2-0.4,0.4-0.5c0.4-0.1,0.7-0.2,1.1-0.2
					c0,0.3,0.2,0.7,0,0.9c-3,5.7-7.7,9.8-15.2,8.5c-0.1,0-0.3,0-0.4,0c0,0.3,0.1,0.5,0.1,0.8c0,0.4,0,0.7,0,1.1
					c-0.4,0-0.8-0.1-1.2-0.2c-0.3-0.2-0.5-0.5-0.5-0.8c-0.2-1.6-0.3-3.3,0.8-4.7c0.2-0.3,0.8-0.3,1.2-0.5l0.5,1.6L63.6,81.1z"/>
				<path d="M55.7,59.2c-2.4,0.3-4.3,1.1-5.5,3.2c-0.5,0.9-0.9,1.9-1.4,2.8c-0.2,0.3-0.6,0.4-0.9,0.6c-0.2-0.3-0.6-0.7-0.5-1
					c0.6-4,3.9-7,7.9-7.4c0.6-0.1,1.2-0.1,1.8-0.1c1.3-0.1,2.4,0.9,2.5,2.2c0,0.1,0,0.2,0,0.3c-0.2,1.6-0.1,3.4-1.3,4.7
					c-0.9,1-1.8,0.8-2.2-0.5c-0.5-1.2-0.6-2.5-0.3-3.8C55.7,59.9,55.7,59.6,55.7,59.2z"/>
				<path d="M53.9,49.7c0.6,0,1.2,0.2,1.8,0.4c0.3,0.1,0.4,0.7,0.6,1.1c-0.3,0.2-0.7,0.3-1.1,0.4c-0.6,0-1.1,0.1-1.7,0.2
					c-3,1.6-5.9,3.5-8.4,5.8c-0.3,0.3-0.5,0.7-0.9,1c-0.3,0.3-0.7,0.5-1.1,0.7c-0.1-0.5-0.4-1-0.2-1.4c0.4-1.1,1-2.1,1.7-3
					c1.9-2.2,3.9-4.4,7-5C52.4,49.8,53.1,49.8,53.9,49.7z"/>
				<path d="M67.3,54.4c1.5-2.4,3.1-4.7,6.1-5.5c1.3-0.3,2.7-0.1,3.9,0.7c0.5,0.3,1.1,0.9,0.5,1.7c-0.1,0.2-0.2,0.5-0.1,0.8
					c0.4,1.3,0.1,2.7-0.8,3.8c-0.4,0.5-1.1,0.8-1.8,0.8c-0.8,0-1-0.9-1-1.5c0.2-1.5,0.5-3,0.8-4.5c-1.1-0.1-2.1,0.2-2.9,0.9
					c-1.1,0.9-2.1,1.9-3.1,2.9C68.2,55.1,67.7,55.1,67.3,54.4L67.3,54.4z"/>
				<path d="M34.1,78.5c1.1-0.8,2.3-0.7,3.9,0.4c1.7,1.2,3.3,2.7,4.6,4.3c0.3,0.4,0.5,0.9,0.6,1.4c-1.6,0.6-1.8-1-2.8-1.4
					c-0.2,1.3-0.5,2.6,0.1,3.8c0.1,0.4,0.1,0.8,0,1.2c-0.4-0.1-1-0.1-1.3-0.4c-1.2-1.2-0.8-2.7-0.7-4.1c0.1-0.7,0.2-1.4,0.4-2.2
					c-0.8-0.6-1.7-1.2-2.6-1.6c-0.7-0.2-1.4-0.2-2,0.1c-0.4,0.2-0.8,0.7-1.2,0.2c-0.2-0.3,0.1-1,0.2-1.4
					C33.5,78.6,33.9,78.6,34.1,78.5L34.1,78.5L34.1,78.5z"/>
				<path d="M73.2,84.1c1.2-0.7,2.3-1.4,3.5-2.1c0.4-0.1,0.8-0.1,1.2-0.1c-0.1,0.4-0.1,1-0.3,1.2c-1,0.8-2,1.5-3.1,2.1
					c-1,0.5-1.4,0.1-1.2-0.9l0,0c0,0,0-0.1,0-0.1C73.2,84.2,73.2,84.2,73.2,84.1L73.2,84.1z M73.6,85.1L73.6,85.1
					c-0.1-0.1-0.2,0-0.2,0S73.5,85.1,73.6,85.1L73.6,85.1z"/>
				<path d="M86.9,76.8v0.3l-0.2-0.1L86.9,76.8z"/>
				<path d="M73.2,84.4v-0.3l0,0V84.4L73.2,84.4z"/>
				<polygon points="62.9,96.6 62.8,96.5 62.9,96.6 				"/>
				<path d="M153.8,50.1c-0.6,2.6-1.2,5.2-1.7,7.7c-0.3,1.3-0.6,2.6-0.8,3.9c-0.3,1.6,1.7,3.3,3,3.5c0.8,0.1,1.5,0.3,1.3,1.2
					s-0.9,1.1-1.9,0.9c-2-0.2-3.7-1.4-4.4-3.2c-0.5-1.6-0.5-3.3,0.1-4.9c0.6-2.2,1.3-4.3,1.8-6.4c0.6-1.8,0.6-3.7,0.2-5.5
					c-0.2-0.5-0.4-1.1,0.4-1.3c0.8-0.2,1.2,0.4,1.4,1c0.2,1,0.3,2,0.5,3.1L153.8,50.1z"/>
				<path d="M161.9,64c0.5,0.1,1.2,0.1,1.5,0.5c1.1,1.2,1.7,2.8,1.8,4.4c-1.3,0.4-1.3-0.8-2-1.3c-0.2,0.2-0.4,0.5-0.5,0.7
					c-1.4,2.6-3.5,4.7-6.1,6.2c-2.9,1.6-6.4,1.6-9.3,0c-0.5-0.2-1.1-0.5-1.5-0.9c-0.2-0.2-0.5-0.8-0.4-0.9c0.2-0.3,0.6-0.5,1-0.5
					c0.6,0.1,1.2,0.3,1.8,0.5c3.7,1.7,6.8,0.8,9.5-1.9c1.4-1.4,2.6-2.9,3.9-4.4c0.2-0.3,0.5-0.5,0.6-0.7l-0.3-1.5l0,0L161.9,64
					L161.9,64z"/>
				<path d="M164,48.3c0.6,1.2,0.6,2.5,0,3.7c-0.3,0.7-1.1,1.1-1.8,0.9c-0.4-0.1-0.7-0.4-0.8-0.8c-0.6-1-0.7-2.2-0.3-3.4
					c0-0.2,0.1-0.4,0.3-1c-1.4,0.6-2.5,1.1-3.6,1.4c-0.4,0.1-0.9,0.1-1.3,0c0.1-0.4,0.3-0.8,0.5-1.1c1.9-1.8,4.5-2.5,7.1-1.9
					c1,0.2,2.1,0.4,3.2,0.7c0.5-0.5,1-1.1,1.6-1.7c0.2-0.2,0.6-0.2,1-0.3c0,0.4,0.2,0.8,0,1.1c-0.4,0.7-0.8,1.3-1.2,1.9l0.3,0.3
					c0.5-0.5,1-1,1.6-1.5c0.3-0.1,0.6-0.3,0.9-0.3c0.1,0.3,0.4,0.8,0.2,1c-0.7,0.8-1.5,1.5-2.3,2.1c-0.8,0.5-1.8,0.4-2.5-0.3
					c-0.8-0.5-1.7-0.9-2.7-1.1L164,48.3z"/>
				<path d="M144.1,50.5c0.2,1.1,0.5,2,0.6,3c0.2,1-0.6,2-1.6,2.2c0,0-0.1,0-0.1,0c-0.8,0.2-2-0.9-2.1-2c-0.1-0.8,0-1.6,0-2.5
					c-1.1,0.2-2,0.8-2.6,1.7c-0.7,0.9-1.8,1.4-3,1.2c-0.5-0.1-0.9-0.4-1.2-0.8c-0.2-0.2-0.1-0.6-0.1-0.9c0.3,0,0.6,0,0.9,0
					s0.9,0.1,1.1,0.1l-0.6-1.9l2,0.2c0.9-0.6,1.8-1.1,2.7-1.5c2-0.9,4.4-1,6.4-0.1c0.4,0.2,0.6,0.8,0.9,1.2
					c-0.4,0.2-0.9,0.3-1.4,0.4C145.4,50.8,144.7,50.7,144.1,50.5z"/>
				<path d="M162.8,38.9c1.9,0.5,3.7,1.1,5.6,1.6c0.3,0.1,0.5,0.2,0.7,0.5c0.2,0.4,0.3,0.9,0.4,1.4c-0.4,0.1-0.9,0.1-1.4,0
					c-3-1.3-6.3-1.4-9.3-0.5c-0.8,0.2-1.4,0.7-2.1,1c-0.4,0.1-0.8,0.1-1.2,0.1c0.1-0.4,0-1,0.2-1.3c1.1-1.2,2.6-2.1,4.2-2.3
					c0.9-0.2,1.9-0.3,2.9-0.4L162.8,38.9z"/>
				<path d="M147.7,43.5c-2.6-0.2-4.9-0.3-7,0.7c-1.6,0.8-3.1,1.9-4.7,2.8c-0.4,0.2-0.8,0.3-1.2,0.3c0-0.5-0.1-1.1,0.1-1.4
					c2.8-3.6,7.4-5.3,11.9-4.4c0.4,0.1,0.7,0.2,1,0.5c0.3,0.3,0.5,0.7,0.5,1.1C148.4,43.3,147.8,43.5,147.7,43.5z"/>
				<path d="M154.3,77.2c0.7-0.2,1.4-0.4,2.2-0.5c0.3,0,0.7,0.1,1,0.3c-0.1,0.3-0.2,0.9-0.5,1c-0.9,0.3-1.8,0.6-2.7,0.7
					c-0.6,0.1-1.2-0.3-1.1-1c0.1-0.3,0.7-0.4,1-0.7L154.3,77.2z"/>
				<path d="M161.9,64.3c0-0.1,0-0.1,0-0.2c0,0,0-0.1,0-0.1l0,0V64.3L161.9,64.3z"/>
				<path d="M251.8,51.8c0,3.5-1.4,6.9-4,9.3c-1.7,1.6-3.6,3.2-6.1,2.6c-1.9-0.5-3.7-1.3-5.3-2.5c-1.2-0.9-2.2-2-3.1-3.2
					c-1.2-1.4-0.9-2.5,0.9-3.1c4.9-1.9,9.8-3.9,14.7-5.8c2.5-1,3-0.6,2.9,2.1C251.8,51.3,251.8,51.5,251.8,51.8z M246.6,51.8
					c-0.2,0-0.3,0-0.5,0c-1.3,0.5-2.5,1-3.8,1.5c-1.2,0.5-2.5,1.1-4,1.7C241.5,55.8,244.8,54.5,246.6,51.8l0.1-0.1h-0.1L246.6,51.8z
					 M249.6,54.3c-1.8-0.1-3.6,0.5-5,1.6c-0.9,0.8-2.1,1.2-3.3,1.1c-0.7-0.1-1.5,0.3-1.6,1.1c-0.2,0.8-0.4,1.5-0.7,2.3
					c0.6,0.2,1.1,0.5,1.7,0.7c0.9,0.6,2,0.7,3,0.2C246.7,60.2,249,57.5,249.6,54.3L249.6,54.3z"/>
				<path d="M237,36.8c-0.4,1.3-1,2.6-1.5,3.9c-1.3,2.5-1.1,4.7,0.8,6.6c0.3,0.3,0.9,0.5,1.2,0.9c0.2,0.3,0.3,0.7,0.4,1.1
					c-0.3,0.1-0.8,0.4-1,0.3c-0.8-0.3-1.5-0.8-2.2-1.4c-2.6-2.5-2.8-5-1-8.1c1.2-2,1.6-4.4,1-6.6c-0.1-0.3,0-1,0.3-1.1
					c0.7-0.4,0.9,0.4,1,0.8C236.4,34.2,236.6,35.3,237,36.8z"/>
				<path d="M265.7,34.2c2.1,1.2,3.8,2.2,3.6,4.6c0,0.4-0.5,0.7-1,1.4c-0.4-0.8-0.6-1.3-1-1.8c-0.2-0.5-0.6-0.9-1-1.3
					c-1-0.6-1.9,0.1-2,1.4c-0.1,0.4-0.3,0.8-0.5,1.2c-0.3-0.3-1-0.7-1-1c-0.1-1.1,0-2.2,0.3-3.2c0.8-2,2.4-3.4,4-4.8
					c0.2-0.2,0.5-0.3,0.8-0.3c0.4,0,0.8,0.2,1.1,0.4c0.1,0.1-0.1,0.7-0.3,0.9C267.8,32.4,266.8,33.2,265.7,34.2z"/>
				<path d="M247,27c0.8,0.2,1.9,0.5,3,0.8c0.3,0.1,0.5,0.5,0.7,0.8c-0.3,0.2-0.7,0.6-1,0.5c-3.2-0.2-6.4,0.7-9.1,2.5
					c-0.2,0.1-0.3,0.3-0.5,0.3c-0.3,0-0.7,0-1,0c0-0.3,0-0.8,0.1-1C241,28.6,243.9,27.1,247,27z"/>
				<path d="M221.6,35.2c-0.8-0.8-0.8-1.8,0.2-2.3c2.3-1.2,4.6-2.2,7.4-1.6c1.1,0.3,2.2,0.8,3.1,1.5c0.2,0.2,0.5,0.5,0.4,0.6
					c-0.1,0.3-0.4,0.5-0.7,0.6c-0.5,0.1-1.1,0-1.6-0.1C227.4,32.8,224.1,33.3,221.6,35.2z"/>
				<path d="M241.5,35.9c-0.5-0.4-0.5-0.8,0-1.3c2.1-2,4.7-2,7.4-1.9c0.8,0,1.7,0.2,2.5,0.4c0.4,0.1,0.7,0.5,1.1,0.8
					c-0.4,0.2-0.8,0.6-1.1,0.6c-1.2,0-2.3-0.1-3.5-0.2c-1.9-0.1-3.8,0.4-5.5,1.4C242,35.8,241.7,35.9,241.5,35.9L241.5,35.9z"/>
				<path d="M222.7,39.9c0.3-1.3,1.4-1.9,2.3-2.4c2.4-1.4,4.9-1.1,7.4-0.3c0.3,0.1,0.4,0.5,0.7,0.8c-0.4,0.2-0.8,0.5-1.1,0.5
					c-0.9,0-1.7-0.2-2.6-0.3c-2-0.2-4,0.6-5.3,2.2c-0.7,0.9-1,0.8-1.4-0.2l0,0L222.7,39.9L222.7,39.9z"/>
				<path d="M228.7,40.4c-0.1,0.7-2,1.7-2.5,1.3c-0.2-0.2-0.2-0.5-0.2-0.7c0.7-0.4,1.5-0.7,2.3-1C228.4,40,228.6,40.3,228.7,40.4z"
					/>
				<path d="M245.1,36.1c0.6,0.4,1.6-0.1,1.5,1s-0.9,0.7-1.4,0.7s-0.8-0.5-1.2-0.8L245.1,36.1z"/>
				<path d="M222.7,40.2c0-0.1,0-0.1-0.1-0.2c0,0,0-0.1,0.1-0.1l0,0V40.2L222.7,40.2z"/>
				<path d="M241.4,35.9L241.4,35.9L241.4,35.9L241.4,35.9L241.4,35.9z"/>
				<path d="M304.7,75.2c2.3,0,4.6,0.1,6.9,0c2.2-0.1,4.4-0.6,6.4-1.5c1.2-0.5,2.4-0.9,3.5-1.3c0.4-0.2,0.9-0.2,1.3-0.1
					c0.2,0.1,0.1,0.8,0.2,1.2c0.3,3.1-1.4,5.5-2.5,8.1c-0.8,1.8-2.2,3.3-4,4.1c-2.2,1.1-3.6,0.9-5.9-1c-1.9-1.4-3.6-3.1-5-5
					c-0.4-0.6-0.7-1.2-1.1-1.8c-0.4-0.6-0.8-0.9-1.2-1.4c-0.2-0.2-0.3-0.5-0.3-0.8c0-0.2,0.4-0.4,0.6-0.5
					C303.9,75.1,304.3,75.1,304.7,75.2L304.7,75.2z M311.2,82.1c0.4,0.3,0.9,0.7,1.4,1.1c1.1,1,2.7,0.9,3.7-0.2c0,0,0.1-0.1,0.1-0.1
					c0.3-0.3,0.6-0.5,0.8-0.8c1.4-1.4,2.3-3.2,2.8-5.1c-0.2,0.1-0.3,0.2-0.5,0.4c-1.5,1.6-3.1,3-5.4,3
					C312.8,80.3,311.7,81,311.2,82.1L311.2,82.1z M310.8,77.4c2.1,2.3,6,0.8,7.6-1.7L310.8,77.4z"/>
				<path d="M320.6,58.4c-0.8,0.3-1.6,0.6-2.3,0.9c-1.3,0.8-2.1,0-3-0.6c-0.3-0.2-0.4-0.9-0.4-1.3c0.1-0.3,0.3-0.6,0.6-0.7
					c0.2-0.1,0.6,0.2,0.8,0.4c0.4,0.6,1.2,0.9,1.8,0.5c0-0.1,0-0.2,0-0.3c-0.4-0.6-1.2-1.3-0.4-1.9s1.1,0.4,1.6,0.8
					c0.4,0.3,0.9,0.5,1.5,0.5c2.5-0.4,4.5,0.7,6.4,1.8c0.3,0.2,0.5,0.8,0.7,1.2c-0.4,0.1-0.9,0.1-1.3,0.1c-0.6-0.1-1.2-0.3-1.8-0.6
					c0.1,1,0.1,1.9,0,2.9c-0.1,1.1-1.1,1.9-2.3,1.9c-1-0.1-1.7-0.9-1.8-1.8C320.6,60.9,320.5,59.6,320.6,58.4z"/>
				<path d="M304,60c-0.1,0.7-0.2,1.4-0.3,2.1c-0.2,0.7-0.5,1.5-1.5,1.5c-0.9,0.2-1.8-0.4-2-1.4c0,0,0,0,0,0c-0.2-1-0.3-2-0.5-3.2
					c-0.9,0.3-1.8,0.6-2.6,1c-0.9,0.6-2.1,0.5-2.9-0.1c-0.5-0.4-0.9-1-0.4-1.6c0.5-0.6,0.9-0.1,1.3,0.3c0.2,0.2,0.5,0.3,0.8,0.5
					c0-0.7-0.1-1-0.1-1.4c0-0.4,0.1-0.7,0.1-1.1c0.4,0.1,1,0.1,1.1,0.4c0.3,0.6,1,0.8,1.6,0.5c0,0,0,0,0,0c2-0.7,3.9,0.3,5.7,0.9
					c0.9,0.1,1.6,0.8,1.8,1.6c-0.4,0.2-0.9,0.3-1.3,0.5C304.7,60.3,304.4,60.1,304,60z"/>
				<path d="M310.3,58.2c1.2,1.1,0.8,2.2,0.6,3.1c-0.2,1.5-0.5,3-0.9,4.4c-0.4,1.5,0.2,3.1,1.5,3.9c0.5,0.4,1,0.7,0.5,1.3
					s-1,0.6-1.6,0.2c-2.7-1.6-3.4-3.5-2.3-6.8c0.5-1.7,0.8-3.4,1.3-5C309.5,58.9,309.9,58.6,310.3,58.2z"/>
				<path d="M341.4,65.1c1.4,0.7,2.2,2.1,2.2,3.6c0,0.5-0.3,1.3-0.6,1.4c-0.8,0.2-0.8-0.6-0.9-1.2c0-0.9-0.5-1.7-1.1-2.3
					c-0.3,0.6-0.6,1.2-1,1.8c-0.1,0.1-0.5-0.1-0.8-0.1c-0.3-2.6,1.1-5.2,3.4-6.4c1-0.4,2-0.7,3-1c0.3-0.1,0.6-0.1,0.9,0.1
					c0.2,0.1,0.6,0.4,0.6,0.6s-0.3,0.5-0.6,0.6c-1.1,0.4-2.2,0.8-3.2,1.3C342.5,64,342,64.6,341.4,65.1z"/>
				<path d="M294.9,64c0.6-0.6,1.2-1.2,1.9-1.7c0.2-0.2,0.7,0.1,1.1,0.1c-0.1,0.3-0.1,0.8-0.3,0.9C296.9,63.7,296.4,64.8,294.9,64z"
					/>
				<path d="M318.1,64.9c-0.3-0.3-0.8-0.6-0.7-0.9c0.2-0.4,0.4-0.8,0.8-1.1c0.1-0.1,0.7,0.2,0.7,0.2c-0.1,0.6-0.3,1.1-0.4,1.6
					L318.1,64.9z"/>
				<path d="M320.1,62.6c0.3,0.6,0.6,1,0.6,1.2c0,0.3-0.4,0.6-0.7,0.8c-0.2-0.3-0.6-0.6-0.6-1C319.4,63.3,319.8,63.1,320.1,62.6z"/>
				<path d="M299,63.3c0.1,0.1,0.1,0.1,0.1,0.2c0.2,0.5,0,1.1-0.5,1.3c-0.1,0-0.2,0.1-0.3,0.1c-0.1,0-0.6-0.5-0.6-0.8
					C297.8,63.4,298.2,63.1,299,63.3L299,63.3L299,63.3z"/>
				<path d="M116.1,156.8c-0.1,1.3-0.3,2.6-0.5,4c0,0.2-0.1,0.5-0.2,0.7c-0.2,0.6-0.4,1.4-1.2,1.2s-0.4-0.9-0.4-1.5
					c0.6-3.6,0.5-7.4-0.3-11c-0.5-1.5-1-2.9-1.6-4.3c-0.2-0.4-0.3-0.8-0.4-1.2c0-0.7,0.5-0.9,1-0.6c0.4,0.3,0.7,0.6,0.9,1
					C115.5,148.7,116.4,152.7,116.1,156.8z"/>
				<path d="M354.9,132.9c0.3-1.1,0.5-2,0.8-2.9c0.9-2.2,1.7-4.5,3.5-6.1c0.2-0.2,0.5-0.5,0.8-0.5c0.4,0,0.7,0.1,1,0.3
					c0.1,0.3,0,0.7-0.2,1c-2.2,2.3-3.7,5.3-4.1,8.5c0,0.3-0.5,0.6-0.7,0.8L354.9,132.9z"/>
				<path d="M252,105.5c-0.2,0.7-0.5,1.3-0.9,2c-0.3,0.3-0.7,0.5-1.1,0.4c-0.3-0.1-0.6-0.4-0.6-0.8c0-1,0.2-2,0.5-3
					c0.3-0.9,1.3-0.8,1.7,0.1C251.7,104.6,251.9,105.1,252,105.5z"/>
				<path d="M181.9,168.6c-1.7-0.1-3.4-0.1-5-0.3c-0.3,0-0.9-0.4-0.9-0.7c-0.2-1.6-0.3-3.2-0.4-4.8c-0.1-1,0.7-2,1.7-2.1
					c2.7-0.1,5.4-0.1,8.1-0.1c1,0,1.3,0.7,1.3,1.6c0,1.1,0.1,2.3,0.2,3.4c0.3,2-0.6,3-2.6,3.1C183.5,168.7,182.7,168.7,181.9,168.6
					L181.9,168.6z M177.5,166.6h7.5v-4.3h-8C177.2,163.8,177.4,165.3,177.5,166.6L177.5,166.6z"/>
				<path d="M176.2,170.2c3,0,6-0.1,9-0.1c0.4,0,0.7,0.5,1.1,0.8c-0.3,0.3-0.6,0.7-1,0.8c-1.7,0.1-3.3,0.2-5,0.2c-1,0-2,0-3,0
					S175.8,171.6,176.2,170.2z"/>
				<path d="M181.9,176.2c-1.5,0-3.1,0.1-4.6,0c-0.5-0.1-1-0.4-1.2-0.9c-0.1-0.6,0.3-0.9,1-0.9c2.1,0.2,4.3,0.2,6.4,0.4
					c0.3,0,0.5,0.5,0.8,0.8c-0.3,0.3-0.6,0.7-1,0.8c-0.5,0.1-1,0.1-1.5,0L181.9,176.2z"/>
				<path d="M188.6,171.1L188.6,171.1L188.6,171.1L188.6,171.1z"/>
				<path d="M66.6,136.6c0.2-0.6,0.6-1.1,0.9-1.6c0.4-0.6,1.2-0.8,1.8-0.4c0,0,0.1,0,0.1,0.1c0.7,0.5,0.6,1.2,0.3,1.9
					c-0.1,0.3-0.3,0.5-0.5,0.7c-0.4,0.3-1,0.9-1.4,0.7C67.4,137.8,67.1,137.1,66.6,136.6z"/>
				<path d="M69.4,143.2c-0.2,0.5-0.3,1.3-1.3,1.3c-0.7,0.1-1.3-0.5-1.4-1.2c0,0,0-0.1,0-0.1c-0.1-0.9,0.5-1.6,1.4-1.7c0,0,0,0,0,0
					C68.8,141.4,69.4,142.1,69.4,143.2z"/>
				<path d="M181.2,153.1c0.4,0.1,0.9,0.1,1.1,0.4c0.1,0.4,0.1,0.8-0.2,1.1c-0.5,0.4-1,0.6-1.6,0.6c-0.5-0.1-0.9-0.5-1-1
					c0-0.7,0.1-1.4,0.3-2c0-0.2,0.8-0.3,0.9-0.2C180.9,152.3,181,152.7,181.2,153.1z"/>
				<path class="st3" d="M57.5,158c-0.1,1.8-0.2,3.4-0.4,5c-0.3,3.4-0.5,6.9-0.9,10.3c-0.2,1.7-0.5,3.4-0.7,5.1
					c-0.1,0.8-0.7,0.9-1.3,1.1c-3.1,0.7-6.4,0.7-9.5-0.1c-1.2-0.3-2.4-0.4-3.6-0.7c-1.4-0.3-1.7-0.8-2.1-2.3
					c-1-4.7-0.6-9.4-0.6-14.1c0.1-1.3,0.4-2.6,0.8-3.9c0.2-0.3,0.5-0.5,0.9-0.6c3.5,0,7,0.1,10.6,0.1C52.9,158,55.1,158,57.5,158z"
					/>
				<path class="st3" d="M45.4,155.9h-4.7c0.1-1.7,0.3-1.9,2-1.6c0.9,0.1,1.7,0.2,2.7,0.3L45.4,155.9z"/>
				<path class="st3" d="M242.8,140.2c-0.1-0.9-0.1-1.7-0.2-2.6c1.3-0.1,2.4-0.3,3.6-0.3c0.4,0.1,0.7,0.4,0.8,0.7
					c0.3,1.7,0.5,3.4,0.7,5.2c0,0.1-0.1,0.2-0.1,0.3c-0.8-0.5-1.3-1.4-1.3-2.4c0.1-0.3,0.2-0.7,0.3-1c0.2-0.8-0.2-1.7-1-2.1
					c-0.6-0.3-1.9,0.6-2.2,1.4c-0.1,0.3-0.1,0.5-0.2,0.8L242.8,140.2z"/>
				<path class="st3" d="M243.2,141.2l0.5,0.6l-0.4,0.1L243.2,141.2L243.2,141.2z"/>
				<path class="st3" d="M243.2,141.2l-0.3-0.5l0.2-0.1L243.2,141.2L243.2,141.2z"/>
				<path class="st3" d="M164.9,132.3L164.9,132.3z"/>
				<path class="st3" d="M34.1,78.5L34.1,78.5L34.1,78.5L34.1,78.5z"/>
				<path class="st3" d="M73.2,84.5v-0.3c0,0.1,0,0.1,0,0.2C73.2,84.4,73.2,84.4,73.2,84.5z"/>
				<path class="st3" d="M73.6,85.1L73.6,85.1c-0.1,0.1-0.2,0-0.2,0S73.5,85,73.6,85.1L73.6,85.1z"/>
				<path class="st3" d="M161.9,64.3L161.9,64.3z"/>
				<path class="st3" d="M249.5,54.3c-0.6,3.2-2.8,5.9-5.9,7.1c-1,0.4-2.1,0.3-3-0.2c-0.5-0.3-1.1-0.5-1.7-0.7
					c0.2-0.8,0.5-1.6,0.7-2.3c0.2-0.7,0.9-1.2,1.6-1.1c1.2,0.1,2.4-0.3,3.3-1.1C245.9,54.8,247.7,54.2,249.5,54.3z"/>
				<path class="st3" d="M246.5,51.8c-1.7,2.8-5,4.1-8.2,3.3c1.5-0.6,2.7-1.2,4-1.7c1.3-0.5,2.5-1,3.8-1.5
					C246.3,51.7,246.4,51.7,246.5,51.8L246.5,51.8z"/>
				<path class="st3" d="M246.6,51.8v-0.2h0.1L246.6,51.8L246.6,51.8z"/>
				<path class="st3" d="M222.7,40.2L222.7,40.2z"/>
				<path class="st3" d="M311.2,82.2c0.5-1.1,1.6-1.7,2.8-1.7c2.3,0,3.9-1.4,5.4-3c0.1-0.2,0.3-0.3,0.5-0.4
					c-0.4,1.9-1.4,3.7-2.8,5.1c-0.3,0.3-0.6,0.5-0.8,0.8c-0.9,1.1-2.6,1.3-3.7,0.4c0,0-0.1-0.1-0.1-0.1
					C312.1,82.9,311.6,82.5,311.2,82.2z"/>
				<path class="st3" d="M310.8,77.4l7.6-1.7C316.9,78.2,312.9,79.7,310.8,77.4z"/>
				<path class="st3" d="M299,63.3L299,63.3L299,63.3L299,63.3z"/>
				<path class="st3" d="M177.5,166.6c-0.1-1.3-0.3-2.8-0.4-4.3h8v4.3H177.5z"/>
			</g>
		</g>
	</g>
</g>
</svg>
