<?xml version="1.0" encoding="UTF-8"?><svg id="a" xmlns="http://www.w3.org/2000/svg" viewBox="0 0 269.51 244.65"><defs><style>.b{fill:#fff;}.c{fill:#cacaca;}.d{fill:#545454;}</style></defs><path class="c" d="M248.17,238.07c-19.98,11.54-45.45,4.64-56.85-15.2l-56.57-97.94-56.43,97.94c-11.54,19.84-37.01,26.74-56.99,15.2-19.84-11.54-26.74-37.01-15.2-56.85L98.01,22.06l.7-1.27,6.33-8.3c1.27-1.27,2.67-2.53,4.08-3.66,1.55-1.27,3.1-2.25,4.78-3.24,1.69-.99,3.38-1.83,5.07-2.53,10.27-4.22,21.67-3.94,31.52,0,1.69,.7,3.38,1.55,5.07,2.53,1.69,.99,3.24,1.97,4.78,3.24,1.41,1.13,2.81,2.39,4.08,3.66,1.27,1.27,2.53,2.67,3.66,4.22,.99,1.27,1.83,2.67,2.67,4.08l.42,.84,92.17,159.58c11.54,19.84,4.78,45.31-15.2,56.85Z"/><rect class="b" x="22.68" y="76.7" width="83.33" height="174.01" rx="41.66" ry="41.66" transform="translate(90.48 -10.24) rotate(30)"/><rect class="d" x="163.57" y="76.69" width="83.23" height="174.01" rx="41.62" ry="41.62" transform="translate(-54.36 124.53) rotate(-30)"/></svg>