<?xml version="1.0" encoding="UTF-8"?><svg id="a" xmlns="http://www.w3.org/2000/svg" viewBox="0 0 167.22 60.03"><defs><style>.b,.c{fill:#fff;}.d{fill:#ababab;}.e{fill:#5c5c5c;}.c{font-family:Poppins-ExtraBold, Poppins;font-size:15px;}</style></defs><path class="d" d="M132.09,36.53c-1.12,.65-2.56,.26-3.2-.85l-3.18-5.51-3.17,5.51c-.65,1.12-2.08,1.5-3.21,.85-1.12-.65-1.5-2.08-.85-3.2l5.17-8.95,.04-.07,.36-.47c.07-.07,.15-.14,.23-.21,.09-.07,.17-.13,.27-.18,.1-.06,.19-.1,.29-.14,.58-.24,1.22-.22,1.77,0,.09,.04,.19,.09,.28,.14s.18,.11,.27,.18c.08,.06,.16,.13,.23,.21,.07,.07,.14,.15,.21,.24,.06,.07,.1,.15,.15,.23l.02,.05,5.18,8.98c.65,1.12,.27,2.55-.85,3.2Z"/><rect class="b" x="119.41" y="27.45" width="4.69" height="9.79" rx="2.34" ry="2.34" transform="translate(32.48 -56.54) rotate(30)"/><rect class="e" x="127.33" y="27.45" width="4.68" height="9.79" rx="2.34" ry="2.34" transform="translate(1.2 69.17) rotate(-30)"/><text class="c" transform="translate(6.66 35.19)"><tspan x="0" y="0">TECHHUB SYD</tspan></text></svg>