<?xml version="1.0" encoding="UTF-8"?><svg id="a" xmlns="http://www.w3.org/2000/svg" viewBox="0 0 58.63 60.03"><defs><style>.b{opacity:.7;}.b,.c{fill:#e79c5a;}.c{opacity:.35;}</style></defs><path class="b" d="M52.95,54.27c-4.17,2.42-9.53,.97-11.92-3.17l-11.84-20.52-11.81,20.52c-2.42,4.17-7.75,5.59-11.96,3.17-4.17-2.42-5.59-7.75-3.17-11.92L21.52,9.01l.15-.26,1.34-1.75c.26-.26,.56-.52,.86-.78,.34-.26,.63-.48,1.01-.67,.37-.22,.71-.37,1.08-.52,2.16-.89,4.54-.82,6.59,0,.34,.15,.71,.34,1.04,.52s.67,.41,1.01,.67c.3,.22,.6,.48,.86,.78,.26,.26,.52,.56,.78,.89,.22,.26,.37,.56,.56,.86l.07,.19,19.29,33.45c2.42,4.17,1.01,9.5-3.17,11.92l-.04-.04Z"/><rect class="c" x="-3.76" y="29.94" width="36.46" height="17.47" rx="8.72" ry="8.72" transform="translate(-26.26 31.87) rotate(-60)"/><path class="b" d="M34.81,22.88h0c4.17-2.41,9.5-.98,11.91,3.19l9.52,16.48c2.41,4.17,.98,9.5-3.19,11.91h0c-4.17,2.41-9.5,.98-11.91-3.19l-9.52-16.48c-2.41-4.17-.98-9.5,3.19-11.91Z"/></svg>