<?xml version="1.0" encoding="UTF-8"?><svg id="a" xmlns="http://www.w3.org/2000/svg" viewBox="0 0 135.6 25.32"><defs><style>.b{fill:#e69b5a;font-family:Poppins-ExtraBold, Poppins;font-size:15px;}.c{opacity:.7;}.c,.d{fill:#e79c5a;}.d{opacity:.35;}</style></defs><path class="c" d="M129.97,19.13c-1.05,.61-2.39,.24-2.99-.79l-2.97-5.15-2.96,5.15c-.61,1.05-1.95,1.4-3,.79-1.05-.61-1.4-1.95-.79-2.99l4.83-8.37,.04-.07,.34-.44c.07-.07,.14-.13,.22-.2,.08-.07,.16-.12,.25-.17,.09-.06,.18-.09,.27-.13,.54-.22,1.14-.21,1.66,0,.08,.04,.18,.08,.26,.13s.17,.1,.25,.17c.07,.06,.15,.12,.22,.2,.07,.07,.13,.14,.2,.22,.06,.07,.09,.14,.14,.22l.02,.05,4.84,8.4c.61,1.05,.25,2.38-.79,2.99h0Z"/><rect class="d" x="115.73" y="13.02" width="9.15" height="4.39" rx="2.19" ry="2.19" transform="translate(46.98 111.8) rotate(-60)"/><path class="c" d="M125.42,11.25h0c1.05-.6,2.38-.25,2.99,.8l2.39,4.14c.6,1.05,.25,2.38-.8,2.99h0c-1.05,.6-2.38,.25-2.99-.8l-2.39-4.14c-.6-1.05-.25-2.38,.8-2.99Z"/><text class="b" transform="translate(4.55 18.91)"><tspan x="0" y="0">TECHHUB SYD</tspan></text></svg>