<svg xmlns="http://www.w3.org/2000/svg" width="448" height="363.86" viewBox="0 0 448 363.86"><path d="M401.949,138.761c.284,3.98.284,7.963.284,11.939,0,121.38-92.385,261.238-261.238,261.238A259.467,259.467,0,0,1,0,370.721a189.936,189.936,0,0,0,22.173,1.137,183.881,183.881,0,0,0,113.99-39.229,91.979,91.979,0,0,1-85.85-63.675,115.79,115.79,0,0,0,17.341,1.421,97.112,97.112,0,0,0,24.162-3.126,91.829,91.829,0,0,1-73.623-90.112V176a92.469,92.469,0,0,0,41.5,11.654,91.954,91.954,0,0,1-28.426-122.8,260.987,260.987,0,0,0,189.319,96.081,103.647,103.647,0,0,1-2.275-21.035,91.9,91.9,0,0,1,158.9-62.825A180.775,180.775,0,0,0,435.487,54.9a91.57,91.57,0,0,1-40.366,50.6A184.068,184.068,0,0,0,448,91.29a197.372,197.372,0,0,1-46.05,47.471Z" transform="translate(0 -48.079)" fill="#d9c2f2"/></svg>