<svg xmlns="http://www.w3.org/2000/svg" width="448" height="315" viewBox="0 0 448 315"><path d="M453.572,113.287A56.291,56.291,0,0,0,413.964,73.42C379.027,64,238.933,64,238.933,64S98.84,64,63.9,73.422a56.293,56.293,0,0,0-39.608,39.867c-9.361,35.162-9.361,108.529-9.361,108.529s0,73.367,9.361,108.527A55.453,55.453,0,0,0,63.9,369.573C98.84,379,238.933,379,238.933,379s140.093,0,175.031-9.422a55.453,55.453,0,0,0,39.608-39.228c9.361-35.164,9.361-108.527,9.361-108.527s0-73.367-9.361-108.527ZM193.115,288.43V155.206l117.09,66.613-117.09,66.609Z" transform="translate(-14.933 -64)" fill="#d9c2f2"/></svg>